<svg xmlns="http://www.w3.org/2000/svg" xmlns:ev="http://www.w3.org/2001/xml-events" xmlns:xlink="http://www.w3.org/1999/xlink" width="29.7cm" height="21cm" baseProfile="tiny" version="1.2" viewBox="0 0 1122.52 793.701"><metadata/><g id="layer1" fill="none" stroke="#00f" style="display:inline"><polygon points="561.26 381.732 548.167 404.409 574.352 404.409"/><polygon points="591.496 396.85 561.26 366.614 531.024 396.85 561.26 427.087"/><polygon points="561.26 336.378 508.889 366.614 508.889 427.087 561.26 457.323 613.63 427.087 613.63 366.614"/><polygon points="561.26 321.26 502.161 349.721 487.565 413.671 528.462 464.955 594.057 464.955 634.955 413.671 620.359 349.721"/><polygon points="632.35 299.004 561.26 275.906 490.17 299.004 446.234 359.476 446.234 434.224 490.17 494.697 561.26 517.795 632.35 494.697 676.285 434.224 676.285 359.476"/><polygon points="643.991 169.548 561.26 154.961 478.529 169.548 405.776 211.552 351.777 275.906 323.045 354.847 323.045 438.854 351.777 517.795 405.776 582.149 478.529 624.152 561.26 638.74 643.991 624.152 716.744 582.149 770.742 517.795 799.475 438.854 799.475 354.847 770.742 275.906 716.744 211.552"/><polygon points="479.341 185.392 408.485 229.264 358.262 295.77 335.456 375.926 343.145 458.909 380.292 533.511 441.88 589.655 519.591 619.761 602.929 619.761 680.64 589.655 742.227 533.511 779.375 458.909 787.064 375.926 764.258 295.77 714.035 229.264 643.179 185.392 561.26 170.079"/><polygon points="470.551 396.85 497.119 460.991 561.26 487.559 625.401 460.991 651.968 396.85 625.401 332.71 561.26 306.142 497.119 332.71"/><polygon points="410.079 396.85 430.333 472.441 485.669 527.777 561.26 548.032 636.85 527.777 692.187 472.441 712.441 396.85 692.187 321.26 636.85 265.924 561.26 245.669 485.669 265.924 430.333 321.26"/><polygon points="534.601 433.543 587.918 433.543 604.394 382.835 561.26 351.496 518.125 382.835"/><polygon points="652.909 449.764 665.479 378.474 629.284 315.782 561.26 291.024 493.236 315.782 457.041 378.474 469.611 449.764 525.065 496.295 597.455 496.295"/><polygon points="664.089 485.953 695.938 416.214 685.027 340.328 634.821 282.387 561.26 260.787 487.699 282.387 437.493 340.328 426.582 416.214 458.43 485.953 522.927 527.402 599.593 527.402"/><polygon points="716.752 455.821 726.346 376.805 698.121 302.382 638.543 249.6 561.26 230.551 483.977 249.6 424.398 302.382 396.173 376.805 405.767 455.821 450.983 521.327 521.462 558.317 601.058 558.317 671.537 521.327"/><polygon points="676.78 555.851 731.465 495.118 756.719 417.394 748.176 336.118 707.314 265.342 641.198 217.306 561.26 200.315 481.322 217.306 415.206 265.342 374.344 336.118 365.801 417.394 391.055 495.118 445.739 555.851 520.398 589.091 602.122 589.091"/><polygon points="561.26 578.268 639.974 560.302 703.098 509.962 738.129 437.219 738.129 356.481 703.098 283.738 639.974 233.399 561.26 215.433 482.546 233.399 419.422 283.738 384.391 356.481 384.391 437.219 419.422 509.962 482.546 560.302"/><polygon points="436.629 655.648 518.448 680.886 604.071 680.886 685.89 655.648 756.635 607.415 810.02 540.472 841.302 460.768 847.701 375.385 828.648 291.908 785.836 217.757 723.07 159.518 645.927 122.368 561.26 109.606 476.593 122.368 399.45 159.518 336.683 217.757 293.872 291.908 274.819 375.385 281.218 460.768 312.499 540.472 365.884 607.415"/><polygon points="372.173 570.917 438.938 622.882 518.958 650.353 603.562 650.353 683.582 622.882 750.347 570.917 796.621 500.089 817.39 418.074 810.403 333.759 776.418 256.28 719.117 194.035 644.71 153.768 561.26 139.843 477.81 153.768 403.402 194.035 346.101 256.28 312.116 333.759 305.13 418.074 325.899 500.089"/><polygon points="411.598 546.512 480.264 592.393 561.26 608.504 642.256 592.393 710.922 546.512 756.802 477.847 772.913 396.85 756.802 315.854 710.922 247.189 642.256 201.308 561.26 185.197 480.264 201.308 411.598 247.189 365.717 315.854 349.606 396.85 365.717 477.847"/><polygon points="286.221 522.456 332.75 594.856 397.791 651.214 476.075 686.965 561.26 699.213 646.445 686.965 724.729 651.214 789.77 594.856 836.298 522.456 860.544 439.881 860.544 353.82 836.298 271.245 789.77 198.845 724.729 142.487 646.445 106.736 561.26 94.488 476.075 106.736 397.791 142.487 332.75 198.845 286.221 271.245 261.975 353.82 261.975 439.881"/><polygon points="833.386 396.85 820.067 312.759 781.414 236.899 721.212 176.696 645.351 138.043 561.26 124.724 477.168 138.043 401.308 176.696 341.105 236.899 302.453 312.759 289.134 396.85 302.453 480.942 341.105 556.802 401.308 617.005 477.168 655.658 561.26 668.976 645.351 655.658 721.212 617.005 781.414 556.802 820.067 480.942"/></g></svg>