<svg xmlns="http://www.w3.org/2000/svg" xmlns:ev="http://www.w3.org/2001/xml-events" xmlns:xlink="http://www.w3.org/1999/xlink" width="12.5cm" height="12.5cm" baseProfile="tiny" version="1.2" viewBox="0 0 472.441 472.441"><metadata/><g id="layer1" fill="none" stroke="#00f" style="display:inline"><polyline points="33.787 33.12 29.953 36.453 18.12 48.62"/><polyline points="22.12 55.287 28.62 42.12 30.953 33.62"/><polyline points="32.62 36.287 32.287 39.62 29.12 47.12"/><polyline points="34.287 41.787 33.453 44.62 27.453 53.953 27.287 55.12 28.287 57.12"/><polyline points="30.787 60.62 37.453 45.62 39.953 36.62 39.953 29.287"/><polyline points="33.62 30.453 36.787 34.62 39.953 41.62 40.62 48.453"/><polyline points="38.12 45.453 35.287 45.287 48.787 40.62 53.787 36.787 53.787 35.787 50.287 35.287 51.953 32.787 52.62 29.953 52.12 27.953 47.787 27.953 52.953 23.12 48.453 23.12 44.953 24.62 43.62 24.62 44.12 19.787 43.287 18.287 41.453 18.453 38.62 21.453 33.453 29.287 33.453 25.62 32.287 24.453 30.453 24.953 29.453 30.12 28.787 31.453 25.787 31.453 25.287 33.12 25.12 36.287"/><polyline points="27.787 36.953 40.953 53.453 47.787 59.62"/><polyline points="98.527 55.953 98.36 58.287 99.36 59.453"/><line x1="100.194" x2="99.527" y1="60.62" y2="55.453"/><polyline points="99.027 55.12 120.86 51.953 123.527 51.953"/><line x1="122.694" x2="109.694" y1="50.453" y2="53.287"/><polyline points="109.694 52.453 114.86 50.953 118.86 47.953 121.86 46.953 122.194 49.12 121.694 50.62 120.86 50.287 120.694 49.453 121.36 47.287"/><polyline points="120.36 52.287 111.027 55.62 103.527 57.787 101.027 59.12"/><polyline points="106.527 51.12 103.027 47.287 100.527 40.453 96.86 34.287 102.527 40.453 104.194 35.453 103.86 29.12 104.694 27.62 109.36 23.453 111.027 18.12 111.027 24.787 109.027 28.12 112.027 27.287 114.694 25.787 114.86 26.287 114.694 31.12 112.36 37.453 113.694 37.787 115.86 36.953 117.027 35.12 116.86 41.62 116.36 44.953 115.194 47.62 112.527 50.453"/><polyline points="114.194 115.36 115.86 116.194 122.027 117.027 120.694 121.027 116.36 129.194 111.027 136.36 109.194 137.36 104.36 135.86 99.86 133.694 96.86 131.527 97.194 130.86 104.36 126.86 111.86 119.86 115.86 117.027"/><polyline points="109.86 117.694 109.36 122.86 105.86 135.36 106.36 136.36 117.86 139.36 118.36 138.86 119.194 131.527 119.027 120.527 118.527 119.694 115.527 118.36 108.527 116.694"/><polyline points="104.194 116.694 101.86 121.527 102.027 124.527 105.527 124.86 114.027 131.027 122.86 135.194 123.527 134.86 123.86 132.027 125.527 127.36 125.194 126.027 115.694 121.86 103.36 117.694"/><polyline points="103.86 128.36 103.194 121.194 103.36 103.694 104.194 104.527 106.36 112.194 107.36 113.694 108.86 107.36 108.86 101.36 109.527 101.36 111.694 106.027 113.027 107.027 114.694 102.027 115.027 96.86 116.36 98.527 118.86 106.027 120.027 107.694 120.527 106.36 120.86 101.194 121.194 102.36 122.194 115.527 122.86 117.86 123.194 115.694 123.027 124.86 123.527 125.36"/><polyline points="110.694 175.6 110.527 178.6 109.527 181.1 103.86 184.934 100.86 188.434 100.527 191.1 101.694 195.767 101.694 199.1 97.027 206.1 96.86 207.1"/><polyline points="99.194 208.434 105.194 207.267 106.194 210.434 110.694 216.1 106.36 217.934"/><polyline points="107.694 218.1 104.194 213.6 99.527 208.934"/><polyline points="100.694 216.6 106.027 211.434 111.194 207.767 115.027 212.267 108.694 214.767 102.694 217.934"/><polyline points="115.86 217.267 111.194 211.934 109.027 206.267 115.027 204.434 116.027 204.267 116.527 204.767 117.527 208.434 120.36 213.6 116.194 216.267 115.86 216.1"/><polyline points="117.527 256.841 113.694 264.341 111.36 271.341"/><polyline points="110.027 273.674 111.694 270.007 116.694 262.507 120.027 258.341 121.194 258.007"/><polyline points="121.527 257.007 120.86 259.507 119.527 260.841 110.694 264.507 105.86 269.674 105.694 273.841 106.527 276.507 107.694 277.507"/><polyline points="109.027 277.174 117.36 276.841 120.36 277.841 120.694 282.341 119.694 287.174 116.694 287.007 106.694 283.841 106.194 277.507"/><polyline points="106.36 278.174 100.694 279.841 96.86 283.507 97.36 285.674 98.694 286.341 100.36 286.507 106.36 283.674 109.694 280.841 110.027 279.841 110.027 278.841 108.527 278.341 102.527 278.341"/><polyline points="103.36 279.841 102.86 278.341 102.86 273.007 104.86 269.007 113.194 263.174 115.194 259.841 116.194 256.007 119.36 254.507 123.027 254.341 125.194 256.341 125.694 265.174 129.694 275.174 129.527 281.341 128.86 282.507 125.027 285.174"/><polyline points="122.027 284.007 128.194 289.341 131.694 291.507 133.194 289.674 136.694 288.007 137.36 287.007 134.194 284.674 125.36 281.174 122.527 281.007"/><polyline points="121.86 282.674 122.027 286.341 125.194 293.174 115.86 293.507"/><polyline points="119.027 280.341 120.194 273.341 122.86 266.174 122.86 263.174 122.027 261.507 120.36 260.007 114.194 257.507"/><polyline points="111.86 262.174 107.86 265.841 107.694 266.674 108.86 268.674"/><polyline points="114.36 278.007 114.36 273.507 115.527 267.507 116.694 266.174 120.86 263.674"/><polyline points="119.36 279.507 119.527 280.674 121.86 282.674 121.86 284.674 120.694 292.507 119.027 296.507 116.86 296.507 112.527 292.341 109.527 290.841 101.527 289.841 111.527 283.341 118.194 280.341 120.194 280.174"/><polyline points="126.194 333.081 126.86 333.914 130.86 352.414 132.36 346.581 134.194 341.914 134.694 351.747 132.86 359.747"/><polyline points="131.86 360.414 129.194 351.247 128.027 349.914 127.194 355.414 125.86 358.414 124.527 350.581 123.027 345.914 120.86 341.247 120.527 339.247 118.027 352.914 114.694 346.914 111.86 342.914 110.027 344.414 109.36 343.247 109.194 341.414 106.027 345.914 103.527 350.914 102.694 355.081 103.194 357.581"/><polyline points="112.86 363.081 109.527 363.581 108.027 362.914 106.027 356.914 106.527 356.414 108.36 356.747 114.694 359.914"/><polyline points="117.86 361.747 114.527 363.914 117.36 364.081 121.86 362.747 123.527 360.914 122.027 359.247 119.86 358.914 118.86 359.247 117.36 361.081 117.36 362.414 118.194 364.247"/><polyline points="118.527 364.914 115.527 365.414 113.86 366.581 112.694 368.581 112.694 370.914 117.86 371.081 119.194 371.914 121.527 374.581 123.527 375.414 125.86 375.414 128.86 374.581 130.36 373.247 130.694 371.914 130.027 365.414 128.694 361.747 126.694 361.747 119.36 364.414"/><polyline points="112.36 366.581 106.527 362.581 96.86 357.581 97.527 372.581 98.527 373.081 100.86 372.747 110.36 369.747"/><polyline points="129.694 365.581 128.694 367.581 129.027 369.081 135.027 369.247 135.86 368.914 137.027 361.747 136.694 361.081 133.694 362.581 131.527 364.247"/><polyline points="179.434 360.747 182.1 360.081 185.934 360.247 190.1 359.081 188.934 356.414 187.934 356.414 179.434 359.747"/><polygon points="179.267 349.914 181.6 353.081 185.434 355.914 184.767 352.414 183.934 350.747 182.434 349.581 181.1 344.581 175.6 337.914 176.434 338.081 176.767 339.081 178.1 347.247"/><polyline points="186.434 349.414 191.767 355.414 193.434 359.081"/><polyline points="194.1 357.914 195.6 356.914 201.767 354.747 204.767 352.081 205.934 349.914 205.767 342.081 203.434 336.581 202.934 336.581 202.434 342.914 199.6 351.747 199.434 346.914 195.934 336.247 195.6 333.747 193.934 343.247 194.267 350.081 194.767 351.581 193.434 349.414 190.6 341.747 190.267 335.581 189.434 333.081 188.267 335.247 189.267 337.247 189.267 340.914 187.767 344.581 187.1 344.081 184.934 338.747 181.267 335.081 182.767 337.747 183.6 340.081 183.267 346.081 184.6 352.081 187.434 355.747 191.767 357.747"/><polyline points="190.767 358.581 200.267 358.247 204.1 358.914 202.267 360.914 196.6 359.914 190.767 359.581"/><line x1="192.934" x2="191.1" y1="353.914" y2="349.747"/><polyline points="196.267 355.914 197.434 351.247 196.434 343.081"/><polyline points="193.267 340.914 192.267 337.581 191.934 333.081 192.6 333.914 193.6 340.247"/><polyline points="200.6 341.747 199.1 338.414 199.1 333.414 201.1 337.914 201.1 342.414"/><line x1="203.267" x2="200.6" y1="347.247" y2="354.414"/><line x1="202.767" x2="210.1" y1="355.914" y2="360.747"/><polyline points="208.767 362.414 209.934 362.081 211.267 360.081 207.934 356.081 206.434 354.914 203.6 357.247"/><polyline points="203.434 355.747 204.934 355.581 206.1 354.747 208.434 351.247 209.934 347.081 209.267 339.581 210.267 336.914 212.6 334.747 211.934 338.747 213.267 346.081 212.767 350.414 211.934 352.414"/><polyline points="209.934 354.914 215.934 358.581 217.934 356.247 209.1 354.414"/><line x1="254.341" x2="267.174" y1="373.581" y2="359.914"/><polyline points="269.174 360.081 268.507 361.414 266.841 369.414 267.174 375.414"/><polyline points="278.674 375.581 276.341 372.414 270.341 360.414"/><polyline points="271.674 359.914 282.174 367.247 287.174 369.747"/><polyline points="277.174 361.914 277.674 359.247 280.841 351.747 283.341 338.747 281.507 338.914 280.007 339.914 277.174 343.914 274.174 352.914 274.174 355.414 275.507 340.414 275.507 334.747 275.007 333.081 272.341 336.414 267.841 351.081 267.674 355.081 268.007 335.914 266.674 338.747 263.841 353.247 264.341 355.914 262.674 350.747"/><polyline points="260.841 349.914 260.841 343.581 260.674 352.414 261.341 357.914 262.174 360.081"/><polyline points="277.174 418.488 277.841 415.321 277.007 414.321 275.174 414.154 275.007 419.154 268.841 438.988 268.841 442.654 269.174 439.488 270.674 436.654 270.174 434.821 270.507 426.821 268.674 425.488 268.507 422.321 267.507 420.654 264.841 418.154 266.174 415.488 265.674 414.488 262.507 413.654 261.174 411.821 259.007 411.988 257.174 413.488 257.341 415.321 261.341 420.321 263.674 421.488 264.341 423.488 264.341 426.821 262.507 435.488 262.507 440.988 264.007 444.321"/><polyline points="254.341 442.821 257.341 442.988 263.841 446.154 272.507 452.654 275.174 453.821"/><polyline points="273.674 442.654 271.674 443.821 263.341 451.154 258.341 454.154"/><polyline points="193.1 451.154 192.1 451.488 189.6 454.321 189.1 443.988 178.267 451.988 177.434 451.988 176.1 450.988 175.767 449.821 183.934 444.488 188.1 444.321 194.1 440.988 200.434 436.654 189.934 441.654 191.767 435.988 197.767 428.321 196.1 428.654 195.767 425.988 194.767 427.154 193.1 431.488 193.1 424.488 191.434 425.821 189.934 428.488 189.6 433.988 188.934 433.821 188.6 432.488 189.934 437.821 189.6 442.654 189.1 444.488 191.267 445.321 194.434 445.821 197.934 444.154 202.934 440.154 206.434 435.988 209.767 429.654 208.6 429.154 206.6 429.654 196.267 434.488 195.1 434.654 200.6 428.654 207.267 420.488 208.767 418.154 208.767 417.154 207.767 416.988 204.434 418.321 199.6 421.821 201.6 413.654 198.6 413.654 196.1 414.321 193.267 417.154 194.6 411.821 191.934 414.654 190.1 419.321 188.934 413.654 185.767 420.488 185.6 430.321 183.934 426.154 183.1 426.488 183.1 428.321 183.934 435.321 187.934 443.988 189.1 444.154"/><polyline points="132.694 443.988 123.36 443.488 115.86 442.321"/><line x1="115.027" x2="130.694" y1="442.154" y2="440.988"/><line x1="131.694" x2="131.86" y1="440.988" y2="443.321"/><polyline points="121.36 440.488 125.527 438.988 127.36 437.321 129.027 434.321 129.86 429.321 126.86 430.654 123.194 430.821 123.86 427.988 123.694 426.654 122.86 424.988 120.027 422.488 121.36 415.154 121.194 411.821 119.694 415.988 114.694 421.154 112.194 427.821 111.527 428.154 108.86 422.988 110.527 428.654 110.194 430.654 103.86 434.154 102.86 435.321 102.86 436.154 104.027 437.654 107.194 439.988 110.86 441.321"/><polyline points="113.694 442.654 103.527 442.488 97.36 443.154"/><line x1="96.86" x2="97.36" y1="443.154" y2="439.821"/><line x1="97.027" x2="114.36" y1="440.821" y2="441.654"/><line x1="105.86" x2="107.36" y1="450.154" y2="451.988"/><polyline points="106.36 451.654 107.027 452.654 108.527 451.488 110.86 448.488 114.36 441.988 120.86 454.321"/><polyline points="120.86 453.988 122.527 451.154 123.527 450.988 123.86 451.654"/><line x1="123.527" x2="121.36" y1="452.821" y2="453.654"/><polyline points="124.527 452.821 123.194 450.654 118.36 446.321 114.86 441.821 110.694 444.988 105.694 450.488"/><line x1="98.36" x2="98.027" y1="442.488" y2="440.988"/><polyline points="51.62 435.488 51.453 433.821 50.62 432.321 49.453 431.154 48.453 431.154"/><polyline points="47.287 432.654 46.12 432.654 39.12 438.154 30.453 445.821 28.287 448.488"/><polyline points="32.453 445.654 31.12 445.654 29.953 444.988 26.287 440.154 25.453 432.488 26.453 424.488 23.287 417.821 29.287 423.488 31.12 421.154 34.62 411.821 35.453 417.321 37.287 420.988 41.12 414.321 41.62 420.821 47.287 429.154 47.953 437.988 46.787 441.488"/><polyline points="48.62 445.321 50.787 446.654 50.953 448.154 49.953 448.821 46.12 449.988"/><polyline points="45.453 450.488 34.953 448.154 19.453 443.821 18.787 441.154 19.787 439.988 21.953 439.488 26.287 439.654 26.62 440.321 25.787 442.321 24.453 443.488 21.953 444.154 18.12 443.654"/><polyline points="27.787 440.321 28.953 440.154 44.62 443.321 48.953 444.654 50.12 445.654"/><polyline points="50.787 435.988 41.62 443.488 34.62 450.154 31.62 454.154"/><polyline points="31.787 454.321 26.12 453.821 25.12 452.488 25.12 451.321 26.787 449.321 29.287 448.321 32.787 448.154 33.787 449.321"/><polyline points="35.62 443.321 33.62 442.988 32.453 440.654"/><polyline points="24.12 369.081 21.453 372.581 18.12 374.747 22.287 375.581 24.953 375.414 26.62 372.247 28.62 370.581 32.787 373.081 37.62 374.581 39.953 370.081 34.287 368.414 40.953 364.414 36.12 362.247 30.953 364.414 19.953 363.914 22.453 368.414 24.62 368.747"/><polyline points="27.287 366.081 25.787 363.414 22.12 359.247 20.787 356.581 18.453 346.581 24.953 354.414 26.453 355.581 29.953 357.414 28.453 353.081 28.453 349.914 30.287 344.247 31.12 343.747 32.453 348.081 34.787 352.581 38.453 347.414 41.12 345.414 41.787 346.247 41.287 348.747 38.287 357.914 43.287 352.581 45.12 351.747 44.787 354.081 43.12 357.581 41.287 360.581 37.62 363.914 32.62 365.747 28.953 366.581"/><polyline points="25.787 351.581 22.12 345.414 20.953 342.081 20.62 338.247 25.12 344.247 26.453 345.414 28.12 345.747 29.787 342.247 31.787 333.414 32.453 333.081 35.453 340.081 36.453 341.247 41.453 338.914 45.12 338.581 46.62 340.414 47.12 342.414"/><polyline points="25.453 278.674 22.62 271.674 19.787 259.674 19.787 264.007 20.787 269.007 23.953 280.007 26.453 286.007 24.953 273.674 24.953 264.674 26.287 255.507 25.453 268.174 25.62 281.007 25.787 281.841 27.453 268.841 29.787 256.507 29.953 261.507 28.62 273.174 28.787 281.507 29.787 284.174 33.12 264.507 36.453 254.507 36.953 260.841 35.453 273.341 35.62 284.507 39.62 267.174 43.787 255.674 44.12 258.174 42.287 274.341 42.287 280.507 42.787 282.507 51.453 259.341 52.12 262.007 51.453 265.841 47.12 282.007 39.453 281.841 32.287 282.841 20.453 288.841 18.12 290.507 27.287 286.174 50.12 277.174 47.453 279.174 41.62 281.674 35.62 283.341 30.62 283.507 25.287 280.841 22.12 277.674 20.787 275.507 22.12 275.174 32.787 285.174 52.453 296.841 43.453 289.841 34.62 285.007 28.62 281.007 21.787 274.841 22.787 275.007 33.453 284.341 46.287 292.674 40.12 289.841 28.953 282.674 26.12 280.341 22.287 275.507 22.953 275.174 24.62 275.841"/><polyline points="21.953 206.1 21.787 197.934 25.12 192.6 26.12 191.934 28.453 191.934 30.287 190.934 32.287 179.1 32.12 175.934 32.287 181.767 33.287 187.267 34.953 189.1 35.953 188.767 36.787 183.767 37.12 175.6 38.62 183.6 39.953 187.1 40.787 187.6 45.287 179.1 45.453 181.267 43.453 188.434 43.287 192.434 45.787 200.434 48.287 202.767 49.62 204.934 49.953 208.434"/><polyline points="50.953 204.1 54.453 202.267 60.12 202.434 60.62 203.767 59.287 205.767 36.12 216.934 33.12 217.767 29.287 217.934 20.787 217.1 19.787 215.6 19.62 213.267 20.12 209.767 29.62 205.934 55.62 201.767"/><polyline points="20.287 202.934 18.953 202.767 18.787 204.434 21.62 209.1 26.12 212.1 30.953 214.267 39.287 215.434 53.787 215.267 58.453 214.767 56.787 212.6 54.953 211.434 42.62 208.267 31.453 206.434 18.12 205.6"/><polyline points="35.12 126.36 31.787 122.36 27.953 118.86 25.953 115.194 24.12 109.36 24.12 105.527 24.787 103.86 25.787 104.36 28.287 108.36 29.453 109.027 29.787 102.36 32.287 98.027 35.453 102.694 39.453 96.86 40.953 98.86 42.287 102.86 42.953 102.694 44.62 100.36 44.953 100.527 45.453 102.86 45.453 106.86 42.953 114.027 37.787 122.527 36.953 125.194 35.787 126.194"/><polyline points="37.953 120.36 43.453 122.027 43.453 123.194 32.62 137.694 29.787 139.36 27.953 139.36 25.453 138.694 18.12 135.694 27.953 126.527 37.287 119.527"/><polyline points="26.62 121.86 28.953 120.194 31.62 120.86 35.787 123.36 43.453 130.527 46.62 131.694 43.12 137.194 38.953 134.694 29.62 127.194 24.62 121.86"/><polyline points="176.434 96.86 175.934 97.027 175.6 98.694 176.434 100.86 178.934 102.36 181.267 102.694 182.434 105.36 182.267 109.527"/><line x1="188.434" x2="189.434" y1="102.527" y2="100.527"/><polyline points="199.6 122.194 198.434 123.527 197.434 123.694 197.1 122.86 197.1 115.694 196.6 113.86 195.767 114.194 189.434 126.527 188.767 120.86 187.6 119.527 186.767 122.694 185.6 124.527 184.767 124.027 183.1 117.86 181.1 113.36 180.1 114.694 178.934 117.86 177.767 126.527 180.1 118.027 181.934 116.194 184.434 120.194 186.267 121.36 187.6 120.86 192.267 114.86 193.6 113.86 194.767 113.694 197.1 119.027 197.767 119.194 198.767 111.36 198.1 110.527 195.1 116.194 194.434 111.527 193.6 110.194 192.767 110.86 191.434 114.36 190.934 114.527 190.767 111.36 190.1 110.527 187.934 116.527 187.434 116.86 186.767 111.527 185.767 110.694 184.267 114.694 183.6 111.36 182.6 110.36 182.1 111.194 181.267 117.027 181.434 122.86 182.1 125.027"/><polyline points="182.267 124.694 185.934 123.86 188.767 121.86 192.1 121.694 193.434 124.527 195.1 125.694 195.934 127.527 197.934 129.027 199.934 133.36 195.934 133.86 193.434 135.027 190.1 129.527 189.767 127.86"/><polyline points="182.267 127.527 179.267 132.36 178.267 133.027 176.934 135.86 178.934 138.36 182.1 139.36 182.767 138.694 184.767 134.527 189.6 127.527 187.6 125.694 184.1 124.86 182.934 124.86 181.6 127.027"/><polyline points="194.267 59.287 196.267 58.787 206.6 58.453 207.767 57.453 205.934 56.787 197.6 55.62"/><polyline points="201.434 54.953 203.767 54.453 205.434 53.287 212.1 45.62 204.6 50.453"/><polyline points="206.767 48.287 210.267 41.787 211.1 28.787 209.434 34.287 206.934 39.62"/><polyline points="208.6 34.953 205.434 36.62 202.434 36.787 201.1 36.287 199.934 34.953 198.934 32.287 201.267 26.62"/><polyline points="198.1 37.453 198.6 28.953 197.934 26.287 196.6 23.953 194.6 21.953 187.267 18.12 189.934 20.12"/><polyline points="184.1 26.12 186.934 36.287 187.267 39.953 188.1 40.787"/><polyline points="186.267 42.953 184.267 41.12 180.434 33.453 180.1 31.453"/><polyline points="180.1 25.953 178.934 26.453 175.934 31.953 175.6 37.287 176.1 39.953 177.267 42.287 182.934 48.453 186.267 52.953"/><polyline points="189.1 54.953 198.434 52.953 203.1 53.12 203.267 53.953 200.1 55.62 191.267 57.287 190.1 58.12"/><polyline points="188.934 55.62 181.6 55.787 177.767 53.787 176.267 51.62 176.1 48.953 179.6 48.953 181.1 50.287"/><polyline points="192.434 56.287 192.1 60.287 181.434 60.62 179.6 59.787 182.6 58.453 188.6 56.953 185.434 57.12 187.1 56.62 193.434 55.787"/><polyline points="256.174 41.287 254.507 33.62 254.674 29.12 255.174 27.62"/><polyline points="263.007 22.953 263.507 34.787 264.507 36.12"/><polyline points="265.507 38.453 265.507 32.62 265.841 30.953 267.007 27.953 269.007 24.787"/><polyline points="262.841 21.287 261.674 24.12 261.174 28.953 261.341 30.787 263.507 33.453"/><polyline points="269.341 34.12 270.674 35.12 276.341 37.12 279.674 39.62 281.007 42.62 280.674 47.453 279.174 52.287 273.674 58.787 270.341 60.453 264.507 60.62 259.174 59.12 256.007 56.12 254.507 51.787 254.674 43.953 256.507 40.453 260.341 37.453 265.674 35.287 272.007 34.287"/><polyline points="274.674 34.953 278.507 26.953 280.341 20.287 281.507 18.12"/><polyline points="284.341 22.62 279.674 28.787 277.174 33.453 276.507 36.12 277.007 39.953"/><polyline points="280.841 44.287 280.674 41.953 281.841 38.953 289.507 26.12"/><polyline points="285.174 24.787 283.507 27.287 282.174 32.287 282.174 43.953"/><polyline points="269.507 36.453 269.674 31.287 271.674 27.62 274.341 19.62"/><polyline points="266.341 40.787 260.174 42.787 260.174 45.787 261.341 50.12 266.507 48.12 274.174 46.12 274.341 44.287 273.507 42.453 272.174 39.953 270.174 38.287 266.507 38.287 264.007 40.287 263.007 40.287"/><polyline points="264.841 52.287 268.341 51.453 277.674 46.287 279.174 46.12 279.174 51.453 274.341 54.62 267.174 58.12 266.674 56.62 267.007 53.287"/><line x1="265.507" x2="265.507" y1="97.194" y2="97.194"/><line x1="260.841" x2="261.841" y1="102.36" y2="106.527"/><line x1="266.174" x2="266.174" y1="105.86" y2="104.86"/><line x1="270.674" x2="270.674" y1="117.027" y2="117.027"/><polyline points="269.507 119.194 272.341 119.527 279.341 118.527 281.007 115.86 278.841 113.027 277.341 108.527 280.007 101.527 279.674 99.36 274.507 100.027 272.007 103.694 270.841 110.027 275.674 115.027 276.341 119.36 275.841 120.36"/><polyline points="276.674 121.694 283.341 133.027 284.507 133.86"/><line x1="286.341" x2="281.007" y1="132.694" y2="122.86"/><line x1="285.007" x2="285.341" y1="122.694" y2="122.86"/><line x1="291.841" x2="292.174" y1="121.027" y2="121.027"/><line x1="293.007" x2="293.007" y1="120.027" y2="120.027"/><line x1="287.174" x2="287.174" y1="114.027" y2="114.027"/><line x1="290.007" x2="289.674" y1="108.36" y2="108.027"/><line x1="296.841" x2="296.841" y1="110.194" y2="110.527"/><line x1="279.674" x2="279.341" y1="110.194" y2="110.194"/><polyline points="274.841 115.527 278.174 114.527 279.174 113.527 277.841 98.36 276.674 99.36 285.507 113.527 286.007 112.36 271.507 105.027 270.507 107.36 285.007 108.36 284.507 107.36 273.841 105.027 272.841 107.194 281.507 116.694 282.507 115.194 280.507 106.527 275.507 113.527 274.841 115.194 275.007 126.86 276.341 126.527 281.174 118.36 280.341 117.527 279.341 104.36 272.007 119.027 283.174 120.694 276.341 113.86 279.174 107.027 281.174 103.694 272.674 120.027 272.674 121.027 276.341 120.86 271.341 116.36 271.341 112.694 276.841 104.86 275.341 104.36 265.507 107.86 264.007 110.86 275.007 127.86"/><polyline points="277.007 127.194 271.174 135.86 269.841 138.694"/><polyline points="270.674 139.027 275.341 133.36 281.341 130.527"/><line x1="281.007" x2="285.841" y1="128.194" y2="137.36"/><polyline points="283.174 139.027 280.507 136.194 277.007 129.027"/><line x1="278.174" x2="273.174" y1="127.86" y2="132.194"/><polyline points="269.674 136.86 269.174 136.527 276.341 127.36 277.507 127.194"/><line x1="278.507" x2="276.007" y1="126.027" y2="138.36"/><line x1="279.674" x2="277.507" y1="137.527" y2="125.36"/><polyline points="275.007 125.36 279.007 125.027 277.674 121.194 277.841 120.36 280.174 117.86 283.174 116.027 284.674 114.36 284.507 113.694 283.174 113.027 277.507 111.027 276.507 109.194 278.174 106.527 284.174 103.027 285.674 101.194 285.507 100.36 282.674 97.86 279.841 96.86 275.007 97.027 273.341 97.694 273.674 98.694 276.174 100.527 277.174 102.027 274.007 104.194 270.174 109.194 269.841 114.86 271.674 118.527 275.507 122.194"/><polyline points="274.007 118.86 275.174 116.86 278.674 104.527 286.341 105.194 279.007 114.194 278.507 118.194 285.007 123.527 274.841 125.027 273.507 124.194 271.674 121.027"/><line x1="266.674" x2="266.507" y1="117.86" y2="118.027"/><line x1="260.091" x2="260.091" y1="121.694" y2="121.694"/><line x1="262.924" x2="262.924" y1="125.36" y2="125.36"/><line x1="264.507" x2="264.507" y1="133.944" y2="133.944"/><polyline points="267.007 139.027 272.674 126.027 275.674 123.027 278.007 123.527 282.507 128.194 288.341 135.86 276.174 138.36 268.341 138.694 267.674 139.194"/><line x1="281.674" x2="279.674" y1="137.027" y2="126.694"/><line x1="258.341" x2="257.174" y1="115.694" y2="115.194"/><line x1="254.341" x2="254.507" y1="119.527" y2="119.86"/><polyline points="254.841 193.267 257.341 196.6 275.341 208.267 285.841 213.267 285.507 212.1"/><polyline points="294.841 207.767 284.841 205.934 261.507 203.267 258.174 203.434 254.841 204.267"/><polyline points="254.341 213.767 269.007 203.6 276.674 196.267 289.174 188.1 287.341 188.6"/><polyline points="283.841 196.767 285.507 191.934 285.174 181.434 286.341 178.434 287.507 177.934 285.174 182.267 274.507 188.934 274.007 190.6 276.007 192.267 275.507 180.934 276.174 177.267 277.341 175.6 276.674 176.767 273.841 179.1 270.674 183.434 265.841 187.434 265.841 189.434 268.341 191.434 266.341 183.767 266.674 181.934 264.841 185.767 262.341 187.934 258.507 193.1 258.841 194.767 262.341 199.267 268.007 203.434"/><polyline points="256.174 218.1 259.007 215.1 264.507 210.434 277.007 202.934 290.507 195.767 291.841 195.6 292.841 197.434"/><polyline points="334.081 207.6 335.414 212.767 337.747 214.6 339.081 214.6 340.414 213.767 341.914 211.1 341.914 209.6 341.081 208.767 338.914 208.434 336.414 208.6 335.247 209.267 333.247 212.767 333.081 215.267 334.247 216.267 337.414 216.6 339.247 215.934 343.081 212.6 344.081 210.6 343.414 210.434 341.581 210.6 340.747 211.767 340.581 214.267 341.581 215.6 344.581 217.434 347.581 217.767 349.081 217.1 351.247 214.767 352.081 212.934 352.081 211.767 351.414 211.434 347.914 211.267 346.581 211.934 345.414 213.434 345.747 215.767 348.247 217.6 352.581 218.1 355.414 216.267 356.247 215.1 357.081 213.1 356.914 211.267 354.747 210.1 351.581 210.267 350.247 211.1 348.747 213.434 349.081 216.1 350.581 216.934 354.414 217.1 356.081 216.6 357.581 215.267 359.414 212.767 359.914 210.767 359.914 208.434 358.414 205.6 356.747 204.267 354.914 204.267 354.081 204.934 353.581 207.6 353.914 209.6 354.914 210.767 356.581 211.267 359.081 211.434 361.414 210.434 363.081 209.267 364.414 207.434 365.247 205.767 365.414 202.1 363.581 199.1 362.081 198.434 358.914 198.1 354.581 201.1 350.747 205.767 352.581 203.1 353.247 200.6 353.581 196.1 352.747 194.767 350.747 193.6 345.747 193.6 340.581 196.434 338.247 198.434 335.247 203.1 334.247 206.6 334.247 208.1 335.081 209.1 338.414 210.434 342.581 209.767 344.414 207.434 345.081 203.6 343.581 203.267 341.247 204.434 336.914 208.434 334.247 213.267"/><polyline points="346.081 217.434 342.747 208.934 337.914 199.767 335.747 194.6 335.081 192.1 335.081 183.767 335.581 181.267 337.581 200.1 337.581 185.934 338.247 180.267 339.747 176.267 340.914 175.6 341.914 177.267 344.081 187.934 346.247 194.934 349.247 180.1 350.581 176.434 352.747 193.267 352.581 199.767 350.914 208.434"/><polyline points="351.581 256.841 354.581 258.674 355.914 260.841 356.914 265.174 359.581 271.174 362.914 274.674 365.581 275.674 368.081 275.507 369.247 274.674 368.914 273.507 360.747 267.341 356.581 261.174 352.914 257.841"/><polyline points="352.747 272.174 356.914 274.341 357.914 274.507 359.081 273.507 358.247 267.007 354.081 259.007 350.081 255.674 347.414 254.341 349.914 257.507 352.414 269.341 353.914 273.174 357.581 278.507"/><polyline points="364.414 273.007 369.914 275.841 373.914 279.507 374.247 281.174 373.914 282.341 372.747 283.341 369.414 284.341 367.914 283.507"/><line x1="375.581" x2="375.581" y1="274.341" y2="274.341"/><polyline points="348.081 278.174 357.414 282.674 358.414 284.507 355.747 284.174 352.581 282.841 347.747 282.674 346.081 281.674"/><polyline points="343.081 274.674 346.747 273.507 361.747 264.507 368.914 261.007 369.414 263.174 368.747 264.674 365.581 267.507 363.247 269.007 349.414 274.007 342.914 275.507 342.581 274.341"/><polyline points="335.581 277.341 334.081 275.841 333.747 274.007 334.581 272.674 336.247 272.674 338.414 273.507 339.081 274.841 338.747 276.341 337.414 277.174 334.581 278.174 333.247 277.674 333.414 275.341"/><polyline points="337.914 264.507 338.081 265.674 339.747 266.341 340.914 265.841 341.081 262.674 340.081 260.007 339.081 258.674 337.914 258.007 335.414 260.341"/><polyline points="281.674 266.341 285.507 268.674 285.841 269.507 282.674 274.341 273.174 285.507 270.507 289.841 264.841 295.007 261.674 295.174 257.507 292.507 265.507 286.007 271.341 277.674 279.174 271.174 281.674 267.341"/><polyline points="269.841 284.841 267.341 282.007 265.507 277.341 264.674 260.841 268.507 258.174 270.341 254.841 272.007 254.341 274.341 256.507 277.174 256.007 278.341 259.341 278.341 269.174 276.174 281.341 275.174 282.841 271.007 283.674 269.174 285.674"/><polyline points="259.341 266.341 256.007 269.341 254.341 272.007 259.674 276.007 261.507 278.174 264.341 282.841 272.674 289.674 274.007 291.674 283.341 296.841 283.674 295.507 284.007 288.674 278.341 279.507 270.174 272.674 259.174 266.174"/><polyline points="204.267 293.841 191.767 292.507 175.6 292.507"/><polyline points="182.1 293.007 184.767 291.007 191.6 287.507 194.1 284.841"/><polyline points="194.6 281.674 193.1 281.341 190.1 278.841 188.267 276.007 181.1 270.507 179.434 260.507 180.934 259.007 189.434 255.841"/><polyline points="192.934 254.341 196.434 257.674 196.434 262.507 194.6 265.174 191.6 266.674 190.267 268.841 194.6 275.507"/><polyline points="197.6 283.674 192.1 289.674 189.1 294.174"/><polyline points="185.6 293.007 188.767 291.507 200.434 289.174"/><polyline points="196.934 287.674 192.6 289.507 184.1 296.841"/><line x1="185.267" x2="199.1" y1="286.507" y2="294.507"/><polyline points="196.434 296.841 194.267 295.341 189.934 286.007 188.267 284.841 186.434 284.507"/><polyline points="201.6 211.1 204.1 209.934 204.6 208.6 196.934 198.1 192.267 201.767 200.434 208.434 201.934 210.767"/><polyline points="197.934 199.767 197.434 186.267 195.434 189.767 193.6 191.1 192.434 191.1 191.434 182.767 189.1 176.1 187.934 175.6 187.267 178.434 187.934 180.934 187.934 184.434 186.434 194.6 183.434 190.434 182.434 187.1 181.6 186.1 179.434 190.1 179.934 194.434 182.6 199.267 184.934 205.767"/><polyline points="188.267 206.6 187.6 209.267 186.434 211.1 178.767 218.1 175.6 214.1 183.934 205.6 188.6 203.434"/><polyline points="190.1 201.767 189.767 202.1 192.434 204.767 196.767 210.767 197.6 212.767 192.267 215.267 189.267 209.767 188.6 206.434"/><polyline points="333.081 132.86 337.914 132.36 349.247 132.36 358.247 133.194"/><polyline points="350.581 139.36 350.081 137.36 340.081 124.36"/><polyline points="341.747 122.86 335.747 109.86 335.414 106.36 336.581 102.694 336.914 98.86 337.581 97.36 339.081 96.86 340.414 97.027 346.581 102.36 349.414 103.027 353.414 103.36 355.081 105.194 355.414 107.194 355.581 112.527 350.247 125.194 347.414 130.027"/><polyline points="344.247 128.86 341.081 126.527 339.247 123.86 339.581 116.36 340.414 115.527"/><polyline points="350.414 126.527 341.414 134.86 340.247 136.36 340.247 137.86"/><line x1="342.581" x2="355.747" y1="60.62" y2="47.453"/><polyline points="357.581 44.453 358.247 43.453 358.247 40.453 357.247 32.62 356.247 30.953 354.247 29.287 352.581 26.453 352.747 22.287 351.414 22.953 350.747 26.953 349.914 28.62 348.081 27.287 346.414 22.953 346.914 18.12 342.914 20.287 340.414 22.62 340.914 24.953 340.581 31.453 339.247 32.62 337.914 29.12 333.747 36.287 333.914 40.62 335.081 44.62 337.081 46.62 338.914 46.953"/><polyline points="338.747 47.12 344.081 47.287 347.414 47.953 365.914 52.953"/><polyline points="362.247 54.787 362.247 55.453 357.914 54.62 336.747 48.453 333.747 48.287 335.081 47.287 336.914 46.953 337.081 47.953 333.081 47.953"/><polyline points="343.247 53.287 344.747 50.62 351.747 44.287 356.081 41.453 358.747 40.787 358.747 41.12"/><polyline points="428.988 30.787 429.988 25.62 434.488 31.287 435.654 25.62 436.988 22.453 443.321 31.453 445.321 24.453 448.988 29.12 450.154 31.953"/><polyline points="449.654 32.453 451.488 32.12 452.988 32.453 454.154 34.12 454.321 35.12 446.154 37.953 434.821 38.12 425.654 37.453 411.988 34.453 427.488 33.787 439.988 32.12 448.988 32.12 450.654 32.62"/><polyline points="443.654 34.453 440.154 35.953 441.154 35.953 448.988 33.62 445.821 29.953 443.321 32.787 442.488 34.953"/><polygon points="431.821 36.453 434.988 36.953 439.154 33.12 441.654 29.453 432.988 33.12 429.988 35.453"/><line x1="432.488" x2="434.154" y1="24.787" y2="19.287"/><polyline points="440.988 23.453 443.988 19.453 445.988 18.12"/><line x1="451.488" x2="450.321" y1="21.62" y2="24.787"/><polyline points="424.654 97.027 422.154 105.527 421.321 112.36 421.321 116.694 422.988 120.86 425.821 123.527 431.488 125.36 435.821 125.027 439.488 123.194 440.654 121.527 442.321 117.86 442.988 113.527 442.654 101.694 441.654 99.86 438.654 104.027 437.488 104.027 436.154 101.86 435.154 98.194 434.154 98.527 432.654 102.027 431.488 103.194 429.821 102.36 427.321 98.027 426.154 97.027 425.154 96.86 423.821 98.194"/><polyline points="422.821 119.86 416.321 124.694 412.154 128.86 411.821 134.194 411.988 135.194 414.154 135.527 418.988 132.694 423.821 128.86"/><polyline points="427.154 127.194 425.988 131.36 425.488 135.694 425.654 138.694 427.821 139.36 428.488 138.194 430.321 127.527"/><polyline points="434.488 123.36 438.321 128.194 441.988 134.194 445.154 134.36 445.821 133.36 443.154 129.027 436.154 123.027"/><polyline points="440.154 119.527 442.821 122.694 445.821 127.36 447.154 128.694 448.654 129.194 450.654 128.194 451.154 127.194 444.821 121.027"/><polyline points="424.988 208.1 426.988 207.434 431.488 204.6 431.988 201.934 431.988 196.767 430.488 191.767 426.988 189.434 424.821 186.1 422.654 180.434 422.488 176.267 422.988 175.6 422.821 178.434 417.988 189.6 416.488 194.934 416.821 201.1 418.821 206.767 419.821 207.934"/><polyline points="422.321 207.6 418.154 207.6 412.154 206.767 411.821 208.934 412.321 209.6 415.321 210.767 417.321 210.767 417.988 211.434 415.654 212.6 413.988 215.1 414.321 216.1 415.988 216.767 417.988 216.434 422.821 212.1"/><polyline points="423.654 212.6 424.154 213.434 423.988 218.1 428.321 217.6 425.988 210.434"/><polyline points="425.821 210.767 428.654 210.934 432.988 212.767 434.321 212.6 433.488 208.267 424.488 208.6"/><polyline points="431.988 269.341 435.321 285.174 437.821 275.341 437.488 287.841 437.654 286.174 440.654 291.841 441.488 292.507 442.654 282.674 443.988 258.341 444.488 267.174 445.821 275.341 440.988 270.341 438.654 269.174 437.821 269.674 435.988 276.674 433.821 279.841 432.821 279.507 433.654 268.341 433.154 269.007 428.488 262.507 427.488 262.007 425.821 262.507 421.821 265.341 418.654 267.007 416.154 267.007 415.154 266.007 414.488 257.841 414.988 254.341 415.821 254.841 417.654 257.007 421.321 263.841 425.821 275.007 428.154 283.674 428.488 286.841 421.154 277.174 419.321 275.674 419.154 276.341 422.821 284.507 426.488 296.841 431.988 289.674 434.488 287.507 436.488 286.507 437.154 287.007 437.321 288.007"/><polyline points="435.321 290.174 429.154 284.841 422.821 276.174"/><polyline points="420.154 287.007 416.488 280.841 415.988 279.507 416.321 278.507 431.654 270.174 433.654 269.507 435.321 269.674 437.988 271.341 439.988 278.841 439.488 282.674 439.821 291.007 438.654 292.341"/><polyline points="451.488 288.007 450.488 289.007 446.821 289.841 434.821 290.341 425.321 291.841 411.821 291.341"/><polyline points="418.488 288.341 418.154 287.341 418.988 286.674 430.654 281.174 436.488 277.341"/><polyline points="435.988 278.841 433.988 279.674 430.654 281.841 420.154 292.007"/><polyline points="431.488 355.581 434.488 360.081 438.321 364.581 439.654 367.747"/><polyline points="433.654 369.414 438.654 365.247 442.821 364.081 446.154 361.581 447.321 360.081"/><polyline points="443.488 357.247 440.988 355.747 444.321 358.414 445.654 358.581 446.321 358.247 446.154 357.581 441.654 353.581 433.988 360.081 428.488 363.081"/><polyline points="427.154 358.581 432.488 355.081 430.488 353.914 427.821 354.747 423.988 357.581"/><polyline points="423.988 358.247 428.154 361.914 433.488 370.581 432.488 368.247"/><polyline points="411.821 367.747 411.988 364.081 412.988 361.914 419.988 357.081 422.988 351.747 422.988 346.914 421.321 340.081 421.321 336.747 422.488 334.914 426.154 333.081 427.488 333.747 427.988 335.247 426.821 340.414 426.821 345.247 427.488 347.747 428.821 349.747 430.988 351.247 434.321 351.914 436.821 349.247 437.321 343.414 436.488 339.747 434.821 335.414 431.821 333.914 433.821 333.747 437.988 336.914 439.821 341.914 441.154 350.247 442.821 354.581 444.154 355.247 446.488 354.914 447.821 353.081 449.321 350.247 450.488 346.247 450.321 342.414 449.488 339.747 446.654 336.081 444.321 333.914 445.321 333.414 448.988 334.747 451.488 338.414 451.488 341.581 449.488 350.581 449.154 358.914 450.154 360.914 454.321 363.747"/><polyline points="450.821 433.154 451.154 425.821 447.654 413.654 445.488 411.821 439.321 414.988 436.154 415.488 433.821 417.654 431.321 418.821 430.321 417.654 428.488 416.988 424.821 418.154 421.321 417.988 419.321 419.654 417.488 419.988 412.154 418.488 422.488 433.654"/><polyline points="422.821 433.654 424.654 433.654 433.821 436.988 443.821 439.321 450.988 442.321 452.154 443.488 452.321 444.821 451.488 445.988 446.654 446.488 429.154 439.154 419.654 432.821"/><polyline points="423.654 440.988 428.821 436.988 435.988 433.654 440.654 432.654 442.321 433.321 442.654 434.654 441.321 437.488 435.988 442.154 432.321 443.988 428.321 444.988 422.321 445.488"/><polyline points="411.821 440.821 413.654 439.988 418.988 439.654 442.654 439.488 451.988 438.988"/><polyline points="454.321 438.988 453.321 440.321 449.821 441.654 435.654 442.488 422.488 443.988 417.488 443.321 411.821 439.321"/><polyline points="352.247 441.321 359.081 440.988 360.414 441.654 359.414 444.821 357.747 445.154 354.581 444.321 349.081 444.321"/><polyline points="350.581 444.988 357.914 451.654 357.914 452.488 355.081 454.321 351.914 452.321 347.914 446.821 346.914 444.321"/><polyline points="345.747 440.988 342.747 436.821 341.747 431.988 338.247 433.988"/><polyline points="339.581 433.821 343.081 438.988 345.414 440.821"/><polyline points="343.914 439.488 333.414 438.488 333.081 440.988 333.081 441.654 336.747 443.154 343.581 442.988"/><polyline points="336.247 445.321 355.414 434.988 360.914 431.488 361.747 431.488 362.747 435.988 362.081 436.488 359.081 437.154 352.414 440.488 343.247 445.488 338.747 448.988 338.081 449.154 336.581 447.321"/><polyline points="348.247 434.321 349.581 432.654 355.081 428.154 357.581 421.988 357.247 419.654 354.747 417.488 352.414 411.988 351.581 411.821 350.414 412.821 350.247 413.654 350.414 416.988 351.414 420.988 351.414 424.321 348.914 431.488 348.914 432.488 350.081 434.321"/><polyline points="350.247 363.247 353.247 374.247 356.914 372.581 357.414 371.581 351.747 361.747"/><polyline points="353.747 361.247 358.081 367.914 358.914 368.414 362.081 366.414 363.747 364.414 359.247 361.581 354.414 357.247"/><polyline points="352.247 356.914 351.581 354.581 351.247 346.914"/><line x1="347.081" x2="346.747" y1="346.081" y2="352.747"/><line x1="345.914" x2="345.914" y1="353.914" y2="359.747"/><polyline points="345.581 362.247 348.581 374.247 344.914 374.747 343.747 375.414 342.914 371.581 343.081 362.247"/><polyline points="340.914 361.914 337.414 375.414 334.581 375.081 333.081 373.581 340.581 361.247 345.914 363.414 348.581 363.414 354.581 360.581 357.581 355.247 359.247 349.914 359.081 348.914 357.414 349.747 355.581 349.081 356.581 341.081 356.414 340.081 354.914 341.581 354.081 341.581 353.914 334.581 352.747 337.581 350.081 340.581 349.081 333.081 346.581 340.081 345.581 340.247 345.247 336.914 344.414 335.747 341.581 347.247 339.914 342.914 338.914 354.414 339.914 359.581 340.747 361.747"/></g></svg>