<svg xmlns="http://www.w3.org/2000/svg" xmlns:ev="http://www.w3.org/2001/xml-events" xmlns:xlink="http://www.w3.org/1999/xlink" width="21cm" height="29.7cm" baseProfile="tiny" version="1.2" viewBox="0 0 793.701 1122.52"><metadata/><g id="layer1" fill="none" stroke="#00f" style="display:inline"><polygon points="174.793 138.536 212.588 138.536 212.588 176.332 174.793 176.332"/><polygon points="212.588 176.332 212.588 138.536 250.383 138.536 250.383 176.332"/><polygon points="212.648 214.132 213.029 176.339 250.822 176.72 250.441 214.514"/><polygon points="250.335 210.72 252.195 248.47 214.446 250.329 212.586 212.58"/><polygon points="249.418 250.57 251.338 212.823 289.084 214.742 287.165 252.489"/><polygon points="283.647 291.914 245.954 289.127 248.741 251.435 286.434 254.221"/><polygon points="288.662 291.195 287.096 328.958 249.333 327.392 250.899 289.63"/><polygon points="289.007 288.609 326.769 290.207 325.171 327.968 287.41 326.37"/><polygon points="323.289 253.565 285.543 251.647 287.461 213.9 325.207 215.818"/><polygon points="325.12 252.599 362.911 253.116 362.394 290.908 324.603 290.391"/><polygon points="324.718 247.636 327.934 285.294 290.276 288.51 287.06 250.852"/><polygon points="325.719 215.484 363.503 216.415 362.572 254.199 324.788 253.268"/><polygon points="325.292 215.418 287.506 214.577 288.346 176.792 326.132 177.632"/><polygon points="363.007 251.305 364.592 213.542 402.354 215.127 400.769 252.889"/><polygon points="363.995 251.996 401.649 255.261 398.384 292.915 360.73 289.65"/><polygon points="362.307 286.606 364.568 324.333 326.84 326.593 324.58 288.866"/><polygon points="398.618 290.14 401.751 252.475 439.416 255.607 436.284 293.273"/><polygon points="439.928 288.718 477.7 287.423 478.996 325.196 441.223 326.491"/><polygon points="437.425 328.042 399.635 327.415 400.262 289.625 438.052 290.252"/><polygon points="439.409 367.791 401.659 365.952 403.497 328.202 441.248 330.04"/><polygon points="402.676 363.317 440.08 357.896 445.502 395.3 408.097 400.722"/><polygon points="402.015 362.324 364.236 363.432 363.128 325.653 400.907 324.545"/><polygon points="361.775 371.268 399.229 376.337 394.16 413.791 356.706 408.722"/><polygon points="363.163 398.331 367.789 435.842 330.278 440.469 325.652 402.957"/><polygon points="332.867 393.09 295.676 399.825 288.941 362.634 326.132 355.899"/><polygon points="323.487 407.55 321.263 445.279 283.533 443.056 285.757 405.326"/><polygon points="291.645 403.97 253.932 406.469 251.433 368.757 289.145 366.257"/><polygon points="284.661 437.655 246.946 435.19 249.41 397.476 287.125 399.94"/><polygon points="283.483 439.026 286.317 476.715 248.628 479.549 245.794 441.86"/><polygon points="330.01 439.582 367.13 446.695 360.017 483.815 322.897 476.702"/><polygon points="367.567 444.836 362.048 407.446 399.438 401.926 404.957 439.316"/><polygon points="395.883 443.68 399.346 406.043 436.983 409.507 433.519 447.143"/><polygon points="405.709 437.703 407.965 475.43 370.237 477.686 367.981 439.959"/><polygon points="414.157 479.477 406.337 442.499 443.315 434.68 451.134 471.657"/><polygon points="393.098 518.438 402.844 481.921 439.361 491.667 429.615 528.184"/><polygon points="371.897 511.508 334.789 518.682 327.615 481.574 364.723 474.4"/><polygon points="363.917 510.343 370.123 547.625 332.841 553.831 326.635 516.549"/><polygon points="362.306 518.182 399.3 525.926 391.555 562.919 354.562 555.175"/><polygon points="368.53 524.912 369.477 487.129 407.26 488.075 406.313 525.859"/><polygon points="402.331 546.526 394.426 509.567 431.385 501.662 439.29 538.621"/><polygon points="401.666 562.11 438.324 552.907 447.527 589.564 410.869 598.767"/><polygon points="396.257 590.778 391.305 628.248 353.835 623.295 358.788 585.826"/><polygon points="361.015 594.631 368.695 557.624 405.702 565.304 398.022 602.311"/><polygon points="359.678 568.632 348.785 604.823 312.593 593.931 323.486 557.739"/><polygon points="301.779 581.393 266.021 593.635 253.78 557.877 289.537 545.635"/><polygon points="288.477 583.663 291.646 621.325 253.984 624.494 250.815 586.832"/><polygon points="283.581 557.657 246.109 552.725 251.042 515.253 288.514 520.185"/><polygon points="296.164 556.326 333.465 550.227 339.563 587.527 302.263 593.626"/><polygon points="299.421 514.051 290.171 477.405 326.816 468.155 336.067 504.8"/><polygon points="293.569 509.705 256.571 517.428 248.848 480.431 285.846 472.708"/><polygon points="325.318 506.225 334.64 542.853 298.013 552.175 288.691 515.547"/><polygon points="325.87 482.057 288.099 483.389 286.766 445.618 324.538 444.285"/><polygon points="253.245 519.247 246.832 556.494 209.585 550.081 215.998 512.834"/><polygon points="222.8 501.927 186.048 510.746 177.228 473.994 213.98 465.175"/><polygon points="213.442 507.861 223.84 544.198 187.504 554.596 177.105 518.26"/><polygon points="219.623 480.761 181.86 482.307 180.313 444.544 218.077 442.997"/><polygon points="217.44 471.678 216.969 433.885 254.761 433.414 255.233 471.206"/><polygon points="207.494 479.135 244.398 487.296 236.237 524.199 199.333 516.039"/><polygon points="173.436 439.087 180.482 401.954 217.615 409.001 210.568 446.133"/><polygon points="213.8 406.845 176.048 405.035 177.858 367.283 215.61 369.093"/><polygon points="248.878 391.845 256.104 428.943 219.006 436.169 211.78 399.07"/><polygon points="211.552 366.769 210.282 328.995 248.056 327.726 249.326 365.5"/><polygon points="209.5 366.768 246.716 373.358 240.126 410.575 202.91 403.985"/><polygon points="176.113 329.424 173.388 291.727 211.085 289.003 213.81 326.7"/><polygon points="172.707 325.361 210.472 326.877 208.956 364.642 171.191 363.126"/><polygon points="212.65 290.159 213.994 252.388 251.766 253.732 250.421 291.504"/><polygon points="175.285 252.328 213.019 254.476 210.871 292.21 173.137 290.062"/><polygon points="173.815 251.196 174.327 213.404 212.119 213.916 211.607 251.707"/><polygon points="173.722 214.535 174.22 176.743 212.012 177.241 211.514 215.033"/><polygon points="288.175 177.5 287.341 215.286 249.555 214.453 250.389 176.667"/><polygon points="288.179 176.332 250.383 176.332 250.383 138.536 288.179 138.536"/><polygon points="288.179 138.536 325.974 138.536 325.974 176.332 288.179 176.332"/><polygon points="325.974 138.536 363.769 138.536 363.769 176.332 325.974 176.332"/><polygon points="364.43 175.59 365.022 213.381 327.232 213.974 326.639 176.183"/><polygon points="401.565 176.332 363.769 176.332 363.769 138.536 401.565 138.536"/><polygon points="401.855 176.373 401.973 214.168 364.178 214.286 364.06 176.491"/><polygon points="439.36 176.332 401.565 176.332 401.565 138.536 439.36 138.536"/><polygon points="477.028 175.989 476.912 213.784 439.117 213.668 439.233 175.873"/><polygon points="477.155 176.332 477.155 138.536 514.951 138.536 514.951 176.332"/><polygon points="475.504 213.858 476.217 176.07 514.006 176.783 513.293 214.572"/><polygon points="478.834 214.846 478.108 252.635 440.319 251.908 441.046 214.12"/><polygon points="477.807 247.382 479.775 285.126 442.031 287.094 440.063 249.351"/><polygon points="476.709 252.198 514.365 248.955 517.607 286.611 479.951 289.854"/><polygon points="514.012 250.859 513.95 213.063 551.746 213.002 551.807 250.797"/><polygon points="514.483 253.775 476.711 252.445 478.041 214.674 515.813 216.004"/><polygon points="553.078 251.884 554.711 289.644 516.951 291.276 515.318 253.517"/><polygon points="553.347 253.122 591.129 252.103 592.147 289.885 554.366 290.903"/><polygon points="552.154 214.452 552.373 176.657 590.168 176.875 589.949 214.67"/><polygon points="514.368 213.909 514.602 176.115 552.397 176.349 552.163 214.143"/><polygon points="514.951 176.332 514.951 138.536 552.746 138.536 552.746 176.332"/><polygon points="552.746 176.332 552.746 138.536 590.541 138.536 590.541 176.332"/><polygon points="590.468 212.588 591.633 250.366 553.856 251.531 552.69 213.754"/><polygon points="591.11 214.348 590.634 176.556 628.426 176.081 628.902 213.873"/><polygon points="593.42 253.692 631.086 250.562 634.216 288.228 596.55 291.358"/><polygon points="629.749 249.974 591.975 251.242 590.707 213.468 628.481 212.2"/><polygon points="590.291 330.412 588.367 292.666 626.114 290.743 628.037 328.489"/><polygon points="556.422 326.947 554.066 289.225 591.788 286.87 594.143 324.591"/><polygon points="555.395 326.296 517.629 327.784 516.141 290.019 553.907 288.531"/><polygon points="554.107 323.907 591.901 323.532 592.276 361.325 554.483 361.701"/><polygon points="516.873 328.288 479.082 327.739 479.632 289.948 517.423 290.497"/><polygon points="513.741 363.599 551.535 363.883 551.251 401.677 513.457 401.393"/><polygon points="512.151 363.981 474.356 364.125 474.212 326.33 512.007 326.186"/><polygon points="481.189 364.321 443.492 367.049 440.765 329.352 478.461 326.624"/><polygon points="476.715 362.124 482.39 399.491 445.023 405.166 439.349 367.799"/><polygon points="474.06 402.053 478.03 364.467 515.616 368.437 511.646 406.023"/><polygon points="474.713 405.376 512.36 402.039 515.697 439.687 478.049 443.024"/><polygon points="479.306 432.51 487.208 469.47 450.249 477.373 442.346 440.413"/><polygon points="444.38 408.669 481.476 401.431 488.714 438.526 451.618 445.764"/><polygon points="480.092 479.885 476.425 517.502 438.808 513.835 442.475 476.218"/><polygon points="474.465 510.205 512.223 511.88 510.549 549.638 472.791 547.963"/><polygon points="481.445 549.259 519.24 549.055 519.444 586.85 481.649 587.054"/><polygon points="515.364 554.429 521.188 517.085 558.532 522.909 552.708 560.253"/><polygon points="558.412 569.299 554.093 606.846 516.545 602.527 520.865 564.979"/><polygon points="587.188 549.602 589.403 587.332 551.673 589.548 549.457 551.817"/><polygon points="590.516 550.487 592.751 512.758 630.48 514.993 628.245 552.722"/><polygon points="589.578 530.278 580.466 566.958 543.786 557.847 552.897 521.167"/><polygon points="588.659 521.735 550.93 519.496 553.169 481.767 590.898 484.006"/><polygon points="596.362 476.337 632.985 485.679 623.642 522.302 587.019 512.959"/><polygon points="595.652 441.961 588.877 404.778 626.06 398.003 632.835 435.186"/><polygon points="592.795 438.193 595.182 475.913 557.462 478.3 555.075 440.58"/><polygon points="587.818 441.738 625.28 446.75 620.268 484.212 582.806 479.2"/><polygon points="553.969 437.917 516.316 441.192 513.041 403.539 550.694 400.264"/><polygon points="554.648 405.7 591.765 398.572 598.893 435.69 561.776 442.817"/><polygon points="547.566 403.183 552.611 365.726 590.068 370.77 585.023 408.228"/><polygon points="546.523 369.268 508.978 364.925 513.321 327.38 550.866 331.723"/><polygon points="589.131 372.121 592.668 334.492 630.297 338.029 626.76 375.658"/><polygon points="595.128 400.193 588.907 362.913 626.186 356.692 632.408 393.972"/><polygon points="513.849 476.692 551.644 476.664 551.672 514.459 513.877 514.487"/><polygon points="512.166 475.746 513.706 437.982 551.469 439.522 549.93 477.286"/><polygon points="511.274 480.119 473.48 479.774 473.825 441.981 511.618 442.325"/><polygon points="511.482 490.24 503.042 527.081 466.201 518.641 474.641 481.8"/><polygon points="442.885 551.695 442.998 513.9 480.793 514.013 480.68 551.808"/><polygon points="454.604 590.173 443.675 553.992 479.856 543.063 490.784 579.244"/><polygon points="469.66 589.405 506.516 597.777 498.144 634.634 461.287 626.261"/><polygon points="470.305 636.069 434.199 624.894 445.374 588.788 481.48 599.963"/><polygon points="444.333 631.836 481.499 638.704 474.631 675.87 437.465 669.002"/><polygon points="417.12 622.562 407.094 586.121 443.535 576.095 453.561 612.536"/><polygon points="411.964 626.989 410.019 664.734 372.274 662.789 374.219 625.044"/><polygon points="408.753 634.357 446.467 631.872 448.952 669.586 411.238 672.071"/><polygon points="450.589 660.485 487.812 653.935 494.362 691.158 457.139 697.708"/><polygon points="501.988 663.288 515.322 627.923 550.687 641.256 537.353 676.621"/><polygon points="519.487 676.369 482.091 670.893 487.567 633.496 524.963 638.973"/><polygon points="524.295 702.844 511.911 667.135 547.62 654.751 560.004 690.46"/><polygon points="543.449 696.51 550.985 733.546 513.948 741.082 506.413 704.045"/><polygon points="547.042 705.878 583.507 715.817 573.568 752.282 537.103 742.343"/><polygon points="513.272 728.259 526.727 763.577 491.409 777.033 477.953 741.714"/><polygon points="484.794 740.949 447.49 747.022 441.417 709.718 478.721 703.645"/><polygon points="477.776 721.131 482.082 683.582 519.631 687.888 515.325 725.437"/><polygon points="486.697 702.104 524.48 701.114 525.47 738.896 487.687 739.887"/><polygon points="439.83 745.417 433.397 782.66 396.153 776.227 402.586 738.983"/><polygon points="431.943 758.993 468.549 768.399 459.143 805.005 422.537 795.599"/><polygon points="436.436 778.698 473.909 773.77 478.837 811.243 441.364 816.171"/><polygon points="440.518 787.025 429.923 823.305 393.643 812.71 404.238 776.43"/><polygon points="405.442 797.078 424.648 829.629 392.097 848.836 372.89 816.284"/><polygon points="372.136 773.398 359.887 737.643 395.643 725.394 407.891 761.15"/><polygon points="358.587 777.837 355.737 815.525 318.05 812.675 320.899 774.988"/><polygon points="349.222 782.794 312.676 773.155 322.315 736.609 358.861 746.249"/><polygon points="362.446 814.221 359.012 776.582 396.651 773.148 400.085 810.787"/><polygon points="327.851 823.11 290.199 826.389 286.92 788.736 324.572 785.457"/><polygon points="300.507 824.754 338.286 825.849 337.191 863.628 299.412 862.533"/><polygon points="299.303 805.409 262.739 814.978 253.17 778.414 289.734 768.845"/><polygon points="270.016 777.011 259.407 740.735 295.683 730.126 306.292 766.402"/><polygon points="244.565 800.86 262.132 834.324 228.667 851.891 211.1 818.427"/><polygon points="251.106 818.204 288.883 817.042 290.045 854.819 252.268 855.981"/><polygon points="219.549 825.928 181.933 822.256 185.605 784.64 223.221 788.312"/><polygon points="227.477 846.286 193.865 863.57 176.581 829.958 210.193 812.674"/><polygon points="214.218 849.701 251.711 844.926 256.486 882.418 218.993 887.193"/><polygon points="195.939 872.214 178.895 905.948 145.161 888.904 162.205 855.17"/><polygon points="226.093 920.25 189.78 930.73 179.3 894.416 215.613 883.937"/><polygon points="229.917 924.207 208.721 892.914 240.014 871.719 261.209 903.011"/><polygon points="212.029 927.956 213.889 965.705 176.14 967.565 174.28 929.816"/><polygon points="206.771 969.443 221.117 934.476 256.084 948.822 241.737 983.789"/><polygon points="254.001 932.348 287.505 914.856 304.997 948.36 271.493 965.852"/><polygon points="270.75 935.876 306.45 948.282 294.044 983.983 258.343 971.577"/><polygon points="299.635 927.129 294.953 889.625 332.457 884.944 337.139 922.448"/><polygon points="333.656 935.575 371.345 932.751 374.169 970.44 336.48 973.264"/><polygon points="344.626 935.634 357.719 900.179 393.174 913.272 380.081 948.727"/><polygon points="365.413 930.702 401.277 942.63 389.349 978.494 353.485 966.566"/><polygon points="377.163 894.022 384.397 931.119 347.301 938.353 340.066 901.256"/><polygon points="377.827 882.48 341.756 893.765 330.471 857.693 366.543 846.408"/><polygon points="410.99 869.865 377.913 888.152 359.626 855.075 392.703 836.788"/><polygon points="424.772 868.01 392.348 848.589 411.769 816.165 444.193 835.586"/><polygon points="436.004 870.973 473.796 871.495 473.273 909.287 435.482 908.765"/><polygon points="440.807 886.504 448.679 923.47 411.713 931.343 403.841 894.376"/><polygon points="484.247 903.236 519.42 889.404 533.251 924.578 498.078 938.409"/><polygon points="486.304 934.287 448.976 940.217 443.046 902.89 480.373 896.96"/><polygon points="473.993 968.129 470.894 930.461 508.562 927.362 511.661 965.03"/><polygon points="463.018 983.399 429.279 966.364 446.314 932.625 480.053 949.661"/><polygon points="514.674 976.425 516.63 938.68 554.374 940.636 552.419 978.38"/><polygon points="541.893 916.7 531.349 952.995 495.055 942.451 505.598 906.156"/><polygon points="582.233 924.04 585.003 961.734 547.31 964.504 544.54 926.81"/><polygon points="596.403 931.059 560.235 942.027 549.266 905.858 585.435 894.89"/><polygon points="611.866 924.33 592.221 892.042 624.509 872.397 644.154 904.685"/><polygon points="627.28 889.238 589.487 889.66 589.065 851.867 626.858 851.445"/><polygon points="624.052 825.985 615.6 862.823 578.762 854.371 587.214 817.533"/><polygon points="579.71 834.407 563.989 868.778 529.619 853.057 545.339 818.686"/><polygon points="577.604 825.667 585.061 788.615 622.113 796.071 614.657 833.123"/><polygon points="563.575 854.58 526.413 861.472 519.521 824.311 556.683 817.418"/><polygon points="562.19 857.363 595.539 875.148 577.754 908.497 544.405 890.712"/><polygon points="532.238 852.138 570.027 852.832 569.332 890.621 531.543 889.927"/><polygon points="505.192 854.573 511.493 891.84 474.226 898.141 467.925 860.875"/><polygon points="492.599 858.837 484.018 822.029 520.826 813.447 529.407 850.255"/><polygon points="499.293 830.083 462.259 822.538 469.803 785.503 506.838 793.048"/><polygon points="523.901 812.504 510.316 777.235 545.585 763.649 559.17 798.918"/><polygon points="552.507 771.832 515.739 780.585 506.987 743.817 543.755 735.064"/><polygon points="556.7 745.639 594.308 741.88 598.067 779.488 560.459 783.247"/><polygon points="588.235 730.23 625.216 722.427 633.019 759.408 596.038 767.211"/><polygon points="614.024 751.986 577.32 742.97 586.337 706.266 623.041 715.282"/><polygon points="584.336 783.895 585.389 821.675 547.609 822.729 546.555 784.948"/><polygon points="635.467 707.889 598.122 713.711 592.301 676.367 629.645 670.545"/><polygon points="641.347 624.656 645.821 662.185 608.292 666.659 603.817 629.13"/><polygon points="637.163 580.435 648.54 616.478 612.498 627.855 601.121 591.812"/><polygon points="635.681 580.375 599.562 591.507 588.43 555.388 624.549 544.257"/><polygon points="574.983 636.935 537.831 629.991 544.774 592.839 581.926 599.783"/><polygon points="552.333 631.001 588.025 618.57 600.456 654.263 564.764 666.694"/><polygon points="523.231 624.015 514.842 587.162 551.694 578.773 560.084 615.626"/><polygon points="562.304 667.601 598.01 679.993 585.618 715.699 549.912 703.307"/><polygon points="407.512 737.731 369.979 742.168 365.541 704.634 403.075 700.197"/><polygon points="397.129 748.317 394.024 710.65 431.692 707.545 434.796 745.213"/><polygon points="381.797 705.334 396.232 670.404 431.162 684.839 416.727 719.769"/><polygon points="371.281 704.088 366.357 666.615 403.83 661.691 408.754 699.164"/><polygon points="337.096 701.415 299.529 705.561 295.382 667.994 332.949 663.848"/><polygon points="330.853 709.21 368.362 713.857 363.714 751.365 326.206 746.718"/><polygon points="314.986 706.331 326.217 670.242 362.305 681.473 351.074 717.562"/><polygon points="290.815 710.786 327.726 718.916 319.596 755.826 282.685 747.697"/><polygon points="280.884 696.854 295.048 731.896 260.006 746.059 245.843 711.018"/><polygon points="272.309 717.113 237.046 703.511 250.648 668.248 285.911 681.85"/><polygon points="250.569 692.725 262.852 728.469 227.108 740.751 214.826 705.008"/><polygon points="253.251 665.328 262.43 701.991 225.766 711.17 216.588 674.506"/><polygon points="263.39 655.561 251.605 619.65 287.516 607.866 299.301 643.777"/><polygon points="247.2 632.889 242.305 670.366 204.828 665.471 209.723 627.994"/><polygon points="222.533 660.27 184.74 660.678 184.332 622.885 222.125 622.477"/><polygon points="210.579 699.513 217.644 736.642 180.515 743.708 173.45 706.579"/><polygon points="209.716 721.431 173.27 711.424 183.277 674.978 219.723 684.985"/><polygon points="245.652 736.786 247.015 774.557 209.244 775.919 207.881 738.149"/><polygon points="209.758 788.429 246.813 780.984 254.258 818.039 217.203 825.484"/><polygon points="179.516 779.59 177.828 741.832 215.585 740.144 217.274 777.902"/><polygon points="296.678 858.281 308.531 894.17 272.643 906.024 260.789 870.135"/><polygon points="284.106 887.192 271.359 922.773 235.779 910.026 248.526 874.445"/><polygon points="332.316 863.217 328.594 900.828 290.983 897.106 294.705 859.495"/><polygon points="356.972 853.435 319.939 845.882 327.492 808.849 364.525 816.402"/><polygon points="394.019 848.343 431.514 853.104 426.753 890.598 389.259 885.837"/><polygon points="438.24 830.15 474.904 839.328 465.727 875.992 429.063 866.814"/><polygon points="330.754 748.385 326.455 785.935 288.905 781.636 293.204 744.086"/><polygon points="336.075 669.989 330.358 632.629 367.718 626.912 373.435 664.272"/><polygon points="316.368 669.847 279.466 661.676 287.638 624.774 324.539 632.946"/><polygon points="311.421 634.518 275.041 624.272 285.287 587.892 321.667 598.138"/><polygon points="320.97 631.568 324.565 593.944 362.189 597.539 358.594 635.163"/><polygon points="244.684 581.38 255.281 617.659 219.002 628.256 208.405 591.977"/><polygon points="252.467 557.734 243.781 594.518 206.998 585.833 215.683 549.049"/><polygon points="199.851 601.287 162.751 594.072 169.966 556.972 207.066 564.187"/><polygon points="168.905 589.583 204.579 577.099 217.063 612.773 181.389 625.257"/><polygon points="248.03 330.069 210.36 327.003 213.425 289.333 251.096 292.398"/><polygon points="251.219 328.999 288.592 323.368 294.223 360.742 256.85 366.373"/><polygon points="324.555 323.258 327.506 360.938 289.827 363.889 286.875 326.209"/><polygon points="361.854 330.754 357.606 368.31 320.05 364.062 324.298 326.506"/><polygon points="365.214 327.791 362.267 290.111 399.947 287.164 402.894 324.845"/><polygon points="328.679 367.168 366.079 361.714 371.532 399.114 334.133 404.567"/><polygon points="401.712 214.053 401.73 176.257 439.526 176.275 439.508 214.071"/><polygon points="438.602 215.73 436.563 253.47 398.822 251.431 400.861 213.691"/><polygon points="477.155 138.536 477.155 176.332 439.36 176.332 439.36 138.536"/><polygon points="628.336 138.536 628.336 176.332 590.541 176.332 590.541 138.536"/><polygon points="639.457 960.771 603.363 971.982 592.152 935.888 628.246 924.677"/><polygon points="412.664 968.874 397.851 934.102 432.623 919.29 447.435 954.062"/></g></svg>