<svg xmlns="http://www.w3.org/2000/svg" xmlns:ev="http://www.w3.org/2001/xml-events" xmlns:xlink="http://www.w3.org/1999/xlink" width="29.7cm" height="21cm" baseProfile="tiny" version="1.2" viewBox="0 0 1122.52 793.701"><metadata/><g id="layer1" fill="none" stroke="#00f" style="display:inline"><polyline points="562.401 76.606 567.956 95.987 570.368 106.121 577.062 143.619 578.336 153.256 578.818 159.376 579.019 168.049 578.613 178.802 576.899 194.16 574.865 204.296 569.645 221.911 561.989 244.417 558.103 259.091 556.157 268.89 552.944 289.647 549.869 306.541 548.322 319.327 546.422 349.131 543.944 373.314 542.794 393.414 546.73 315.122 552.328 270.796 554.22 260.988 557.566 249.083 560.453 241.097 569.228 219.267 573.209 206.69 575.68 194.021 577.425 175.917 577.772 164.861 577.523 155.876 576.239 142.802 574.653 132.51 570.38 112.276 567.888 102.44 564.861 92.887 560.393 80.436"/><polyline points="568.468 70.535 572.525 94.382 575.795 119.061 580.91 152.505 581.795 164.341 581.35 177.796 580.166 188.199 578.311 198.587 572.313 221.714 566.925 239.495 564.743 247.783 554 300.499 551.948 313.769 549.428 338.317 545.006 369.207 542.887 393.188"/><polyline points="543.058 392.991 547.276 361.92 553.26 333.428 557.837 301.486 560.807 284.069 569.493 245.05 576.433 220.766 581.682 199.954 583.786 189.572 584.824 181.727 586.02 168.434 586.174 157.346 584.804 141.96 581.192 111.396 579.069 65.13"/><polyline points="588.672 62.571 588.134 73.517 587.194 113.032 589.159 160.669 588.606 174.542 587.754 185.168 586.496 192.971 583.247 208.563 578.922 226.993 573.589 246.737 568.153 272.502 566.257 282.833 562.615 306.956 557.891 332.518 555.799 341.344 550.291 360.833 543.36 392.891"/><polyline points="543.775 392.436 555.213 354.494 566.391 322.215 571.253 307.169 577.173 285.255 579.931 271.988 581.084 261.842 581.989 248.551 582.419 235.972 582.306 227.064 581.637 215.746 580.759 207.644 576.781 184.689 575.917 176.657 575.323 163.238 575.789 152.383 577.04 141.631 578.629 133.554 585.373 107.338 590.411 85.063 595.519 65.824"/><polyline points="597.293 64.924 596.077 72.063 593.285 93.652 590.182 114.691 588.093 134.095 586.522 157.762 586.428 183.016 586.038 193.637 585.013 206.334 582.965 221.413 575.448 258.687 570.865 288.322 567.173 315.083 565.035 327.697 563.123 336.877 559.772 348.734 552.156 368.894 543.603 392.808 551.665 366.006 559.313 343.682 562.305 331.906 566.679 309.755 571.475 275.988 574.241 259.585 576.126 250.258 581.517 227.453 585.595 204.178 587.675 188.586 588.25 180.669 588.387 143.564 589.422 117.951 593.443 74.68 594.774 63.746"/><polyline points="591.786 61.805 583.779 91.209 575.297 127.496 572.923 140.972 571.808 154.438 571.539 165.391 572.297 176.311 573.124 181.704 576.539 197.357 578.559 208.145 580.165 219.55 581.333 231.502 581.63 240.822 581.311 250.419 580.339 263.573 579.146 273.363 576.707 286.133 572.823 301.543 569.92 310.548 554.98 352.651 551.742 363.297 543.672 392.24 551.841 358.067 569.413 298.421 572.892 283.012 575.03 270.427 576.524 257.7 577.649 244.8 578.014 235.274 577.862 228.98 576.826 216.62 575.633 207.7 569.484 177.303 568.226 169.087 567.621 160.83 567.857 149.925 568.531 141.838 569.634 133.921 573.619 114.766 577.927 96.945 588.281 58.107"/><polyline points="589.395 55.885 571.262 116.466 568.735 126.94 566.537 139.703 565.63 150.093 565.855 160.743 567.405 171.608 572.045 196.869 573.652 211.858 573.943 224.314 573.196 236.869 570.839 255.932 568.251 271.881 559.287 313.893 554.116 341.454 543.498 391.893"/><polyline points="543.678 391.607 553.814 345.413 556.696 333.722 558.857 326.267 562.432 315.672 567.342 302.519 572.713 290.276 577.111 281.538 585.236 267.979 601.1 244.127 606.678 236.722 623.398 216.032 627.314 210.538 634.556 198.368 646.004 177.683 650.592 170.475 659.66 159.296 683.45 133.093"/><polyline points="697.38 144.397 669.679 174.128 664.467 180.293 660.281 186.042 645.963 207.24 636.549 221.811 630.962 228.858 616.912 244.512 611.409 251.506 589.757 282.292 582.644 293.012 577.726 301.432 574.746 307.259 563.716 333.452 558.505 348.179 544.006 391.863"/><polyline points="544.174 392.139 552.089 373.252 568.54 337.121 578.506 318.296 585.575 307.166 598.785 288.772 611.254 270.328 618.402 260.347 625.689 251.279 636.429 239.605 640.947 234.215 644.71 229.036 650.712 219.436 653.881 214.907 669.479 195.189 678.125 185.357 697.711 166.205 709.964 153.171"/><polyline points="720.518 156.985 679.097 195.42 663.457 212.441 656.086 221.42 642.47 242.168 629.659 258.707 622.861 268.15 609.703 289.404 604.299 297.512 598.501 305.313 586.081 320.78 576.042 334.892 570.255 344.132 554.501 371.033 549.063 381.626 544.207 392.326"/><polyline points="544.3 392.521 549.469 382.499 555.144 372.675 569.594 350.871 582.322 333.845 599.62 312.904 607.436 302.058 614.242 290.693 626.052 268.98 637.705 250.612 647.342 234.364 655.832 222.061 663.94 212.652 679.401 197.424 698.019 181.715 713.126 168.391 727.816 156.478"/><polyline points="733.736 155.943 718.828 167.153 703.105 180.122 685.802 193.151 678.255 199.251 667.507 209.168 662.647 214.272 656.732 221.162 648.47 232.145 643.332 240.27 634.348 258.475 625.203 275.365 615.294 294.672 610.477 303.504 606.941 309.31 603.085 314.957 598.912 320.361 576.948 346.2 570.442 354.381 556.127 374.663 544.54 392.789"/><polyline points="544.929 393.329 554.145 383.776 566.066 372.921 575.833 364.743 605.98 340.545 612.933 333.847 619.414 326.884 627.149 317.404 637.201 303.685 644.296 292.737 656.555 272.216 661.207 265.328 671.402 252.253 676.745 245.977 682.312 240.025 690.341 232.528 706.963 218.32 737.624 195.443 747.44 187.449 760.584 175.91"/><polyline points="750.515 168.049 724.842 188.711 705.164 201.671 698.709 206.454 682.644 220.296 675.068 227.458 669.698 233.054 663.017 241.075 655.391 251.843 649.996 260.923 641.378 277.226 632.102 293.105 624.086 305.277 612.95 320.978 606.752 328.601 599.96 335.757 578.027 355.398 568.62 364.676 555.439 379.582 544.79 393.017 554.879 378.714 571.561 357.11 599.038 327.965 603.364 322.837 607.387 317.45 614.593 306.148 627.103 284.42 636.077 267.75 643.823 250.983 647.399 244.275 652.845 235.911 660.293 226.145 665.12 220.629 672.014 213.445 677.557 208.255 685.512 201.535 693.817 195.275 712.669 182.589 728.891 169.811 741.358 160.49"/><polyline points="772.064 182.226 757.29 196.131 711.723 233.161 694.514 248.2 686.241 256.319 674.304 269.116 666.653 277.948 661.444 284.982 649.445 303.556 634.812 323.354 627.306 332.635 618.668 341.345 611.525 347.407 606.532 351.121 585.91 365.157 560.174 382.017 552.564 387.563 545.118 393.694 562.732 377.643 568.149 373.124 573.898 368.825 579.94 364.814 589.412 359.225 606.321 350.554 631.497 339.099 656.422 327.337 674.973 320.012 690.263 314.774 718.718 305.633 751.361 294.461 819.065 274.486 832.055 270.164 841.183 266.652 849.886 262.774 861.039 257.168 869.047 252.65 876.639 247.771 886.028 240.383 901.132 225.958"/><polyline points="906.62 232.551 890.665 246.797 885.881 250.597 878.425 255.815 870.569 260.642 862.201 265.184 847.765 272.31 838.956 276.111 829.712 279.438 819.757 282.385 767.579 295.38 755.772 298.661 723.269 309.287 674.448 323.687 655.174 330.763 603.177 352.906 585.948 361.58 579.572 365.286 573.556 369.273 565.306 375.822 545.063 393.915 552.296 388.442 559.653 383.437 567.417 378.741 575.64 374.283 584.249 370.137 593.013 366.453 616.577 358.098 622.269 355.819 630.523 351.826 641.106 345.508 658.789 333.192 682.121 314.581 699.672 302.423 715.17 292.716 761.701 265.773 770.173 260.209 780.132 252.231 799.298 234.38 824.92 212.881 831.766 207.607"/><polyline points="819.247 199.735 810.256 206.951 787.059 227.627 768.178 246.239 758.734 254.689 745.401 264.672 713.413 285.6 699.013 295.992 682.983 309.431 657.292 333.31 648.194 340.942 638.662 348.282 628.415 354.896 620.216 359.064 614.538 361.487 588.602 371.213 574.37 377.611 558.283 385.907 550.451 390.526 545.231 393.993 568.36 375.153 576.694 369.18 582.833 365.534 589.416 362.127 610.993 352.53 625.967 346.637 648.729 338.4 660.218 334.469 671.897 330.951 720.583 318.659 768.319 305.572 787.149 301.115 816.378 294.76 823.131 292.941 832.635 289.772 841.595 286.094 850.334 281.919 864.753 274.549 875.645 268.374 883.424 263.504 891.034 258.263 908.229 244.863"/><polyline points="910.569 265.184 892.526 277.552 879.364 285.423 851.076 299.856 842.039 304.01 832.68 307.762 822.883 310.915 816.045 312.597 783.602 318.064 705.224 333.276 664.988 341.726 645.692 346.848 626.676 352.793 615.419 356.82 597.225 364.178 583.824 370.098 572.041 376.63 545.428 394.179"/><polyline points="545.294 394.587 558.335 388.232 577.305 379.564 586.026 375.946 592.146 373.782 601.935 370.971 612.525 368.871 619.999 368.025 631.617 367.434 647.823 367.18 660.635 367.438 678.367 368.505 691.773 369.947 731.24 375.741 768.528 381.887 780.526 384.23 800.111 388.719 807.899 390.082 830.726 392.787 844.994 393.901 869.968 394.808 878.726 394.445 887.393 393.502 898.752 391.625 906.898 389.661 914.858 387.159 925.503 383.207"/><polyline points="926.168 383.859 912.821 388.32 904.846 390.615 896.523 392.418 884.87 394.357 876.096 395.389 867.273 395.964 851.837 396.219 841.804 395.861 812.479 393.29 801.022 391.698 766.121 384.288 718.915 375.538 691.734 371.071 664.406 367.618 651.241 366.329 638.532 365.767 626.258 365.837 618.304 366.308 610.632 367.328 603.386 368.945 593.364 372.099 587.17 374.441 578.447 378.291 545.173 394.674 557.676 388.811 580.778 377.09 595.9 370.682 606.156 367.429 613.591 365.794 621.411 364.719 629.499 364.126 641.997 363.892 650.611 364.183 663.97 365.275 682.271 367.386 709.854 371.486 753.671 379.599 788.941 385.477 804.008 387.422 818.821 388.418 847.034 389.08 866.068 388.266 875.147 387.473 884.062 386.1 895.662 383.609 906.65 380.77 925.318 375.226"/><polyline points="922.694 377.421 906.323 382.755 898.029 384.946 889.41 386.788 883.47 387.678 874.46 388.512 862.169 388.711 848.941 387.653 827.613 384.841 783.175 375.772 772.014 373.768 764.676 372.799 702.809 368.452 694.586 368.121 686.458 368.229 674.314 369.125 650.301 371.857 624.666 375.353 601.545 379.118 595.136 380.447 585.48 382.941 546.062 394.988"/><polyline points="546.213 395.283 556.655 393.215 586.728 386.162 599.998 383.717 613.255 381.971 663.969 376.38 683.495 374.835 699.096 374.772 767.822 378.499 778.906 379.74 790.018 381.386 815.341 386.306 826.04 388.022 843.439 389.945 856.809 390.791 869.203 390.544 884.105 388.757 892.888 386.958 904.398 384.098 921.63 379.088"/><polyline points="923.884 378.714 916.016 381.911 908.247 384.632 894.717 388.067 885.986 389.449 879.982 390.016 870.824 390.312 864.573 390.096 840.964 387.663 826.246 385.485 788.658 377.023 773.438 373.872 765.947 372.667 758.446 371.883 727.423 369.812 693.784 366.668 685.264 366.3 676.744 366.411 655.882 367.904 632.878 370.311 618.597 372.405 601.855 375.639 589.249 378.762 576.837 382.676 564.427 387.124 545.845 394.687"/><polyline points="546.218 395.627 556.678 394.628 587.268 390.686 601.009 389.393 664.425 385.267 679.538 384.914 690.866 385.229 717.476 386.632 751.896 387.613 770.688 388.615 789.16 390.376 814.315 394.613 824.986 395.923 845.747 397.452 858.889 397.704 871.268 396.84 886.213 394.469 906.572 389.822 921.124 385.353"/><polyline points="918.408 390.412 903.777 394.909 885.958 398.801 861.834 402.643 852.565 403.498 846.109 403.695 818.297 403.015 782.13 400.125 725.423 398.408 695.777 397.158 670.451 395.592 659.698 395.494 624.869 396.385 590.684 395.701 546.128 396.028"/><polyline points="545.956 396.385 555.856 397.489 585.846 399.501 622.683 403.469 636.352 404.154 660.84 404.54 695.485 407.145 728.76 408.337 805.152 408.952 833.505 408.017 849.646 406.667 889.052 400.141 901.082 397.347 913.051 394.098"/><polyline points="908.151 403.711 871.321 410.287 840.619 414.914 827.561 416.13 810.275 417.082 788.833 417.67 751.188 418.029 721.401 417.592 706.639 417.158 692.637 416.357 633.96 411.209 619.851 409.049 577.624 401.237 545.705 396.519 564.061 400.589 620.401 415.553 634.685 418.768 648.989 421.208 692.152 427.64 702.371 428.915 712.954 429.806 734.8 430.889 752.123 431.266 819.336 429.407 835.31 427.979 860 424.458 878.854 422.134 900.68 420.124"/><polyline points="888.941 442.572 876.564 441.99 860.626 442.084 847.641 442.796 825.854 444.915 813.435 445.743 800.757 445.887 777.91 445.513 748.529 446.675 732.384 446.298 718.966 445.363 708.776 444.287 702.074 443.254 692.127 441.22 650.885 431.532 637.327 427.981 620.117 422.47 560.071 400.872 545.577 396.639"/><polyline points="545.488 396.893 553.931 399.925 564.933 404.356 624.014 430.892 640.153 437.504 649.541 440.613 670.472 446.452 691.834 452.958 704.248 456.067 719.882 458.717 735.382 460.154 744.759 460.228 767.256 459.624 792.801 461.01 808.39 461.377 836.868 460.495 846.843 460.497 863.021 461.671 869.232 462.573 878.388 464.539"/><polyline points="873.167 479.522 866.997 477.439 860.624 475.751 854.088 474.475 843.952 473.288 833.485 472.881 803.643 473.369 791.008 473.003 759.219 471.367 730.932 471.568 724.721 471.094 718.605 470.237 706.594 467.769 697.601 465.315 688.663 462.444 662.485 453.253 644.983 447.553 636.052 443.993 627.001 439.664 593.637 422.449 567.335 407.711 545.451 397.196"/><polyline points="545.3 397.476 566.473 409.921 583.831 421.726 591.692 426.729 617.666 441.584 629.375 447.905 640.894 453.443 674.721 467.94 689.081 473.485 700.794 477.292 709.568 479.588 718.496 481.445 730.721 482.709 780.493 484.961 803.199 485.12 827.649 484.738 838.588 485.15 845.789 485.936 852.851 487.224 859.729 488.983 869.585 492.365"/><polyline points="868.22 502.175 861.252 499.845 854.049 497.879 842.892 495.712 835.346 494.776 827.8 494.288 816.617 494.151 772.178 494.947 746.99 493.799 734.928 492.775 723.225 491.057 714.541 489.106 703.083 485.71 686.124 479.647 669.405 472.483 641.744 458.58 610.405 441.554 598.892 434.851 585.104 426.091 545.068 397.681"/><polyline points="544.994 398.612 556.659 411.734 563.732 419.155 593.511 446.541 599.77 452.62 605.662 459.026 612.871 468.558 619.461 479.366 623.661 488.313 626.955 497.856 629.331 507.769 630.814 517.99 632.086 531.91 632.448 545.988 632.081 556.512 631.29 566.898 626.346 604.528 625.042 618.574 624.731 640.652 625.079 667.611 625.566 679.419 626.266 687.46 627.363 695.53 628.954 703.658 631.128 711.766 633.913 719.764 637.29 727.595 641.196 735.233 645.591 742.632"/><polyline points="644.631 747.17 640.7 739.719 637.125 732.135 634 724.458 631.421 716.682 629.436 708.782 627.968 700.806 626.845 692.867 625.67 681.129 624.515 654.308 624.544 631.844 625.733 617.49 629.245 593.21 630.437 582.821 631.49 565.677 631.783 551.868 631.279 538.082 630.017 524.511 628.561 514.378 626.276 504.355 622.967 494.633 618.617 485.427 611.828 474.057 606.319 466.281 598.112 457.027 564.504 423.476 557.913 415.742 544.889 398.795"/><polyline points="544.573 399.243 550.346 409.681 555.755 420.734 560.333 432.264 563.892 443.874 566.579 455.376 574.425 493.133 585.12 535.534 588.387 556.211 589.085 563.325 589.342 570.451 588.793 581.015 587.399 591.261 585.475 601.212 581.008 620.566 577.706 632.785 569.71 659.499 566.607 668.128 557.468 690.704 552.623 705.067 546.364 732.47 541.502 760"/><polyline points="537.203 753.106 543.359 726.823 550.98 696.881 556.174 680.333 563.467 661.61 566.275 653.195 580.809 598.396 583.126 588.931 584.975 579.199 585.754 572.503 586.036 565.623 585.819 558.663 585.193 551.731 583.152 538.231 574.418 499.641 566.808 458.25 564.358 446.847 559.846 431.547 555.471 420.084 550.379 409.155 544.663 398.992 556.368 416.947 564.318 427.962 568.6 433.094 581.799 447.615 598.456 467.577 604.353 475.457 609.693 484.084 616.011 496.507 619.883 506.195 622.849 516.034 625.798 529.211 627.724 542.351 628.517 555.841 628.509 569.608 628.117 583.193 627.245 593.435 621.702 628.195 620.516 639.039 619.956 650.103 619.785 661.342 620.013 672.699 620.632 684.009 621.368 691.587 623.006 703.102 625.157 714.723 627.068 722.363 631.094 733.509 634.449 740.818 640.013 751.743"/><polyline points="628.679 758.873 623.269 748.064 620.046 740.817 616.341 729.759 614.686 722.244 612.926 710.944 611.703 699.73 611.234 692.255 611.014 681 611.216 669.632 612.686 650.999 615.274 633.086 621.1 602.178 622.006 595.363 622.523 588.514 622.679 574.723 621.72 557.629 620.403 547.741 617.721 534.769 614.454 521.584 611.366 511.444 607.363 501.341 602.636 491.598 595.559 479.53 580.88 457.203 575.178 448.98 565.092 435.39 561.269 429.676 544.228 399.088 550.177 411.816 556.799 427.801 561.275 437.253 591.911 491.655 598.613 504.796 602.891 515.197 606.421 525.703 612.046 545.884 615.074 559.097 617.239 572.542 618.183 582.87 618.358 593.355 617.936 600.373 615.873 614.128 609.9 641.125 605.49 665.929 603.785 684.618 603.119 706.972 603.803 721.66 604.622 729.024 605.911 736.479 607.789 744.023 610.248 751.57 616.307 766.491"/><polyline points="603.795 770.688 599.159 755.374 597.406 747.733 596.088 740.245 594.671 725.821 594.391 715.082 594.535 707.83 596.193 689.579 599.156 671.401 604.861 647.302 610.961 624.357 613.52 610.766 614.205 603.76 614.202 593.203 613.618 586.216 612.156 575.834 609.358 562.182 605.728 548.711 601.328 535.086 596.194 521.134 588.8 503.71 568.26 462.36 559.383 442.843 555.461 432.848 547.793 409.132 544.037 399.166 547.666 409.513 553.944 430.894 557.722 441.398 569.955 471.922 585.471 508.447 600.832 546.728 604.146 557.014 606.998 567.303 609.205 577.654 610.304 584.659 611.399 595.273 611.795 605.879 611.486 612.898 610.616 619.801 609.301 626.534 606.826 636.346 593.075 682.828 590.041 696.899 588.556 707.475 588.023 721.56 588.791 746.028 590.282 760.929 592.505 772.403"/><polyline points="584.183 771.556 583.181 760.295 582.986 749.507 583.578 722.255 584.683 708.733 586.417 698.6 588.858 688.469 602.442 646.105 605.042 636.648 607.229 627.004 608.742 616.901 609.199 609.902 609.066 599.211 608.321 588.449 606.889 577.734 605.491 570.648 602.809 560.074 599.541 549.555 587.187 518.205 578.51 494.214 568.1 467.331 556.41 435.275 548.367 409.678 544.215 399.277 547.41 406.273 550.078 413.473 563.801 457.846 577.544 495.275 584.474 515.716 595.61 546.87 598.799 557.573 600.53 564.86 601.914 572.22 603.334 583.249 604.045 594.13 604.139 604.861 603.447 615.413 601.873 625.513 599.731 635.024 597.2 644.295 583.503 688.288 581.125 698.025 578.861 711.048 577.16 727.433 575.886 747.577 575.668 758.05 576.059 768.978"/><polyline points="564.533 768.464 564.626 757.731 565.283 747.385 569.2 718.075 570.863 708.635 575.691 689.961 590.878 640.637 593.331 631.196 595.38 621.382 596.816 611.175 597.678 600.688 598.019 586.322 597.683 575.166 596.451 563.855 594.99 556.444 592.186 545.649 587.142 528.266 562.965 455.459 553.204 421.283 549.114 410.082 544.343 399.341 553.023 417.522 556.047 425.186 558.713 432.997 562.144 444.692 575.029 492.884 584.52 524.535 587.879 538.325 591.278 555.978 592.772 566.971 593.106 574.373 592.731 585.371 591.334 599.538 589.275 613.172 586.703 626.307 582.651 641.969 575.327 666.244 562.736 702.031 560.032 710.961 558.653 717.036 553.92 742.345 552.577 752.542 551.324 766.904"/><polyline points="540.913 745.008 548.982 714.312 556.6 682.643 567.293 648.206 569.638 639.52 575.054 614.98 583.662 578.202 585.146 568.74 585.622 558.967 584.775 545.897 583.424 536.252 581.659 526.464 564.158 449.544 559.583 434.311 554.119 419.214 549.597 408.544 544.364 398.814 547.596 404.982 551.979 415 557.448 429.421 561.314 440.719 564.804 452.003 570.656 474.221 578.94 503.121 582.286 516.632 584.01 526.239 585.91 541.518 586.495 553.707 586.261 559.84 585.172 568.989 578.264 601.517 573.12 629.155 562.772 667.521 554.39 706.611 546.434 735.673"/><polyline points="551.62 730.803 553.766 722.286 558.794 705.114 560.175 699.18 565.746 665.284 569.461 646.701 573.913 626.679 575.324 617.571 578.203 593.041 583.534 563.671 584.43 554.59 584.701 545.669 584.274 536.806 583.355 527.938 580.864 512.773 577.7 499.888 566.32 457.709 561.976 443.114 555.842 424.939 550.375 411.341 544.275 398.817"/><polyline points="544.11 398.958 549.649 411.809 554.708 425.202 562.068 449.844 564.831 460.443 575.353 513.554 577.361 528.584 578.081 540.498 577.835 549.393 576.469 567.654 573.396 591.257 571.56 615.505 570.108 627.666 566.279 653.423 562.447 674.976 558.995 698.466 557.095 707.421 551.037 730.217"/><polyline points="540.559 731.171 547.87 702.8 557.161 651.523 561.123 616.037 562.66 597.808 564.849 576.745 567.461 537.431 567.24 525.389 565.945 503.816 563.244 477.898 561.369 464.146 558.564 450.14 554.213 432.781 550.238 419.125 543.78 399.118"/><polyline points="543.487 399.168 551.167 432.989 553.061 443.277 555.144 457.128 556.315 467.471 556.977 477.626 557.269 490.806 557.071 500.347 554.172 540.913 552.073 565.326 548.04 599.823 543.357 645.208 540.848 662.174 534.704 696.412 525.821 734.163"/><polyline points="511.563 738.916 514.03 724.538 519.558 696.912 527.857 641.64 532.003 607.569 535.031 588.89 538.877 569.621 540.473 560.165 544.695 522.295 547.99 503.143 549.241 493.599 549.976 483.885 550.281 474.043 549.678 457.308 547.819 433.497 543.15 399.276"/><polyline points="542.766 399.387 543.889 434.566 544.572 468.146 544.212 481.264 543.342 491.001 541.808 500.614 536.248 526.093 532.929 548.777 531.262 558.25 528.959 567.723 523.216 586.875 518.277 608.731 513.55 640.423 507.368 671.217 503.449 705.182 498.779 730.221 496.903 744.817"/><polyline points="482.633 750.79 485.28 732.848 489.93 710.722 493.154 684.846 494.673 675.162 503.265 639.163 508.867 607.541 513.636 588.957 521.048 566.53 522.941 559.981 529.587 530.521 536.571 504.987 538.653 495.269 539.525 488.666 540.17 478.756 540.292 442.027 542.475 399.406 540.487 416.995 536.341 441.376 531.48 474.609 529.655 484.426 518.729 534.066 507.996 568.871 503.499 582.128 488.982 619.585 475.243 648.404 463.672 675.843 452.707 699.048 437.938 732.47 433.342 743.776 429.717 755.038"/><polyline points="451.832 756.925 455.46 742.357 463.252 718.024 469.652 694.817 493.327 626.857 503.813 592.954 511.464 570.392 523.312 529.058 528.619 505.004 531.699 487.767 533.247 474.38 534.347 454.37 535.322 444.188 536.933 433.97 540.8 413.443 542.465 399.413 537.255 441.38 536.678 451.666 536.565 478.41 535.803 488.451 534.275 498.54 531.076 511.775 518.245 558.237 515.157 568.379 508.559 587.78 505.815 597.12 501.788 612.286 495.697 637.738 485.176 675.058 482.051 688.653 477.929 711.982 471.709 737.207 468.447 755.319"/><polyline points="404.714 751.029 410.256 737.22 415.888 726.371 444.543 678.831 461.152 648.738 475.306 626.77 480.725 617.548 485.412 608.197 497.206 583.032 505.485 563.235 512.024 545.975 515.55 535.306 527.503 492.569 530.834 479.288 535.538 456.151 539.416 431.924 541.241 417.464 542.527 399.441 542.523 406.901 541.994 418.024 540.29 432.83 536.523 454.235 531.667 474.574 525.68 494.692 511.659 535.96 506.402 549.915 497.757 570.335 493.075 580.092 484.923 595.665 478.245 608.094 472.704 617.528 464.24 629.922 448.089 651.566 427.442 680.173 411.64 700.938 400.027 717.297 394.945 725.183 392.013 730.521 388.272 738.657 385.078 746.878"/><polyline points="374.23 743.806 376.875 735.438 380.058 727.287 384.204 719.171 389.388 711.011 397.608 700.061 417.675 677.955 430.507 663.009 455.587 632.883 462.663 623.728 469.001 614.311 476.382 601.781 484.841 586.392 493.001 570.38 499.236 556.9 504.9 543.138 514.402 515.546 527.149 482.37 531.581 468.794 536.745 447.892 540.342 429.883 542.17 414.881 542.653 399.678 542.215 411.627 541.41 419.432 540.196 427.039 537.652 438.014 530.045 466.4 527.935 473.295 524.153 483.569 511.946 513.564 502.918 540.795 498.968 551.222 494.516 561.615 479.308 594.55 472.631 606.931 467.065 616.268 462.885 622.405 458.238 628.39 427.102 663.487 416.15 674.836 394.521 696.154 389.641 701.53 385.202 707.021 379.64 715.412 375.536 723.77 372.598 732.018 369.559 743.391"/><polyline points="362.34 744.312 366.184 729.675 369.391 721.07 374.074 712.51 378.208 707.02 383.035 701.745 388.305 696.596 411.441 675.962 420.228 667.736 453.854 633.706 461.375 625.15 465.749 619.245 469.597 613.157 474.739 603.823 480.685 591.066 494.5 556.646 506.91 522.341 517.532 496.042 523.892 478.85 538.87 428.273 541.177 416.414 542.131 408.235 542.59 399.99"/><polyline points="542.272 400.12 540.308 412.807 537.181 425.019 533.353 436.603 525.388 458.53 516.101 486.208 499.101 529.616 476.957 588.068 472.78 598.018 468.069 607.655 464.51 613.87 460.481 619.886 455.943 625.726 448.221 634.197 439.611 642.364 403.396 674.911 379.452 695.507 374.104 700.713 369.235 706.133 365.084 711.835 363.319 714.78 360.387 720.801 356.164 732.937 353.072 745.135"/><polyline points="345.439 745.664 349.837 729.985 352.038 723.625 354.727 717.241 359.995 707.896 366.733 699.108 371.879 693.548 380.448 685.521 408.144 661.089 433.068 640.255 441.731 632.347 449.646 624.106 454.449 618.412 458.87 612.557 462.747 606.426 467.559 596.76 471.601 586.763 491.406 532.219 507.641 491.703 518.929 461.034 534.393 424.758 538.595 412.743 541.847 400.141"/><polyline points="541.442 400.117 538.683 408.494 533.777 420.513 526.621 435.558 515.822 456.602 509.9 469.911 488.314 524.356 484.738 534.714 478.419 555.068 473.647 568.465 464.408 591.123 459.756 600.682 455.945 606.843 451.64 612.805 446.948 618.58 439.292 626.88 427.955 637.33 406.124 655.798 381.433 678.569 372.626 687.242 364.779 696.235 360.098 702.338 355.842 708.553 350.484 718.244 346.546 728.187 340.724 747.588"/><polyline points="335.105 745.434 340.68 728.88 343.295 722.212 346.358 715.541 349.941 708.93 353.955 702.399 360.626 692.608 365.495 686.063 370.789 679.628 376.421 673.384 394.057 655.301 406.274 643.594 426.894 624.962 434.848 617.125 439.747 611.625 444.309 605.922 448.493 600.091 452.222 594.108 457 584.883 466.636 563.328 472.434 547.182 478.488 526.878 481.943 516.486 487.4 502.863 500.423 473.151 504.986 463.519 508.383 457.105 530.942 419.211 537.075 407.788 540.867 399.883"/><polyline points="540.287 399.413 509.183 442.137 501.07 454.52 495.853 463.786 481.916 492.108 476.182 505.112 471.204 518.409 461.395 547.794 456.475 560.261 449.279 575.6 442.493 587.583 436.5 596.229 427.152 607.331 381.927 652.266 373.461 661.452 362.909 674.342 351.249 690.915 341.205 707.279 332.749 723.699 327.031 737.256"/><polyline points="321.293 730.283 328.505 716.764 342.614 694.237 351.437 681.489 368.289 658.916 376.14 649.24 381.634 643.023 401.267 622.505 419.367 602.359 428.731 591.005 435.014 582.297 442.112 570.153 448.059 557.572 453.199 544.952 464.97 513.18 474.219 491.217 481.791 475.832 493.306 454.281 497.056 448.192 501.206 442.216 510.428 430.536 515.471 424.86 531.873 407.992 540.017 399.02"/><polyline points="539.774 398.728 527.975 409.634 496.272 437.24 482.629 449.749 474.873 457.425 470.074 462.616 461.437 473.379 455.593 481.898 450.371 490.736 445.805 499.835 437.182 518.719 434.422 525.338 430.678 535.564 419.52 569.372 414.061 582.037 385.604 632.991 379.938 642.575 375.803 648.765 371.275 654.664 363.895 662.929 356.092 670.716 345.163 680.503 312.755 707.375"/><polyline points="319.705 720.683 356.824 684.797 362.034 679.314 369.468 670.625 376.479 661.353 380.783 654.899 394.579 631.61 408.457 608.97 419.153 589.915 425.354 577.141 430.32 563.985 438.613 536.343 444.753 519.183 452.49 499.829 456.541 490.494 461.249 481.503 466.666 472.852 470.659 467.224 477.278 458.993 487.031 448.162 494.78 440.059 502.868 432.28 528.452 409.42 539.866 398.692 531.223 406.698 516.767 419.258 511.406 424.442 506.36 429.798 499.209 438.13 490.55 449.786 484.816 458.752 477.885 470.624 473.173 479.615 467.446 491.644 460.891 506.865 454.525 522.741 445.284 548.571 441.449 558.486 437.088 568.239 431.941 577.672 425.976 586.674 417.143 598.29 404.912 612.767 389.056 630.513 383.891 636.834 362.198 666.876 345.183 688.196 326.465 712.938 317.888 725.843"/><polyline points="319.519 726.308 328.938 714.295 356.827 682.133 364.326 673.045 371.334 663.221 384.536 642.279 391.478 632.057 396.372 625.596 418.02 598.744 424.34 589.83 428.164 583.718 433.292 574.236 437.576 564.324 441.204 554.098 448.527 530.297 463.054 491.716 471.625 473.601 478.467 461.782 484.536 453.193 491.243 444.645 498.368 436.209 505.836 428.194 516.478 418.084 539.785 398.532 514.041 420.847 503.282 430.866 495.696 438.956 485.962 450.213 479.133 458.627 475.009 464.313 467.881 476.148 463.251 485.111 460.481 491.192 445.991 530.362 437.498 558.062 433.965 568.262 429.678 578.034 422.867 590.716 412.966 606.159 393.321 634.863 378.887 659.058 370.111 672.41 365.332 678.713 357.76 687.641 329.479 718.52 322.152 726.94"/><polyline points="305.363 693.219 340.088 666.435 351.096 657.323 358.901 650.112 363.79 645.041 368.354 639.657 372.586 633.923 376.458 627.899 380.004 621.647 389.952 602.178 405.107 574.149 409.249 564.885 422.335 531.735 429.962 515.518 438.305 500.432 443.504 491.716 447.284 486.104 453.45 477.92 466.692 461.974 476.639 451.763 495.869 435.031 521.566 413.99 539.638 398.569"/><polyline points="539.608 398.267 504.417 425.291 480.389 445.52 475.23 450.226 467.892 457.562 453.853 472.533 447.107 480.188 440.759 488.169 430.849 502.096 425.001 510.731 419.485 520.017 413.06 533.468 401.225 563.253 392.451 582.346 379.524 608.288 374.143 617.626 370.143 623.564 365.837 629.191 359.044 637.05 351.828 644.319 346.729 648.896 338.653 655.311 301.483 682.664"/><polyline points="301.646 672.131 324.966 655.478 338.003 645.618 345.694 639.292 350.595 634.736 357.672 627.419 364.583 619.541 371.207 611.088 375.23 605.147 380.627 595.9 388.459 579.783 399.599 553.253 410.864 522.73 415.532 512.722 419.19 506.445 423.224 500.58 429.682 492.369 440.745 479.25 447.551 471.679 454.629 464.61 479.2 442.926 505.063 422.515 539.714 397.945"/><polyline points="540.105 397.649 491.384 433.151 481.862 439.468 467.052 448.179 459.582 452.983 452.353 458.483 442.918 466.735 435.971 473.635 429.224 480.94 422.643 488.475 416.453 496.369 409.412 507.467 396.803 532.084 389.126 545.268 380.127 558.441 371.62 568.7 364.438 575.979 354.091 584.85 341.263 594.744 318.431 611.258 304.57 622.06"/><polyline points="302.009 610.105 327.35 592.471 347.045 579.629 357.632 572.372 365.455 566.321 372.729 559.744 381.294 550.307 390.448 537.963 398.461 525.622 408.738 507.707 416.009 497.369 422.113 490.061 428.689 483.115 437.977 474.089 447.498 465.384 459.282 455.242 466.266 449.849 484.806 437.171 507.099 420.741 527.483 407.45 540.124 397.838 513.343 418.29 506.58 424.297 493.429 436.928 484.447 444.582 475.134 451.34 452.347 466.579 424.248 487.095 413.202 495.922 387.652 517.743 378.239 524.44 370.587 529.046 362.562 533.311 336.766 544.989 310.231 557.706 297.746 563.369 288.267 567.216 278.57 570.525 268.564 573.218 261.667 574.592"/><polyline points="273.672 576.615 280.199 575.05 289.706 572.111 302.072 567.5 314.275 562.385 352.43 543.914 372.07 534.866 379.644 530.698 389.204 524.69 395.791 520.031 401.852 515.095 423.377 495.795 453.732 471.857 461.252 466.234 481.022 453.074 490.135 446.021 496.748 439.988 517.686 419.031 540.205 397.952 502.88 431.194 485.359 448.341 472.961 459.868 454.531 476.495 435.845 492.754 427.555 500.947 410.119 519.238 402.023 527.113 391.311 536.6 377.873 547.595 368.315 554.478 357.777 560.392 327.65 573.762 303.936 584.997 293.578 588.937"/><polyline points="296.445 593.857 303.558 590.663 325.472 579.195 357.44 563.957 368.161 557.82 375.398 552.466 386.372 542.744 398.779 530.635 426.212 500.025 436.811 489.121 455.649 472.201 502.933 427.444 509.287 422.129 525.493 409.748 540.122 397.947 527.449 407.676 509.68 419.144 500.749 425.732 467.076 454.185 431.818 485.684 423.151 494.481 415.081 503.803 409.499 510.995 397.692 527.48 388.591 538.737 380.608 547.668 371.69 556.067 364.095 561.774 355.978 566.851 345.297 572.895 324.926 583.675 298.063 599.97"/><polyline points="288.538 584.322 299.711 580.179 324.591 569.036 352.832 557.273 360.979 553.201 368.965 548.733 376.647 544.03 383.832 539.065 394.928 530.305 405.371 521.346 411.149 515.862 425.842 500.913 434.012 493.492 464.853 467.755 481.389 454.556 490.01 447.138 512.337 425.766 540.271 398.048 526.821 411.423 504.5 434.675 491.81 446.983 482.818 454.419 460.799 470.396 426.508 498.77 409.752 514.694 404.023 519.765 389.132 531.117 382.144 535.861 377.219 538.769 346.715 553.862 300.248 573.796 291.435 577.195 282.398 580.165"/><polyline points="246.947 569.751 254.068 568.605 264.484 566.256 271.243 564.299 281.05 560.871 311.884 548.1 344.256 535.36 352.913 531.279 358.478 528.235 366.426 523.315 371.451 519.801 399.644 497.013 414.188 486.245 435.409 471.441 471.214 445.27 480.554 437.942 496.924 423.816 504.41 417.819 509.678 414.206 515.148 410.944 531.809 402.243 539.942 397.534 500.477 424.088 457.868 454.98 450.395 461.212 445.569 465.76 431.398 480.522 424.627 488.459 420.43 494.092 416.615 500.047 413.234 506.277 410.267 512.733 407.648 519.341 397.829 546.426 389.303 566.166 384.825 575.765 379.964 585.078 374.626 594.186 370.702 600.079 366.408 605.738 359.538 613.81 352.49 621.373 345.25 628.289 330.558 640.466 303.678 660.628"/><polyline points="305.731 648.266 316.228 639.205 334.781 625.032 346.76 615.002 354.132 608.086 361.371 600.614 370.36 589.844 374.414 584.131 380.039 575.34 385.193 566.382 389.864 557.196 397.145 541.675 399.759 535.33 408.147 512.739 410.895 506.387 414.107 500.212 417.714 494.238 421.672 488.485 425.909 482.957 432.693 475.113 437.404 470.207 444.647 463.351 452.046 457.047 457.134 453.186 464.892 447.868 482.773 436.74 526.535 406.046 540.074 397.466 527.092 406.124 504.421 422.983 487.678 435 480.288 439.751 464.98 448.723 457.267 453.719 447.386 461.294 437.892 470.097 431.06 477.557 424.481 485.425 418.141 493.622 414.279 499.337 409.349 508.237 397.544 534.803 390.265 549.136 381.95 563.343 372.028 577.241 367.565 582.623 362.81 587.749 350.123 599.373 340.106 607.584 317.384 624.569 305.613 634.704"/><polyline points="234.969 561.751 245.871 560.547 253.095 559.332 260.174 557.745 270.326 554.859 279.988 551.602 298.317 544.759 327.935 535.165 336.761 531.608 342.475 528.74 350.731 523.896 361.309 516.89 368.969 510.989 381.263 500.728 388.89 494.9 437.254 460.724 472.276 433.462 484.243 423.762 492.184 417.976 497.875 414.466 506.831 409.927 539.841 397.157"/><polyline points="539.676 396.26 527.161 397.309 506.764 397.89 499.834 398.718 492.98 400.125 486.223 402.025 479.595 404.368 473.167 407.173 461.069 413.862 436.733 429.25 407.383 450.2 389.301 463.582 369.118 476.579 359.95 482.105 353.674 485.495 341.075 491.469 331.753 495.4 322.432 498.636 310.062 501.841 278.155 507.876 256.859 513.105 247.24 515.123 234.111 517.428 217.899 519.585"/><polyline points="219.569 531.332 243.066 527.329 262.324 522.812 311.849 509.037 320.831 506.139 329.72 502.695 350.702 492.552 363.021 485.569 392.146 466.903 423.405 444.499 436.101 435.73 463.36 418.702 472.146 413.68 478.261 410.702 484.575 408.078 494.335 404.721 500.991 402.872 511.152 400.849 539.817 396.626 515.18 402.019 505.25 404.561 492.25 409.185 482.823 413.275 476.749 416.288 470.869 419.585 462.353 424.932 421.703 452.237 402.983 465.236 391.801 472.432 352.909 495.546 332.454 506.44 323.928 510.605 309.474 516.278 284.026 524.754 260.445 531.938 240.93 536.735 220.414 540.391"/><polyline points="222.548 548.077 240.07 545.967 246.956 544.64 256.94 542.135 312.006 523.493 320.541 520.152 326.205 517.538 337.48 511.657 348.902 505.179 371.8 490.056 398.245 473.655 434.199 450.097 471.974 422.844 483.299 415.582 495.629 409.397 505.356 405.71 531.206 399.199 539.874 396.729 531.223 399.704 512.157 405.076 502.388 408.264 496.075 410.908 487.05 415.775 478.801 421.414 437.498 453.069 379.299 492.615 355.336 511.005 344.357 517.951 330.549 525.67 324.874 528.255 319.144 530.438 290.365 539.433 272.391 546.137 262.753 549.336 252.592 551.931 245.522 553.26 238.328 554.179 227.528 554.908"/><polyline points="215.545 507.017 231.286 505.599 247.491 503.611 272.661 499.301 301.341 495.204 313.347 492.992 325.86 489.521 338.45 484.599 354.308 477.395 366.661 470.853 378.487 463.936 386.934 458.792 394.872 453.517 414.836 439.532 431.479 427.069 446.763 416.375 458.178 409.41 470.979 403.093 477.765 400.429 484.715 398.238 491.776 396.565 498.895 395.492 509.527 395.072 529.96 396.073 539.568 396.032"/><polyline points="539.477 395.798 512.742 393.562 505.611 393.344 498.305 393.638 490.923 394.575 483.563 396.132 476.274 398.153 465.562 401.808 455.412 406.166 446.293 411.3 435.523 418.635 408.168 438.09 392.921 447.749 382.111 454.058 367.797 461.529 355.631 467.088 330.633 477.416 321.386 480.651 312.209 483.038 297.578 485.867 283.801 487.875 260.337 490.62 247.642 491.869 237.979 492.461 225.106 492.87 212.423 492.879"/><polyline points="208.253 475.161 220.953 476.328 233.656 476.897 246.258 476.722 258.71 475.989 270.443 474.681 292.107 471.56 306.379 468.9 318.456 466.253 361.646 453.83 367.714 451.685 376.542 447.929 390.538 441.233 401.013 435.513 416.583 425.981 438.2 411.974 444.163 408.428 453.942 403.629 464.617 399.735 475.774 396.572 483.324 394.802 494.662 392.931 502.105 392.328 509.335 392.252 516.302 392.654 539.469 395.548 519.396 393.692 512.362 393.509 505.188 393.755 494.207 394.783 479.305 396.909 468.085 399.049 457.094 401.57 446.656 404.445 436.954 408.091 402.37 425.559 388.095 431.826 379.233 435.03 370.228 437.835 360.895 440.105 354.486 441.209 326.691 444.058 305.298 445.66 284.415 447.877 258.416 449.36 243.158 448.809 224.332 447.02 212.151 444.911 200.226 441.877"/><polyline points="203.702 458.739 216.127 460.971 228.662 462.388 247.433 462.985 259.526 462.638 287.258 459.275 353.466 447.936 359.808 446.545 369.137 443.769 381.137 439.332 389.764 435.764 403.473 428.899 440.396 408.222 450.197 403.926 460.772 400.418 471.916 397.532 483.255 395.185 494.521 393.477 501.889 392.74 509.108 392.423 516.148 392.625 539.484 395.474 526.143 393.632 516.485 392.872 494.163 392.29 471.64 391.3 450.135 390.846 413.075 388.194 384.766 388.125 371.936 386.837 362.665 385.012 350.887 381.826 318.198 371.606 291.244 362.066 279.754 358.487 254.661 351.923 228.028 346.075 207.957 340.915"/><polyline points="208.441 337.045 232.572 341.756 259.341 346.207 278.467 350.808 290.4 354.681 322.925 367.798 336.294 372.532 356.471 378.951 372.272 382.594 378.794 383.563 388.623 384.423 414.466 385.411 461.475 389.939 488.496 392.216 500.813 392.894 521.747 393.474 539.65 395.426"/><polyline points="539.34 395.545 518.809 393.867 504.397 393.806 493.297 394.648 478.471 396.322 467.451 397.899 456.618 399.86 446.186 402.142 436.388 405.036 427.263 408.595 401.343 419.786 386.735 425.027 377.864 427.594 368.949 429.676 362.857 430.733 356.56 431.435 315.97 432.141 273.765 431.721 255.496 431.044 239.794 429.597 220.777 427.023 211.717 425.22 197.175 421.276"/><polyline points="195.296 395.265 210.273 399.532 222.712 402.329 238.727 405.354 263.944 409.091 279.244 410.828 314.808 414.093 345.559 416.537 354.911 417.001 367.199 416.368 385.306 413.695 397.357 410.899 421.165 404.023 436.224 400.054 449.216 397.464 466.644 395.056 488.51 392.935 503.366 392.214 517.967 392.884 539.254 395.239 525.449 393.111 515.144 392.055 484.221 390.578 463.783 390.355 438.531 390.985 413.864 390.271 379.604 391.653 370.176 391.334 364.022 390.713 358.003 389.764 349.169 387.828 332.381 383.175 304.413 376.377 282.282 370.302 228.477 357.751 215.707 354.396 202.959 350.475"/><polyline points="206.988 335.18 224.059 337.489 257.873 341.352 267.884 343.105 277.687 345.288 287.05 347.989 295.989 351.156 307.355 355.736 323.346 362.9 342.584 369.998 358.14 374.791 368.127 377.222 374.822 378.519 384.799 379.936 407.753 382.137 434.246 385.541 468.954 389.138 495.434 392.263 507.184 393.251 526.681 394.105 540.007 395.528"/><polyline points="539.794 395.052 525.862 391.417 506.273 387.661 496.966 385.497 483.188 381.27 471.62 377.237 462.182 373.439 445.112 365.294 435.444 361.12 409.637 351.984 400.11 348.009 392.516 344.138 372.709 332.604 340.1 315.417 329.716 310.251 321.728 306.785 313.419 303.846 301.456 300.779 291.746 298.997 274.7 296.592"/><polyline points="273.047 300.683 289.328 302.563 301.797 304.519 310.615 306.584 318.986 309.28 327.022 312.532 334.895 316.285 370.342 334.957 391.585 346.984 398.815 350.505 406.17 353.595 415.971 357.169 434.752 363.027 458.545 372.282 466.397 375.015 493.211 383.153 502.72 385.48 524.137 390.075 539.903 395.005 525.702 391.343 505.067 387.311 497.806 385.616 486.09 381.952 474.796 377.899 463.773 372.981 445.822 363.346 434.259 357.653 425.414 353.867 404.233 345.699 391.76 339.999 338.144 310.006 324.898 303.631 316.749 300.287 308.167 297.449 295.872 294.087 272.484 288.383"/><polyline points="271.633 276.374 293.238 284.837 316.941 293.414 330.784 299.354 338.63 303.53 361.318 316.945 383.96 328.868 397.796 335.465 424.137 346.274 435.369 351.38 446.569 357.3 465.595 368.779 476.215 373.977 485.341 377.615 497.25 381.826 525.992 389.817 539.856 394.757"/><polyline points="539.921 394.441 526.212 387.721 492.588 374.357 474.374 366.312 463.97 360.518 442.952 346.44 431.593 340.2 419.854 334.803 394.471 324.634 384.704 320.323 361.273 308.934 353.616 304.517 338.568 295.157 330.723 290.873 322.456 287.03 293.889 274.925 271.126 264.325"/><polyline points="273.789 249.961 305.023 266.131 331.609 278.586 341.693 284.475 358.961 295.785 369.316 301.501 384.86 308.812 407.384 317.355 414.496 320.658 426.663 326.884 438.623 333.991 460.419 350.374 471.128 357.383 490.823 368.127 526.527 386.021 540.039 394.156"/><polyline points="540.617 393.151 517.831 362.894 507.737 348.312 502.268 338.948 492.584 320.112 487.577 311.301 472.95 289.35 465.818 277.686 460.93 268.492 455.168 256.042 451.416 246.854 443.365 225.248 433.664 203.73 429.224 195.033 426.074 189.557 417.875 176.961 412.542 170.038 408.672 165.767 404.607 161.778 398.263 156.286 389.348 149.745 371.166 137.765 343.728 117.37"/><polyline points="347.43 121.188 382.359 143.041 400.714 155.062 407.58 160.105 414.156 165.713 420.393 171.925 426.081 178.784 431.383 186.059 439.855 199.027 445.734 210.376 450.866 222.237 459.539 245.56 466.156 259.851 474.379 274.324 488.63 297.022 493.762 305.851 498.403 315.367 508.483 338.762 513.39 348.354 518.723 357.463 540.715 392.996 536.869 387.132 533.403 381.138 517.148 350.251 511.265 337.079 502.524 312.948 498.307 303.001 493.502 293.734 467.888 248.75 464.305 240.829 458.035 224.395 452.035 210.503 447.931 202.385 441.529 192.302 434.533 182.764 428.782 175.777 422.285 169.238 413.195 161.487 406.148 156.369 381.518 139.957 370.107 133.282 352.905 123.978"/><polyline points="356.495 130.81 373.686 139.227 382.633 144.232 395.661 152.289 414.045 164.786 421.041 170.514 429.968 179.168 435.965 186.111 444.656 197.82 449.492 205.019 453.716 212.594 469.405 245.638 473.624 252.877 484.859 270.629 494.547 287.633 499.323 296.635 504.906 309.592 513.911 337.343 517.782 347.51 531.981 378.587 536.851 387.417 540.631 393.103 533.42 381.941 527.685 371.179 522.872 360.535 510.439 329.809 506.298 321.553 503.067 316.171 494.13 302.955 484.783 290.892 477.533 282.625 463.57 268.248 457.391 260.965 451.882 252.904 440.551 234.019 437.171 229.021 431.667 221.862 425.798 215.364 421.528 211.454 416.941 207.784 409.652 202.564 399.55 196.272 379.74 185.687 368.683 179.168 359.741 173.45 345.844 163.513"/><polyline points="350.502 159.275 362.128 167.505 368.947 171.884 384.582 180.739 404.54 191.243 414.693 197.687 421.909 203.129 426.396 207.046 430.584 211.223 436.428 217.941 443.591 227.477 454.933 245.982 460.31 253.921 464.648 259.303 481.131 278.075 488.308 286.968 495.52 297.132 502.459 308.32 507.271 316.992 511.347 325.751 518.25 343.118 525.424 363.224 528.859 371.321 535.574 384.833 540.76 393.123 537.223 387.503 532.564 378.892 526.068 364.056 518.69 345.17 508.782 314.51 504.864 304.608 501.831 298.223 496.748 289.179 488.141 275.383 473.037 254.062 468.538 247.276 451.14 217.272 441.38 203.421 434.462 194.353 428.629 187.693 422.1 181.331 412.7 173.775 400.881 165.832 383.031 155.177 371.964 149.099 354.89 140.701"/><polyline points="352.117 148.447 396.477 172.519 403.625 176.778 413.372 183.261 420.653 188.803 427.334 194.868 435.231 203.445 444.324 214.658 450.889 223.712 470.432 253.488 491.023 280.76 496.391 289.004 501.656 297.812 506.41 307.229 510.45 316.892 515.188 329.863 522.671 352.177 529.576 370.092 534.764 381.63 540.881 393.058 536.063 384.624 530.832 373.461 525.166 359.226 517.886 338.245 513.206 326.05 507.951 313.721 501.727 301.55 496.576 292.908 491.214 284.826 462.053 247.51 457.93 241.575 446.609 223.797 441.388 216.778 433.648 207.82 427.478 201.436 420.719 195.463 413.379 190.054 400.812 182.389 383.994 173.636 368.225 164.933 351.585 154.824"/><polyline points="340.344 168.988 371.37 190.075 380.389 195.489 394.861 203.585 404.464 209.765 415.999 218.55 420.235 222.46 424.284 226.719 428.151 231.345 433.527 238.792 445.362 258.385 451.27 266.667 459.31 275.72 471.788 287.756 483.097 299.806 492.7 311.151 499.96 320.63 504.86 328.09 507.742 333.296 518.841 357.676 525.569 370.912 532.225 381.705 540.385 392.998"/><polyline points="540.883 393.049 537.565 387.251 533.101 378.163 529.189 368.596 526.983 361.903 522.587 344.518 515.587 311.858 510.216 290.286 503.455 260.486 498.708 244.169 490.029 218.957 485.028 203.417 482.445 194.037 481.078 187.652 479.397 177.965 477.674 164.93 474.61 135.184 472.273 108.923 469.718 66.99 469.641 56.989 470.55 33.622"/><polyline points="481.7 27.232 481.747 68.406 483.58 130.043 485.235 153.268 487.902 172.465 491.932 194.343 501.611 231.963 505.462 248.249 512.681 285.599 517.94 307.518 523.148 333.524 527.25 351.755 530.01 362.387 533.275 372.739 536.982 382.818 541.14 392.661"/><polyline points="541.211 392.381 537.429 381.492 533.187 366.356 529.46 351.015 526.367 335.584 518.407 287.333 513.405 259.387 506.569 206.951 504.461 194.097 499.743 168.825 497.397 152.961 496.019 139.645 495.515 129.286 495.555 119 496.294 102.434 496.414 92.549 495.555 48.552 494.374 21.298"/><polyline points="489.231 21.946 489.955 52.843 490.382 128.239 491.141 141.834 492.649 155.069 497.295 183.473 502.956 211.744 507.587 237.25 513.644 274.59 520.38 307.238 526.547 341.184 529.915 356.198 532.864 367.264 537.427 381.8 541.285 392.478 538.831 385.458 536.745 378.161 532.36 359.18 529.295 343.724 523.771 309.935 520.23 285.005 515.763 257.639 514.476 244.292 511.264 201.789 509.983 192.047 505.625 166.012 503.965 152.994 502.702 139.557 502.081 125.837 502.203 115.794 503.204 96.474 502.757 70.93 501.703 47.375 500.185 23.728"/><polyline points="509.901 27.351 511.889 67.209 512.327 83.079 512.219 95.642 511.019 118.31 511.162 131.837 512.058 145.585 513.605 162.733 518.88 203.181 519.293 213.058 519.223 235.759 520.666 255.059 521.654 264.942 529.089 319.497 533.192 352.908 537.614 378.848 539.333 385.872 541.454 392.615"/><polyline points="541.661 392.764 539.952 386.332 538.67 379.601 535.449 350.917 532.189 311.922 530.089 282.285 526.622 243.705 526.5 234.335 527.968 215.135 528.11 205.329 527.319 191.818 524.186 159.921 522.925 142.456 522.658 128.55 523.223 104.903 523.146 95.272 522.71 76.32 521.408 43.771 521.295 31.021"/><polyline points="453.822 40.339 452.994 62.887 453.304 72.538 454.164 82.582 458.709 124.166 464.433 160.012 467.78 183.473 470.256 196.622 472.938 206.287 475.129 212.628 481.38 228.396 490.759 250.402 496.704 266.476 512.52 315.629 523.664 357.169 526.819 367.157 529.375 373.494 532.284 379.466 537.177 387.94 540.781 393.289 532.054 379.785 526.01 368.15 522.206 358.761 510.681 326.323 502.649 306.791 486.13 270.17 466.863 228.845 461.414 216.059 459.083 209.555 455.635 196.327 450.871 169.29 443.943 137.057 441.754 124.233 436.886 87.393 435.547 74.566 434.934 62.165 435.068 49.559"/><polyline points="421.111 57.172 421.385 72.487 421.964 78.549 423.433 87.724 426.752 103.204 433.781 140.59 440.732 168.934 446.776 199.69 449.483 209.839 451.711 216.577 458.411 233.252 467.342 252.942 480.499 278.167 495.003 304.497 504.635 322.956 509.142 332.424 519.774 357.3 525.308 369.151 531.745 380.285 540.633 393.465 533.163 383.441 526.324 372.817 520.375 361.562 503.994 328.438 498.769 319.415 479.17 287.464 470.397 272.367 461.724 255.97 455.775 242.421 449.358 224.718 444.935 210.675 439.689 190.445 434.696 167.025 432.342 157.543 420.767 116.116 412.571 89.976 411.222 84.022 410.328 77.972 409.506 62.806"/><polyline points="395.902 67.071 397.911 78.978 401.18 90.745 419.863 137.953 425.944 155.064 429.31 167.451 441.171 218.091 446.746 236.73 452.231 251.361 458.902 265.18 468.034 281.453 473.639 290.485 500.127 331.076 503.613 337.03 513.103 354.71 521.349 368.645 526.657 376.562 530.44 381.593 540.518 393.557 519.818 371.398 513.162 363.505 506.736 355.134 498.853 343.215 490.35 328.359 483.45 317.021 470.27 298.345 464.718 289.752 458.087 277.213 450.61 260.91 446.759 251.116 438.542 228.275 423.555 190.171 418.083 179.122 413.474 171.403 410.023 166.608 406.335 162.151 396.589 152.194 390.297 146.734 375.005 134.675 346.626 109.723"/><polyline points="353.839 100.234 370.374 117.415 396.808 143.901 405.868 154.324 412.798 163.611 415.937 168.83 418.716 174.381 423.442 186.075 440.08 240.041 445.988 257.195 453.167 274.02 461.323 290.248 466.861 299.239 476.583 312.867 484.019 323.93 500.058 349.974 506.027 358.612 512.424 366.539 519.059 373.777 525.995 380.548 540.397 393.753 531.707 385.026 525.466 378.144 519.557 370.763 514 362.899 508.801 354.574 496.748 333.83 480.143 307.281 466.616 286.367 455.191 266.91 449.749 256.664 446.515 249.48 443.662 242.065 438.875 226.917 435.225 212.166 428.18 177.86 425.556 168.165 421.574 156.123 417.051 145.039 409.751 129.371 391.195 92.408 387.642 84.028 383.654 72.553"/><polyline points="375.342 80.218 379.474 88.562 385.554 99.213 391.966 109.632 403.348 126.859 407.63 134.098 417.034 151.682 421.997 162.577 425.259 171.351 428.87 183.936 437.205 222.338 440.932 237.171 443.311 244.532 446.072 251.792 450.972 262.233 469.335 294.565 506.858 356.964 514.527 367.518 520.584 374.767 529.146 383.649 540.329 393.906 530.917 385.762 521.855 377.212 513.256 367.985 507.047 360.266 501.194 351.842 490.358 334.195 464.198 293.361 458.894 283.811 450.519 267.437 445.924 257.183 443.224 250.163 438.878 235.972 425.54 183.746 421.411 171.705 417.646 163.258 411.774 153.01 400.835 136.85 395.756 130.213 376.615 107.053 363.998 89.744"/><polyline points="340.203 172.393 369.264 196.725 391.885 214.823 399.974 222.459 414.409 237.424 421.966 246.464 438.646 268.711 443.567 274.709 460.787 292.822 476.026 307.938 487.147 320.689 492.288 327.594 497.077 334.754 510.73 357.331 519.237 370.216 527.392 380.578 539.871 393.445 526.843 381.289 518.059 371.309 508.589 358.818 491.752 334.495 480.813 320.976 471.022 310.366 457.344 296.758 439.178 278.002 407.711 242.019 399.085 233.409 388.16 223.277 360.904 200.459 331.474 174.42"/><polyline points="338.81 172.394 368.69 193.941 392.545 209.761 399.297 214.549 410.459 223.53 418.945 231.815 426.575 241.25 431.702 248.717 440.984 263.269 447.149 271.517 455.258 280.413 469.644 294.291 479.358 304.225 490.862 316.901 498.041 325.74 502.95 332.695 505.893 337.55 517.612 360.853 523.512 371.236 528.951 379.192 540.043 393.142 530.265 382.501 522.156 372.03 515.729 361.675 503.228 338.943 497.139 329.594 492.125 322.788 484.911 314.161 477.401 305.873 453.469 282.139 445.198 273.191 440.495 267.167 426.016 246.155 418.689 236.867 406.272 224.038 395.852 214.766 371.059 196.236 341.441 173.182"/><polyline points="319.445 180.532 352.742 210.256 361.062 216.896 379.47 230.66 391.267 240.468 400.437 248.731 420.079 267.58 429.594 277.097 448.081 296.493 464.017 312.328 482.587 331.495 488.408 338.04 507.167 360.903 519.691 375.139 529.239 384.533 539.903 393.766 529.405 385.207 519.733 376.235 493.672 349.513 479.392 334.242 466.402 321.226 444.56 298.277 431.712 284.223 423.806 276.591 412.884 267.583 376.073 239.938 368.635 234.94 354.344 226.04 345.487 219.93 339.55 215.068 326.743 203.566 309.125 189.052"/><polyline points="299.255 200.659 317.894 214.841 331.5 225.848 337.775 230.345 361.217 244.225 383.757 259.229 407.308 273.195 414.728 278.153 421.604 283.447 431.969 292.736 446.93 308.556 462.543 325.841 482.445 345.081 502.301 363.163 516.689 375.62 524.228 381.814 539.964 393.903 502.815 367.736 475.599 345.992 462.041 333.908 441.63 312.863 433.752 305.268 425.525 298.093 418.81 292.959 411.651 288.013 403.999 283.386 379.573 271.318 368.858 265.388 346.842 250.993 328.125 240.201 319.202 234.706 310.591 228.865 289.006 213.232"/><polyline points="281.745 226.421 307.48 243.362 314.583 247.238 329.032 254.353 336.173 258.308 345.77 264.038 360.633 273.885 368.377 278.536 376.444 282.534 403.283 294.153 410.838 298.202 415.663 301.194 424.98 307.781 436.069 316.505 442.445 322.149 461.669 340.269 472.777 349.31 495.088 364.911 504.827 371.16 526.59 384.388 540.105 393.944 532.281 388.247 526.826 384.758 493.105 366.213 471.234 352.447 464.685 347.806 458.137 342.647 443.009 329.522 436.346 324.179 426.88 317.71 414.752 310.072 405.065 304.985 381.758 295.847 368.646 289.589 360.992 285.011 346.178 275.036 334.071 267.557 326.64 263.617 314.076 258.077 306.62 254.346 278.4 237.669"/><polyline points="261.359 298.274 298.185 301.825 307.154 303.554 315.881 306.07 327.254 310.582 338.484 316.013 351.601 323.143 369.846 334.481 376.251 338.146 397.221 348.765 408.008 353.546 452.836 369.066 520.432 388.127 527.776 390.473 540.106 394.984 529.989 391.152 522.63 388.822 493.009 381.616 453.905 370.839 416.523 358.588 408.006 355.534 396.415 350.691 382.814 344.015 374.383 339.375 355.907 328.429 334.876 316.892 323.946 311.729 315.717 308.55 307.257 306.043 298.462 304.301 267.401 301.061"/><polyline points="255.413 298.323 289.164 301.024 298.394 302.063 307.447 303.801 316.212 306.457 327.723 311.097 338.966 316.513 374.42 337.243 394.744 347.861 406.593 353.194 435.46 362.603 455.139 369.371 525.156 390.088 540.257 395.242 512.466 388.171 497.516 383.966 457.3 371.728 426.799 361.964 404.962 355.505 397.139 352.306 389.625 348.67 363.001 334.686 332.497 317.873 321.034 312.774 309.347 308.608 300.377 306.296 291.164 304.962 247.518 302.507"/><polyline points="237.055 309.932 259.111 310.65 278.047 310.74 284.261 311.048 293.58 312.163 305.863 314.918 317.851 318.747 326.524 322.289 385.002 350.066 393.313 353.651 401.774 356.844 447.835 370.965 470.977 377.254 505.398 387.287 517.772 390.464 540.361 395.42 511.052 389.292 473.192 379.778 449.136 374.505 436.868 371.146 403.451 360.869 394.413 357.788 373.195 349.808 355.863 342.61 336.423 335.078 319.692 328.019 310.815 324.926 301.654 322.344 289.228 319.748 279.833 318.769 267.382 318.316 242.412 318.436 226.678 317.913"/><polyline points="216.144 324.095 235.34 325.389 254.345 325.697 270.279 326.321 279.866 327.205 289.307 328.971 298.688 331.421 307.964 334.372 363.068 356.092 385.502 363.64 398.24 367.486 433.177 376.69 446.154 379.644 482.724 385.804 510.488 391.193 528.601 393.591 540.395 395.482 527.943 394.32 514.723 393.609 506.458 392.849 480.666 389.09 443.476 384.492 433.519 382.966 410.425 378.546 387.554 374.601 370.911 370.713 357.61 366.791 328.148 355.73 299.822 343.956 290.601 340.783 281.201 338.149 271.489 336.243 258.165 334.574 245.07 333.513 221.711 332.232 208.505 330.822"/><polyline points="197.209 368.927 209.5 372.809 218.801 375.368 244.498 381.192 292.929 390.281 324.944 395.419 345.68 399.185 357.796 400.587 370.027 400.796 382.333 400.17 391.531 399.276 416.088 395.843 446.967 392.825 460.321 391.848 481.649 390.866 496.16 390.666 510.671 391.254 525.015 392.879 539.181 395.221"/><polyline points="543.115 391.266 546.705 338.048 548.583 321.738 550.027 314.092 552.779 303.254 558.081 286.098 562.721 269.731 565.928 260.304 569.573 251.166 573.719 242.472 588.152 218.363 594.278 206.041 600.335 190.869 604.668 175.404 606.949 168.445 611.062 157.638 613.962 151.399 618.041 144.781 623.43 137.752 632.559 126.859 648.098 109.163"/><polyline points="635.983 103.229 616.813 124.433 610.599 131.784 605.222 139.045 602.282 144.391 600.223 149.461 597.913 157.29 595.156 168.887 591.309 188.793 588.798 197.893 586.373 205.322 581.829 215.958 568.488 241.059 564.639 249.959 561.279 259.295 557.728 272.314 550.661 306.487 548.82 317.521 547.078 333.345 545.506 358.895 543.02 391.144 546.701 358.587 548.641 329.313 549.869 317.757 555.343 275.686 557.126 265.644 558.785 259.11 561.853 249.631 565.438 240.539 577.887 214.02 582.209 202.62 584.259 194.7 586.539 182.876 587.708 174.161 589.3 158.082 590.786 147.941 592.442 140.975 594.484 135.297 596.411 131.346 598.806 127.39 604.591 119.492 609.482 113.667 627.534 93.539"/><polyline points="615.989 80.425 599.763 100.412 591.993 111.156 588.121 117.705 586.011 121.999 584.292 126.212 582.444 132.295 581.371 138.06 580.42 147.513 580.141 153.556 580.06 173.943 579.302 183.741 578.123 191.615 576.23 200.155 573.67 209.254 563.74 237.24 560.783 246.621 557.465 259.584 554.908 273.125 552.259 293.777 549.966 318.635 548.227 350.224 547.508 358.862 543.288 391.136"/><polyline points="543.461 391.319 547.179 368.835 549.349 351.76 550.283 339.666 551.582 310.192 552.49 299.822 553.89 289.586 557.026 272.276 561.909 248.739 565.833 232.671 572.914 207.466 574.247 201.149 575.687 191.983 576.578 183.358 576.984 172.753 576.204 146.432 576.86 137.727 578.064 129.251 579.591 122.889 581.716 116.403 584.479 109.592 586.817 104.885 593.889 93.098 609.468 69.951"/><polyline points="607.077 69.128 604.824 78.631 601.805 94.835 599.644 104.57 590.022 137.016 587.978 144.974 586.988 150.319 586.403 155.767 586.197 164.085 586.603 183.452 587.577 204.353 587.273 219.329 585.333 235.341 575.9 291.991 570.376 318.371 566.278 334.249 563.016 343.45 555.384 361.759 543.904 392.734 553.092 363.309 562.584 337.685 565.61 328.564 572.251 303.902 578.253 277.498 579.851 267.133 581.962 250.098 583.695 231.427 584.293 220.282 583.891 207.24 582.006 186.77 581.469 175.954 581.159 162.444 581.782 151.519 583.711 140.813 593.139 106.754 598.644 81.249 601.895 68.645"/><polyline points="603.143 66.588 597.442 103.107 595.247 112.84 589.111 136.784 586.972 147.977 586.11 159.192 586.831 179.171 587.105 197.555 586.871 207.54 586.329 214.968 584.618 227.558 578.34 260.687 575.122 284.625 569.132 322.17 566.19 335.18 563.194 344.442 543.882 392.815 561.246 348.099 564.073 339.006 566.852 326.413 575.678 262.539 582.836 224.165 584.359 214.042 585.498 201.654 586.027 189.083 586.067 180.946 585.505 163.688 585.989 152.249 588.183 134.695 594.087 99.431 598.705 64.856"/><polyline points="598.528 57.061 579.283 105.996 574.584 121.09 571.47 135.72 570.376 145.755 570.245 153.428 570.739 161.247 573.375 186.168 573.925 195.05 574.139 210.503 573.341 223.068 571.649 235.528 569.421 248.225 561.148 288.121 557.38 308.361 555.878 318.64 553.481 339.913 552.311 347.392 543.416 391.684 550.359 353.521 551.559 345.619 552.389 337.945 554.12 312.673 556.409 295.675 559.715 278.538 572.553 219.607 574.636 206.888 575.687 194.262 576.141 182.364 575.975 171.357 574.987 153.445 574.971 146.097 575.537 138.841 577.094 129.363 578.715 122.508 581.418 113.474 585.973 101.261 590.988 90.986 606.457 61.801"/><polyline points="665.688 119.335 642.556 145.982 636.926 152.894 632.285 159.309 629.57 163.817 626.565 169.725 615.529 194.754 611.698 202.496 601.236 219.245 587.336 239.263 582.106 247.291 577.309 255.608 571.61 267.135 566.65 279.116 558.255 301.78 554.901 312.227 552.979 319.547 551.385 327.211 549.538 339.264 543.294 391.412"/><polyline points="544.096 398.631 549.967 409.25 554.51 416.755 559.288 423.975 564.362 430.837 571.174 439.095 581.495 450.793 593.851 465.903 613.43 487.668 621.182 496.689 631.866 510.324 636.37 516.906 638.985 521.31 642.378 527.892 646.28 536.728 656.839 564.284 667.509 593.194 676.94 621.114 681.722 633.912 692.839 659.737 699.44 672.652"/><polyline points="692.955 681.185 687.972 671.073 683.511 660.822 677.952 647.143 674.242 636.964 669.95 623.876 663.291 601.546 655.001 577.458 644.765 540.504 641.396 531.344 637.147 522.197 633.155 515.227 628.43 508.063 614.013 488.463 584.662 452.368 570.488 436.671 563.58 428.078 555.357 416.421 544.26 398.607 557.042 420.772 585.292 467.298 594.06 481.064 599.658 488.981 603.708 493.931 608.016 498.58 614.83 505.015 624.497 512.76 645.014 526.605 679.01 551.07 688.008 556.412 716.605 570.496 741.739 583.925 750.844 589.175 765.355 598.349 783.204 610.415 801.876 623.912 811.139 631.005"/><polyline points="787.215 642.783 764.976 622.995 733.702 597.51 723.05 589.758 703.055 575.928 682.328 562.267 673.89 556.249 666.121 549.774 640.94 527.228 634.053 521.75 617.03 509.301 610.147 503.51 605.833 499.371 601.731 494.96 597.886 490.237 591.004 479.91 575.221 452.872 554.635 418.553 544.065 398.672 549.869 410.024 554.615 418.45 575.648 451.843 590.81 477.95 597.48 487.791 603.11 494.503 607.208 498.644 613.864 504.401 630.491 516.762 639.3 523.914 645.45 529.623 664.363 548.653 671.45 555.35 695.13 575.501 724.253 601.378 749.344 626.813 768.793 647.857"/><polyline points="753.39 651.778 729.338 622.593 711.595 600.518 688.748 574.579 666.106 550.857 646.968 528.901 641.433 523.134 633.548 515.746 609.542 495.528 603.513 489.486 599.771 485.161 592.85 475.913 579.972 456.222 564.805 434.192 551.819 412.794 544.164 398.715 548.6 407.406 555.068 418.448 563.52 431.778 570.39 441.448 595.525 473.402 603.021 482.234 608.963 488.338 623.48 501.709 631.53 509.588 640.712 519.534 649.022 529.483 667.758 554.134 685.162 576.354 699.033 596.917 711.823 618.116 717.25 626.325 727.179 639.778 740.511 656.064"/><polyline points="728.351 660.338 715.635 643.55 708.27 632.167 701.854 620.559 688.726 592.211 681.41 578.282 674.968 567.669 646.501 523.261 636.668 510.756 627.481 500.077 621.553 493.851 606.773 480.34 596.467 469.977 572.556 441.896 561.787 428.322 554.644 418.107 549.691 410.088 544.019 398.655 548.237 406.885 552.895 414.72 557.958 422.142 565.091 431.321 593.203 464.92 601.391 473.266 618.357 489.551 624.331 496.003 635.098 509.232 642.768 520.038 648.791 530.765 656.658 546.997 666.082 565.038 672.766 578.775 680.051 596.051 690.562 623.133 694.684 632.322 704.134 650.419 713.44 665.395"/><polyline points="691.598 691.616 685.977 681.434 680.953 671.011 676.5 660.391 672.769 649.64 668.605 635.67 662.187 612.256 655.803 593.242 653.065 583.923 650.468 571.609 646.705 548.007 644.467 538.381 641.074 528.448 635.124 515.474 627.37 501.943 622.068 493.892 616.408 486.113 598.822 464.765 586.013 449.995 573.388 436.013 564.324 425.291 555.287 413.685 544.432 398.517 587.257 462.953 599.082 479.586 607.458 489.871 614.244 496.99 621.436 503.485 628.991 509.387 636.947 514.666 656.081 525.927 672.947 535.623 684.51 541.729 700.056 548.559 736.825 561.784 750.351 567.138 763.845 572.962 780.144 580.865 800.044 591.351 820.866 602.762 834.517 611"/><polyline points="850.537 588.529 832.275 580.314 806.394 569.671 771.367 556.191 753.775 550.491 710.093 538.141 688.287 530.885 679.2 527.159 661.205 519.148 649.775 513.308 641.382 508.363 633.255 502.846 623.064 494.777 613.369 485.851 604.105 476.097 590.937 460.37 578.392 444.521 544.553 398.428 564.404 423.632 572.56 433.451 594.891 458.132 608.981 472.895 618.872 481.862 633.905 494.149 644.615 501.68 653.136 506.611 658.988 509.392 664.956 511.789 686.617 518.692 720.429 527.482 742.993 532.735 763.801 536.997 778.103 540.587 822.221 553.38 845.335 560.757 860.384 566.126"/><polyline points="867.098 547.812 852.012 543.132 836.219 539.301 820.337 536.127 797.2 532.414 742.902 522.843 709.082 515.246 675.382 508.354 666.163 505.966 657.203 502.719 648.65 498.294 637.873 491.169 617.263 475.719 607.009 466.905 594.473 454.782 571.036 430.785 564.761 423.454 544.635 398.464 552.741 408.621 565.006 422.731 583.894 443.758 604.553 465.466 612.548 474.944 620.705 485.346 626.438 493.696 631.566 502.417 636.045 511.325 642.101 526.026 644.941 534.643 646.378 540.235 648.016 550.865 648.546 558.67 649.179 578.564 650.872 591.538 653.096 601.534 660.626 629.12 666.393 654.573 668.374 662.13 672.109 673.49 676.902 684.545 682.575 695.115 689.121 705.119"/><polyline points="682.039 718.129 674.78 707.919 668.627 697.035 663.801 685.504 660.355 673.588 657.973 661.75 653.498 635.373 648.375 610.11 646.836 599.644 646.22 592.85 646.024 583.059 647.071 565.26 647.271 556.736 647.035 550.978 646.356 545.048 644.489 535.731 641.877 526.072 637.515 513.008 633.647 503.184 629.056 493.725 623.77 484.754 616.268 473.475 610.442 465.853 604.589 459.346 587.447 442.608 556.005 410.852 544.775 398.509 554.571 408.358 569.372 421.645 596.783 447.043 602.342 452.479 609.637 460.316 615.151 467.358 622.099 478.479 628.597 490.645 632.846 500.418 636.106 510.727 639.531 524.694 641.508 535.053 642.811 545.113 643.241 551.61 643.254 557.962 640.673 588.89 640.396 598.908 640.604 605.824 641.899 620.056 649.376 676.57 651.975 688.711 654.551 696.72 656.129 700.637 661.924 711.936 666.494 719.169 671.5 726.194"/><polyline points="660.303 731.444 655.453 724.166 651.073 716.725 645.488 705.233 641.37 693.243 639.544 685.109 638.339 676.975 635.397 642.217 633.612 616.514 633.284 605.818 634.228 588.828 637.546 556.668 637.924 546.496 637.807 539.58 636.981 528.971 635.44 518.22 633.306 507.576 630.344 497.327 626.448 487.686 620.468 475.797 613.98 465.195 608.745 458.547 601.7 450.928 594.26 443.614 570.182 421.663 555.077 408.308 545.07 398.478 559.872 413.057 596.039 446.065 601.796 451.772 607.258 457.768 614.201 466.959 618.916 474.894 624.478 486.632 627.929 496.101 630.577 506.04 632.461 516.447 633.698 527.107 634.102 537.792 633.785 548.375 633.063 558.77 629.066 591.949 627.624 609.168 627.553 619.867 628.413 661.458 629.166 677.32 630.076 685.473 631.562 693.651 635.01 705.868 638.096 713.839 641.766 721.598 646.002 729.146 650.749 736.492"/><polyline points="872.309 534.513 860.998 531.033 853.089 529.175 844.941 527.735 832.589 526.105 816.302 524.707 796.691 524.327 781.317 523.496 766.192 522.023 751.649 519.857 738.37 517.103 714.737 511.311 676.119 503.179 670.075 501.586 661.229 498.312 655.503 495.512 649.93 492.327 630.807 480.12 617.342 470.83 606.575 462.27 583.064 441.018 571.27 429.565 562.786 420.034 544.682 398.169 560.365 416.49 571.088 427.725 583.26 438.653 604.934 456.27 618.52 466.326 637.357 478.724 656.563 490.389 662.203 493.322 667.961 495.891 676.791 499.11 688.65 502.733 713.869 509.24 733.388 515.015 742.608 517.181 749.268 518.385 759.944 519.686 775.064 520.212 786.818 519.864 810.76 518.242 818.985 518.139 827.327 518.551 839.886 519.805 852.376 521.756 860.449 523.653 871.964 527.452"/><polyline points="869.135 526.144 857.403 521.849 845.188 518.583 832.596 516.446 824.141 515.65 815.739 515.476 807.449 515.847 775.245 519.103 763.693 519.786 752.701 519.583 742.563 518.418 733.323 516.544 724.862 514.091 695.131 504.078 678.115 497.783 663.56 491.4 652.309 485.214 641.634 478.472 621.125 464.83 602.311 451.525 583.239 436.862 568.511 424.134 560.001 415.57 544.658 397.908 558.025 412.729 568.604 423.124 580.831 433.472 594.553 443.489 624.381 463.086 646.753 478.282 657.652 484.954 666.325 489.548 675.102 493.637 700.267 503.865 713.731 508.789 724.678 512.317 736.167 515.11 745.538 516.543 755.84 517.135 763.189 516.933 778.456 515.559 806.024 512.089 814.073 511.468 822.285 511.409 830.604 512.077 843.094 514.267 855.307 517.751 866.998 522.288"/><polyline points="867.014 516.421 859.355 513.536 851.388 511.131 843.2 509.319 830.866 507.59 818.74 506.948 810.844 507.238 772.717 511.237 761.925 511.867 755.039 511.845 742.278 510.76 730.427 508.733 721.931 506.59 711.158 502.923 675.225 488.651 660.613 481.708 646.88 473.855 618.852 455.52 596.327 442.238 582.339 432.742 572.267 424.735 558.813 412.313 544.662 397.849 570.146 419.458 577.592 425.281 585.495 430.908 599.472 440.016 619.63 451.379 640.971 464.478 657.444 473.579 671.456 480.477 696.843 490.859 713.428 497.049 724.396 500.374 732.982 502.178 741.98 503.37 757.58 504.47 774.013 504.563 814.053 502.45 821.742 502.486 829.537 502.922 841.383 504.222 849.296 505.501 857.067 507.257 868.281 510.801"/><polyline points="924.601 379.722 916.758 382.925 908.953 385.629 895.44 388.937 886.897 390.275 881.074 390.83 872.148 391.133 866.066 390.922 836.164 388.412 825.003 387.023 805.972 383.665 778.628 378.318 762.891 375.952 718.175 371.255 687.891 367.492 674.796 366.734 661.824 366.956 641.43 368.107 622.563 369.628 611.785 371.133 601.532 373.235 588.82 376.68 574.054 381.889 559.727 387.788 545.527 394.592 577.668 377.716 593.047 370.787 606.892 365.305 617.884 361.388 629.211 357.989 640.72 355.097 648.474 353.435 672.341 349.172 692.967 346.002 709.74 344.092 738.776 341.893 758.287 339.685 809.121 333.399 816.236 332.19 826.755 329.718 836.982 326.552 849.981 321.642 882.534 306.637 890.656 302.509 914.514 288.536"/><polyline points="920.759 310.748 893.556 323.272 856.943 337.393 840.02 343.133 825.763 347.088 818.454 348.573 807.52 350.186 778.335 353.216 751.919 354.351 740.009 354.277 715.002 353.423 697.747 353.827 676.359 355.602 635.812 360.764 628.035 362.221 616.687 364.989 609.375 367.195 598.908 370.935 586.144 376.273 556.387 390.349 545.486 394.953 559.111 389.454 583.358 377.705 595.581 372.417 609.282 367.688 616.698 365.828 624.378 364.339 636.254 362.648 648.482 361.6 669.563 360.692 687.036 360.289 704.516 360.41 717.564 360.866 758.776 364.584 774.132 365.399 789.134 365.12 818.542 362.624 829.75 361.208 837.156 359.889 847.921 357.435 861.696 353.809 893.496 344.435 926.4 332.579"/><polyline points="927.223 349.146 891.547 360.951 876.147 364.979 859.783 368.376 846.254 370.611 835.607 371.829 821.035 372.812 791.529 373.805 776.396 373.238 760.836 371.537 736.468 367.591 723.648 366.071 706.041 364.6 675.019 362.556 661.731 362.063 648.792 362.038 640.41 362.397 628.2 363.479 620.302 364.53 612.664 365.955 605.423 367.924 598.626 370.26 583.121 376.766 556.361 390.21 545.337 394.806 555.767 390.071 581.81 376.808 597.076 370.245 607.291 366.855 614.645 365.078 622.383 363.765 630.4 362.87 642.831 362.169 651.41 362.116 664.73 362.622 678.318 363.663 696.48 365.623 719.008 368.591 736.407 371.366 760.945 375.79 776.638 377.9 795.645 379.527 817.8 380.017 832.021 379.696 845.867 378.98 862.138 377.355 874.745 375.634 880.865 374.472 889.785 372.236 925.532 361.45"/><polyline points="888.583 222.688 873.382 236.164 861.825 244.972 849.058 252.857 835.283 259.799 823.349 264.594 778.825 279.863 724.977 299.942 693.583 310.948 671.415 319.272 650.475 327.993 603.888 350.842 587.727 359.475 575.804 367.151 564.92 375.657 544.948 393.663 561.412 378.378 571.477 370.002 582.769 362.305 598.049 353.691 641.631 332.488 678.085 316.149 688.627 311.827 710.43 303.75 725.357 297.788 764.817 279.675 805.029 264.165 819.603 257.841 830.492 251.998 838.165 247.087 847.599 240.189 872.459 220.902"/><polyline points="858.021 221.629 841.984 233.074 819.524 250.048 809.445 256.656 798.688 262.759 783.959 269.748 764.424 277.964 754.25 282.571 744.026 287.528 720.451 299.727 682.913 316.167 630.705 342.072 621.928 346.021 600.248 354.885 585.216 362.617 573.678 369.526 565.767 375.2 553.886 385.205 544.896 393.786 553.992 385.835 561.148 380.281 568.839 375.053 579.981 368.552 588.723 364.111 597.626 360.137 621.901 351.576 633.103 346.358 657.793 331.929 677.834 319.074 689.931 312.014 739.076 286.15 752.189 279.473 771.292 270.363 783.107 263.915 793.514 256.829 828.678 228.422 844.276 216.724"/><polyline points="802.072 191.851 793.863 199.147 745.733 245.077 736.415 253.489 723.827 263.406 702.251 278.683 696.96 282.97 689.295 289.805 679.897 299.363 665.316 316.153 657.174 324.912 640.674 341.774 631.554 349.934 624.026 355.249 618.647 358.332 610.294 362.262 588.167 371.57 571.896 379.183 555.907 387.378 545.258 393.984 553 388.509 563.49 382.196 610.962 357.036 618.748 352.087 625.989 346.32 630.416 342.072 636.508 335.172 658.29 308.432 672.614 288.916 681.06 279.621 692.54 268.605 716.058 248.926 735.64 230.817 767.854 202.56 784.779 186.212"/></g></svg>