<svg xmlns="http://www.w3.org/2000/svg" xmlns:ev="http://www.w3.org/2001/xml-events" xmlns:xlink="http://www.w3.org/1999/xlink" width="960" height="960" baseProfile="tiny" version="1.2" viewBox="0 0 960 960"><metadata/><g id="layer1" fill="none" stroke="#00f" style="display:inline"><polygon points="473.691 489.421 471.949 487.984 470.527 486.231 469.48 484.23 468.663 480.188 468.85 477.938 469.48 475.77 470.527 473.769 471.949 472.016 473.691 470.579 475.683 469.515 477.846 468.868 480.094 468.662 482.339 468.905 484.491 469.589 486.465 470.685 488.182 472.151 490.448 475.596 491.114 477.753 491.339 480 491.114 482.247 490.448 484.404 488.182 487.849 486.465 489.315 484.491 490.411 482.339 491.095 480.094 491.338 477.846 491.132 475.683 490.485"/><line x1="463.289" x2="454.934" y1="495.33" y2="502.995"/><line x1="452.138" x2="442.85" y1="499.513" y2="506.017"/><line x1="442.971" x2="433.714" y1="506.189" y2="512.737"/><line x1="429.706" x2="419.647" y1="506.164" y2="511.397"/><line x1="421.415" x2="411.651" y1="514.585" y2="520.349"/><line x1="406.655" x2="396.177" y1="510.333" y2="514.667"/><line x1="401.042" x2="391.172" y1="524.651" y2="530.232"/><line x1="381.36" x2="371.496" y1="535.915" y2="541.507"/><line x1="377.007" x2="367.644" y1="550.346" y2="556.741"/><line x1="373.142" x2="364.237" y1="564.229" y2="571.248"/><line x1="362.229" x2="353.17" y1="568.641" y2="575.46"/><line x1="357.237" x2="348.468" y1="580.636" y2="587.824"/><line x1="348.826" x2="340.081" y1="588.26" y2="595.477"/><line x1="325.938" x2="335.567" y1="575.798" y2="569.81"/><line x1="334.17" x2="343.892" y1="567.524" y2="561.689"/><line x1="340.085" x2="350.079" y1="554.981" y2="549.625"/><line x1="350.481" x2="360.445" y1="550.372" y2="544.959"/><line x1="354.496" x2="364.955" y1="532.553" y2="528.174"/><line x1="374.08" x2="384.672" y1="520.463" y2="516.417"/><line x1="371.646" x2="360.811" y1="513.403" y2="516.744"/><polygon points="360.732 516.488 357.686 504.402 355.861 492.072 355.276 480 355.861 467.928 357.613 455.969 360.513 444.235 364.68 432.488 369.997 421.216 376.204 410.844 383.385 401.122 391.74 391.873 400.976 383.504 410.687 376.309 421.049 370.087 432.314 364.752 443.693 360.677 455.783 357.649 467.74 355.88 479.811 355.276 491.884 355.843 503.846 357.576 515.584 360.459 527.337 364.608 538.618 369.908 548.998 376.099 558.731 383.265 567.993 391.606 576.376 400.83 583.586 410.53 589.824 420.883 595.176 432.139 599.378 443.873 602.314 455.598 604.139 467.928 604.724 480 604.139 492.072 602.314 504.402 599.268 516.488 595.176 527.861 590.003 538.784 583.796 549.156 576.615 558.878 568.26 568.127 559.024 576.496 549.313 583.691 538.618 590.092 527.686 595.248 516.307 599.323 504.587 602.277 492.636 604.083 480.189 604.724 468.116 604.157 456.154 602.424 444.054 599.432 432.663 595.392 421.382 590.092 411.002 583.901 400.976 576.496 392.007 568.394 383.865 559.462 376.414 549.47 370.176 539.117 364.824 527.861"/><line x1="351.186" x2="340.452" y1="523.819" y2="527.471"/><line x1="340.973" x2="330.279" y1="528.977" y2="532.744"/><line x1="333.449" x2="322.981" y1="541.001" y2="545.358"/><line x1="324.885" x2="314.544" y1="549.758" y2="554.408"/><polygon points="320.071 565.644 315.991 557.544 312.465 549.6 309.196 541.14 306.463 532.889 304.037 524.15 302.05 515.3 300.564 506.736 299.452 497.735 298.809 489.067 298.583 480 298.809 470.933 299.452 462.265 300.564 453.264 302.05 444.7 303.945 436.217 306.353 427.473 309.069 419.216 312.32 410.749 315.991 402.455 319.893 394.689 324.357 386.794 329 379.446 334.214 372.025 339.553 365.166 345.468 358.29 351.719 351.719 358.01 345.721 364.874 339.793 372.025 334.214 379.131 329.209 386.794 324.357 394.689 319.893 402.455 315.991 410.749 312.32 418.86 309.196 427.473 306.353 436.217 303.945 444.7 302.05 453.264 300.564 462.265 299.452 470.933 298.809 480 298.583 489.067 298.809 497.735 299.452 506.736 300.564 515.3 302.05 524.15 304.037 532.527 306.353 541.14 309.196 549.251 312.32 557.544 315.991 565.311 319.893 573.206 324.357 580.554 329 587.975 334.214 595.126 339.793 601.99 345.721 608.281 351.719 614.279 358.01 620.207 364.874 625.786 372.025 630.79 379.131 635.449 386.47 639.929 394.356 643.847 402.114 647.535 410.4 650.804 418.86 653.537 427.111 655.871 435.484 657.876 444.329 659.436 453.264 660.548 462.265 661.191 470.933 661.417 480 661.191 489.067 660.548 497.735 659.436 506.736 657.95 515.3 656.055 523.783 653.647 532.527 650.804 541.14 647.68 549.251 644.009 557.544 640.107 565.311 635.643 573.206 631 580.554 626.011 587.671 620.447 594.834 614.532 601.71 608.281 608.281 601.99 614.279 595.126 620.207 587.975 625.786 580.869 630.79 573.53 635.449 565.644 639.929 557.544 644.009 549.6 647.535 541.14 650.804 532.889 653.537 524.516 655.871 515.671 657.876 506.736 659.436 497.735 660.548 489.067 661.191 480 661.417 470.933 661.191 462.265 660.548 453.264 659.436 444.7 657.95 436.217 656.055 427.473 653.647 418.86 650.804 410.749 647.68 402.455 644.009 394.689 640.107 386.794 635.643 379.446 631 372.025 625.786 364.874 620.207 358.29 614.532 351.719 608.281 345.468 601.71 339.793 595.126 334.214 587.975 329.209 580.869 324.357 573.206"/><line x1="306.103" x2="316.971" y1="531.691" y2="528.461"/><line x1="315.138" x2="326.128" y1="521.799" y2="519.013"/><line x1="323.982" x2="335.126" y1="509.271" y2="507.18"/><line x1="334.436" x2="345.634" y1="503.204" y2="501.419"/><line x1="346.486" x2="357.612" y1="506.214" y2="504.029"/><line x1="355.699" x2="366.999" y1="490.262" y2="489.329"/><line x1="367.091" x2="378.382" y1="490.385" y2="489.347"/><polygon points="378.444 489.997 377.953 480.189 378.444 470.003 379.948 459.918 382.342 450.394 385.784 440.796 390.167 431.588 395.236 423.178 401.33 415.002 407.942 407.742 415.513 400.911 423.414 395.079 432.171 389.855 441.057 385.675 450.666 382.26 460.196 379.893 469.909 378.453 480.094 377.953 489.902 378.434 499.99 379.93 509.877 382.424 519.117 385.748 528.328 390.122 536.744 395.184 544.633 401.03 552.192 407.875 558.79 415.148 564.869 423.335 570.1 432.088 574.288 440.97 577.603 450.214 580.089 460.103 581.538 469.815 582.047 480 581.538 490.185 580.089 499.897 577.603 509.786 574.288 519.03 570.1 527.912 564.869 536.665 558.79 544.852 552.192 552.125 544.925 558.73 536.744 564.816 528.328 569.878 519.117 574.252 509.877 577.576 499.99 580.07 489.902 581.566 480.094 582.047 469.909 581.547 460.196 580.107 450.666 577.74 441.057 574.324 432.171 570.145 423.414 564.921 415.221 558.85 407.942 552.258 401.33 544.998 395.236 536.822 390.167 528.412 385.784 519.205 382.342 509.606 379.948 500.082"/><line x1="379.675" x2="390.822" y1="498.668" y2="496.594"/><line x1="389.314" x2="400.65" y1="482.046" y2="481.79"/><line x1="400.729" x2="412.053" y1="483.964" y2="483.398"/><line x1="412.253" x2="423.544" y1="473.783" y2="474.819"/><line x1="425.547" x2="436.437" y1="464.223" y2="467.378"/><polygon points="436.671 466.597 438.08 462.687 440.018 458.589 442.146 455.019 444.829 451.365 447.863 447.997 451.218 444.948 454.861 442.25 458.756 439.929 462.513 438.152 466.417 436.728 470.805 435.588 475.284 434.892 479.811 434.646 484.34 434.854 488.454 435.44 492.86 436.507 497.138 438.008 501.244 439.929 505.139 442.25 508.782 444.948 511.869 447.73 514.689 450.783 517.433 454.392 519.802 458.256 521.774 462.339 523.329 466.597 524.45 470.99 525.128 475.472 525.354 480 525.128 484.528 524.524 488.64 523.439 493.041 521.92 497.313 519.982 501.411 517.855 504.981 515.172 508.635 512.137 512.004 508.782 515.052 505.139 517.75 501.244 520.071 497.487 521.847 493.222 523.384 489.195 524.412 484.716 525.109 480.189 525.354 475.66 525.146 471.546 524.559 467.14 523.493 462.862 521.992 458.756 520.071 454.861 517.75 451.218 515.052 447.863 512.004 444.829 508.635 442.146 504.981 439.841 501.077 438.08 497.313 436.671 493.403 435.55 489.01 434.872 484.528 434.646 480 434.872 475.472 435.55 470.99"/><line x1="443.776" x2="452.832" y1="452.708" y2="459.531"/><line x1="458.381" x2="469.19" y1="473.153" y2="476.577"/><polygon points="461.391 492.96 459.187 489.005 457.813 484.69 457.324 480.189 457.669 476.052 458.899 471.694 460.969 467.668 463.799 464.133 467.274 461.23 471.256 459.076 475.587 457.756 479.716 457.325 484.227 457.72 488.569 459.004 492.569 461.125 496.068 463.998 498.716 467.196 500.887 471.169 502.225 475.495 502.677 480 502.225 484.505 500.887 488.831 498.927 492.49 496.068 496.002 492.569 498.875 488.569 500.996 484.598 502.206 480.094 502.677 475.959 502.314 471.606 501.067 467.588 498.979 464.065 496.135"/><line x1="490.81" x2="512.447" y1="483.423" y2="490.211"/><line x1="514.011" x2="525.347" y1="480.591" y2="480.787"/><line x1="524.725" x2="535.906" y1="472.47" y2="470.588"/><line x1="535.628" x2="546.754" y1="469.065" y2="466.878"/><line x1="545.159" x2="556.019" y1="460.44" y2="457.18"/><line x1="557.67" x2="568.766" y1="463.66" y2="461.326"/><line x1="579.399" x2="590.443" y1="456.903" y2="454.337"/><line x1="591.33" x2="602.463" y1="458.508" y2="456.358"/><line x1="604.191" x2="615.481" y1="468.476" y2="467.428"/><line x1="615.699" x2="627.007" y1="470.053" y2="469.224"/><line x1="626.529" x2="637.801" y1="463.99" y2="462.758"/><line x1="636.309" x2="647.474" y1="452.323" y2="450.346"/><line x1="645.901" x2="656.962" y1="442.537" y2="440.039"/><polygon points="644.933 438.479 646.838 446.958 648.254 455.149 649.267 463.4 649.876 471.69 650.079 480 649.876 488.31 649.267 496.6 648.254 504.851 646.838 513.042 644.933 521.52 642.707 529.529 640.093 537.42 637.096 545.174 633.724 552.771 629.985 560.195 625.888 567.428 621.442 574.451 616.658 581.249 611.308 588.097 605.869 594.384 600.13 600.397 594.104 606.123 587.806 611.548 581.249 616.658 574.451 621.442 567.428 625.888 560.195 629.985 552.771 633.724 545.174 637.096 537.42 640.093 529.529 642.707 521.52 644.933 513.042 646.838 504.851 648.254 496.6 649.267 488.31 649.876 480 650.079 471.69 649.876 463.4 649.267 455.149 648.254 446.958 646.838 438.479 644.933 430.471 642.707 422.58 640.093 414.826 637.096 407.229 633.724 399.805 629.985 392.572 625.888 385.549 621.442 378.751 616.658 371.902 611.308 365.616 605.869 359.603 600.13 353.877 594.104 348.452 587.806 343.342 581.249 338.558 574.451 334.113 567.428 330.015 560.195 326.276 552.771 322.76 544.824 319.78 537.064 317.183 529.168 314.975 521.154 313.162 513.042 311.747 504.851 310.733 496.6 310.124 488.31 309.921 480 310.124 471.69 310.733 463.4 311.802 454.776 313.236 446.588 315.067 438.479 317.293 430.471 319.907 422.58 322.904 414.826 326.276 407.229 330.015 399.805 334.113 392.572 338.558 385.549 343.342 378.751 348.452 372.195 353.877 365.896 359.603 359.87 365.616 354.131 371.902 348.692 378.751 343.342 385.549 338.558 392.572 334.113 399.805 330.015 407.229 326.276 414.826 322.904 422.58 319.907 430.471 317.293 438.479 315.067 446.588 313.236 454.776 311.802 463.4 310.733 471.69 310.124 480 309.921 488.31 310.124 496.6 310.733 504.851 311.747 513.412 313.236 521.52 315.067 529.529 317.293 537.42 319.907 545.174 322.904 552.771 326.276 560.195 330.015 567.428 334.113 574.451 338.558 581.249 343.342 587.806 348.452 594.104 353.877 600.13 359.603 605.869 365.616 611.308 371.902 616.433 378.447 621.231 385.235 625.693 392.248 629.806 399.472 633.724 407.229 637.096 414.826 640.093 422.58 642.707 430.471"/><line x1="633.32" x2="622.368" y1="438.872" y2="441.81"/><line x1="623.071" x2="612.066" y1="444.535" y2="447.263"/><line x1="610.177" x2="599.329" y1="440.413" y2="443.712"/><line x1="594.518" x2="584.107" y1="430.585" y2="435.077"/><line x1="579.424" x2="569.482" y1="425.491" y2="430.942"/><line x1="556.026" x2="546.522" y1="430.521" y2="436.706"/><polygon points="541.204 429.466 545.941 435.826 549.842 442.294 553.256 449.452 555.939 456.915 557.789 464.238 558.974 472.079 559.37 480 558.974 487.921 557.789 495.762 555.939 503.085 553.256 510.548 549.842 517.706 545.941 524.174 541.204 530.534 536.123 536.123 530.534 541.204 524.174 545.941 517.706 549.842 510.548 553.256 503.085 555.939 495.762 557.789 487.921 558.974 480 559.37 472.079 558.974 464.238 557.789 456.915 555.939 449.452 553.256 442.294 549.842 435.826 545.941 429.466 541.204 423.877 536.123 418.556 530.242 414.059 524.174 410.158 517.706 406.744 510.548 404.061 503.085 402.137 495.392 400.989 487.545 400.63 480 401.026 472.079 402.211 464.238 404.061 456.915 406.744 449.452 410.158 442.294 414.059 435.826 418.556 429.758 423.877 423.877 429.466 418.796 435.826 414.059 442.294 410.158 449.452 406.744 456.915 404.061 464.608 402.137 472.455 400.989 480 400.63 487.545 400.989 495.392 402.137 503.085 404.061 510.199 406.599 517.373 409.98 524.174 414.059 530.534 418.796 536.123 423.877"/><line x1="536.707" x2="528.606" y1="424.466" y2="432.4"/><line x1="529.063" x2="520.886" y1="432.871" y2="440.726"/><line x1="507.498" x2="501.999" y1="430.423" y2="440.338"/><line x1="494.762" x2="491.072" y1="437.115" y2="447.837"/><line x1="472.619" x2="475.079" y1="446.795" y2="457.863"/><line x1="462.707" x2="458.384" y1="438.072" y2="427.59"/><line x1="461.26" x2="457.512" y1="426.494" y2="415.793"/><line x1="468.437" x2="466.51" y1="412.958" y2="401.785"/><line x1="470.896" x2="469.596" y1="401.154" y2="389.89"/><line x1="470.827" x2="469.681" y1="389.756" y2="378.476"/><line x1="477.61" x2="477.344" y1="377.981" y2="366.645"/><line x1="489.075" x2="489.983" y1="366.978" y2="355.676"/><line x1="487.415" x2="488.089" y1="355.496" y2="344.178"/><line x1="498.865" x2="500.437" y1="345.251" y2="334.022"/><line x1="492.18" x2="493.117" y1="333.103" y2="321.803"/><line x1="492.759" x2="493.67" y1="321.773" y2="310.471"/><line x1="504.666" x2="506.311" y1="311.719" y2="300.501"/><line x1="518.208" x2="515.661" y1="314.269" y2="325.317"/><line x1="517.112" x2="514.461" y1="325.659" y2="336.683"/><line x1="524.814" x2="521.366" y1="339.576" y2="350.378"/><line x1="515.264" x2="512.325" y1="348.586" y2="359.537"/><line x1="516.475" x2="513.159" y1="360.728" y2="371.571"/><line x1="508.025" x2="505.223" y1="370.132" y2="381.119"/><line x1="503.205" x2="500.626" y1="380.626" y2="391.668"/><line x1="502.85" x2="499.994" y1="392.216" y2="403.189"/><line x1="504.404" x2="500.917" y1="404.475" y2="415.264"/><line x1="495.795" x2="493.162" y1="413.827" y2="424.856"/><polygon points="473.114 412.318 479.906 411.969 486.698 412.299 493.423 413.306 499.652 414.869 506.056 417.156 512.2 420.071 517.708 423.375 523.172 427.422 528.206 431.995 532.518 436.755 536.573 442.214 540.062 448.05 542.808 453.856 545.104 460.257 546.676 466.485 547.692 473.208 548.032 480 547.692 486.792 546.676 493.515 545.104 499.743 542.808 506.144 540.062 511.95 536.573 517.787 532.757 522.953 528.206 528.005 523.464 532.337 518.022 536.415 512.2 539.929 506.056 542.844 500.014 545.021 493.423 546.694 486.698 547.701 479.906 548.031 473.49 547.719 466.762 546.731 460.167 545.076 453.769 542.771 447.634 539.839 442.135 536.52 436.682 532.458 431.928 528.139 427.362 523.099 423.323 517.629 419.849 511.783 417.12 505.969 414.951 499.924 413.287 493.33 412.29 486.604 411.969 480.189 412.29 473.396 413.214 467.041 414.842 460.438 416.977 454.381 419.849 448.217 423.323 442.371 427.124 437.194 431.661 432.129 436.682 427.542 441.822 423.691 447.634 420.161 453.769 417.229 460.167 414.924 466.762 413.269"/><line x1="443.029" x2="437.747" y1="409.767" y2="399.733"/><line x1="442.022" x2="437.275" y1="397.624" y2="387.327"/><polygon points="445.375 396.16 453.556 393.232 462.35 391.025 470.945 389.745 480 389.291 489.055 389.745 498.021 391.099 506.444 393.232 514.974 396.305 523.155 400.215 530.591 404.71 537.563 409.896 544.274 415.993 550.343 422.729 555.5 429.723 560.142 437.511 563.84 445.375 566.768 453.556 568.975 462.35 570.293 471.321 570.709 480 570.255 489.055 568.901 498.021 566.768 506.444 563.695 514.974 559.965 522.822 555.29 530.591 550.104 537.563 544.007 544.274 537.271 550.343 530.277 555.5 522.489 560.142 514.625 563.84 506.444 566.768 497.65 568.975 488.679 570.293 480 570.709 470.945 570.255 461.979 568.901 453.556 566.768 445.026 563.695 437.178 559.965 429.409 555.29 422.145 549.863 415.726 544.007 409.896 537.563 404.5 530.277 399.858 522.489 396.16 514.625 393.232 506.444 391.025 497.65 389.745 489.055 389.291 480 389.745 470.945 391.025 462.35 393.122 453.917 396.16 445.375 399.858 437.511 404.5 429.723 409.896 422.437 415.993 415.726 422.437 409.896 429.723 404.5 437.511 399.858"/><line x1="450.174" x2="446.86" y1="382.409" y2="371.565"/><line x1="440.779" x2="436.858" y1="373.613" y2="362.975"/><line x1="437.715" x2="433.871" y1="362.662" y2="351.995"/><line x1="430.753" x2="426.649" y1="353.162" y2="342.592"/><line x1="425.734" x2="421.56" y1="342.951" y2="332.409"/><line x1="424.392" x2="420.42" y1="331.318" y2="320.698"/><line x1="415.464" x2="411.162" y1="322.641" y2="312.15"/><line x1="397.861" x2="403.337" y1="331.071" y2="341"/><line x1="399.715" x2="405.45" y1="343.059" y2="352.841"/><line x1="404.195" x2="410.026" y1="353.585" y2="363.309"/><line x1="409.048" x2="414.961" y1="363.901" y2="373.576"/><line x1="412.709" x2="424.95" y1="374.985" y2="394.075"/><line x1="409.499" x2="417.333" y1="406.221" y2="414.419"/><line x1="411.604" x2="420.154" y1="420.417" y2="427.865"/><line x1="426.369" x2="435.307" y1="438.143" y2="445.12"/><line x1="418.257" x2="407.967" y1="451.432" y2="446.671"/><line x1="405.362" x2="394.699" y1="453.005" y2="449.148"/><line x1="399.434" x2="389.363" y1="438.32" y2="433.111"/><line x1="388.319" x2="378.132" y1="435.187" y2="430.208"/><line x1="373.525" x2="362.878" y1="441.019" y2="437.121"/><line x1="365.821" x2="355.442" y1="429.806" y2="425.243"/><line x1="352.25" x2="341.604" y1="433.17" y2="429.267"/><line x1="345.866" x2="335.548" y1="418.883" y2="414.182"/><line x1="339.367" x2="329.322" y1="406.374" y2="401.115"/><line x1="331.829" x2="321.951" y1="396.5" y2="390.934"/><line x1="342.413" x2="351.586" y1="380.017" y2="386.683"/><line x1="347.288" x2="356.767" y1="392.902" y2="399.124"/><line x1="352.169" x2="362.002" y1="406.608" y2="412.253"/><line x1="374.834" x2="384.394" y1="412.946" y2="419.042"/><line x1="378.263" x2="369.014" y1="407.85" y2="401.291"/><line x1="375.149" x2="366.411" y1="393.286" y2="386.06"/><line x1="370.558" x2="362.139" y1="381.26" y2="373.665"/><line x1="366.541" x2="358.437" y1="368.98" y2="361.05"/><line x1="359.154" x2="351.098" y1="360.321" y2="352.343"/><line x1="335.233" x2="344.281" y1="370.663" y2="377.496"/><line x1="383.921" x2="391.312" y1="368.214" y2="376.813"/><line x1="387.13" x2="394.869" y1="380.56" y2="388.847"/><line x1="391.707" x2="399.734" y1="391.906" y2="399.914"/><line x1="395.343" x2="403.809" y1="404.57" y2="412.113"/><line x1="431.707" x2="438.606" y1="417.013" y2="426.011"/><line x1="390.266" x2="379.049" y1="466.738" y2="465.081"/><line x1="379.628" x2="368.476" y1="461.584" y2="459.538"/><line x1="367.635" x2="356.399" y1="464.819" y2="463.301"/><line x1="358.055" x2="346.969" y1="453.818" y2="451.437"/><line x1="346.173" x2="335.021" y1="455.433" y2="453.386"/><line x1="333.677" x2="322.421" y1="462.202" y2="460.833"/><line x1="324.118" x2="312.984" y1="450.012" y2="447.87"/><line x1="315.034" x2="304.036" y1="438.613" y2="435.854"/><line x1="319.442" x2="330.146" y1="423.895" y2="427.635"/><polygon points="327.964 434.356 330.435 426.814 333.28 419.406 336.492 412.149 340.062 405.061 348.032 391.779 357.259 379.337 367.654 367.854 373.399 362.379 379.411 357.199 391.858 347.98 405.144 340.018 419.144 333.389 433.722 328.155 448.742 324.368 464.059 322.062 471.972 321.463 479.906 321.26 495.377 322.006 503.254 322.972 511.073 324.331 526.097 328.1 540.682 333.316 547.937 336.532 555.022 340.107 568.299 348.085 580.736 357.318 592.213 367.72 602.622 379.191 611.863 391.622 619.848 404.894 623.427 411.978 626.648 419.231 631.872 433.813 633.991 441.461 635.725 449.205 637.984 464.529 638.74 480 637.984 495.471 635.725 510.795 631.982 525.826 626.792 540.42 620.205 554.439 612.282 567.749 607.731 574.25 602.861 580.516 592.48 592.012 581.027 602.441 568.613 611.705 561.92 615.969 555.022 619.893 541.031 626.539 533.631 629.406 526.097 631.9 511.073 635.669 495.753 637.957 480.284 638.74 464.811 638.012 449.483 635.779 441.736 634.059 434.084 631.955 419.493 626.756 405.478 620.16 392.172 612.23 379.703 603.041 373.679 597.874 367.921 592.413 357.498 580.955 352.606 574.706 348.032 568.221 340.062 554.939 333.425 540.944 328.183 526.368 324.387 511.351 322.072 496.035 321.468 488.122 321.26 480.189 321.997 464.717 324.239 449.39"/><line x1="327.194" x2="338.109" y1="437.003" y2="440.075"/><line x1="322.022" x2="311.49" y1="416.995" y2="412.795"/><line x1="310.989" x2="299.722" y1="460.971" y2="459.702"/><line x1="310.085" x2="321.413" y1="472.531" y2="473.029"/><line x1="321.342" x2="332.675" y1="485.112" y2="484.747"/><line x1="332.609" x2="343.946" y1="478.27" y2="478.403"/><line x1="343.942" x2="355.28" y1="478.801" y2="478.901"/><polygon points="344.579 493.207 343.937 480 344.579 466.793 346.501 453.71 349.683 440.876 354.24 428.062 360.053 415.767 366.855 404.427 374.724 393.801 383.589 383.99 393.655 374.844 404.27 366.96 415.933 359.964 427.887 354.312 440.334 349.847 453.525 346.538 466.605 344.598 479.811 343.937 493.019 344.561 506.104 346.465 518.943 349.629 531.763 354.168 543.733 359.787 555.416 366.75 566.345 374.844 576.144 383.722 585.036 393.509 593.145 404.427 600.125 416.1 605.76 428.062 610.317 440.876 613.499 453.71 615.42 466.793 616.063 480 615.42 493.207 613.426 506.66 610.208 519.486 605.76 531.938 600.125 543.9 593.355 555.258 585.275 566.199 576.411 576.01 566.345 585.156 555.73 593.04 544.4 599.857 532.462 605.543 520.028 610.042 506.846 613.388 493.771 615.364 480.189 616.063 466.605 615.402 453.525 613.462 440.695 610.262 428.237 605.832 415.933 600.036 404.584 593.25 393.655 585.156 383.856 576.278 374.724 566.199 366.855 555.573 359.875 543.9 354.24 531.938 349.683 519.124 346.501 506.29"/><line x1="322.088" x2="310.808" y1="496.193" y2="497.35"/><line x1="311.967" x2="300.765" y1="506.299" y2="508.052"/><line x1="298.625" x2="309.961" y1="483.912" y2="483.667"/><line x1="388.924" x2="398.032" y1="547.539" y2="540.785"/><line x1="395.686" x2="387.255" y1="555.813" y2="563.394"/><line x1="393.276" x2="385.392" y1="569.639" y2="577.788"/><line x1="388.914" x2="381.324" y1="581.077" y2="589.5"/><line x1="377.141" x2="369.228" y1="585.58" y2="593.702"/><line x1="373.197" x2="365.569" y1="597.438" y2="605.826"/><line x1="364.426" x2="356.721" y1="604.778" y2="613.096"/><line x1="375.561" x2="382.089" y1="628.34" y2="619.069"/><line x1="385.109" x2="391.435" y1="621.147" y2="611.737"/><line x1="387.883" x2="394.463" y1="609.278" y2="600.044"/><line x1="401.248" x2="407.306" y1="604.601" y2="595.016"/><line x1="407.013" x2="413.095" y1="594.83" y2="585.261"/><line x1="407.351" x2="413.955" y1="581.382" y2="572.165"/><line x1="410.524" x2="417.471" y1="569.607" y2="560.646"/><line x1="412.295" x2="419.818" y1="556.353" y2="547.869"/><line x1="414.361" x2="422.565" y1="542.606" y2="534.78"/><line x1="438.231" x2="444.198" y1="547.491" y2="537.849"/><line x1="446.202" x2="451.835" y1="539.042" y2="529.202"/><line x1="446.233" x2="441.409" y1="551.829" y2="562.09"/><line x1="445.116" x2="440.755" y1="563.733" y2="574.199"/><line x1="441.548" x2="437.276" y1="574.526" y2="585.028"/><line x1="435.312" x2="430.843" y1="584.208" y2="594.629"/><line x1="435.654" x2="431.622" y1="596.574" y2="607.172"/><line x1="427.79" x2="423.439" y1="605.647" y2="616.118"/><line x1="413.79" x2="408.697" y1="611.695" y2="621.825"/><line x1="411.56" x2="406.671" y1="623.228" y2="633.459"/><line x1="401.498" x2="396.265" y1="630.878" y2="640.937"/><line x1="418.463" x2="422.309" y1="650.662" y2="639.995"/><line x1="429.796" x2="433.143" y1="642.5" y2="631.667"/><line x1="431.182" x2="434.669" y1="631.047" y2="620.258"/><line x1="447.257" x2="449.775" y1="623.719" y2="612.663"/><line x1="458.212" x2="460.028" y1="614.307" y2="603.115"/><line x1="456.634" x2="458.758" y1="602.516" y2="591.378"/><line x1="467.196" x2="468.477" y1="592.661" y2="581.394"/><line x1="473.468" x2="474.194" y1="581.838" y2="570.523"/><line x1="473.669" x2="475.183" y1="570.487" y2="547.861"/><line x1="483.488" x2="482.907" y1="547.942" y2="536.618"/><line x1="476.736" x2="477.389" y1="536.599" y2="525.279"/><line x1="493.264" x2="489.948" y1="523.371" y2="512.529"/><line x1="513.772" x2="522.216" y1="510.273" y2="517.841"/><line x1="533.112" x2="541.964" y1="522.514" y2="529.599"/><line x1="548.407" x2="558.179" y1="520.251" y2="526.001"/><line x1="552.607" x2="561.683" y1="534.372" y2="541.168"/><line x1="564.725" x2="574.139" y1="536.88" y2="543.199"/><line x1="568.454" x2="577.3" y1="550.938" y2="558.032"/><line x1="573.916" x2="582.454" y1="562.073" y2="569.534"/><line x1="577.12" x2="585.213" y1="575.294" y2="583.235"/><line x1="581.563" x2="589.375" y1="586.828" y2="595.045"/><line x1="585.052" x2="600.088" y1="599.006" y2="615.982"/><line x1="617.141" x2="608.57" y1="598.763" y2="591.34"/><line x1="609.922" x2="601.26" y1="589.759" y2="582.442"/><line x1="605.655" x2="596.68" y1="577.001" y2="570.072"/><line x1="601.146" x2="591.827" y1="563.969" y2="557.51"/><line x1="598.38" x2="588.515" y1="547.077" y2="541.488"/><line x1="591.799" x2="581.636" y1="535.291" y2="530.264"/><line x1="587.699" x2="576.929" y1="515.457" y2="511.912"/><line x1="577.118" x2="566.327" y1="511.332" y2="507.85"/><line x1="569.517" x2="558.328" y1="494.653" y2="492.821"/><line x1="557.916" x2="546.785" y1="495.122" y2="492.962"/><line x1="543.251" x2="532.709" y1="505.051" y2="500.876"/><line x1="513.055" x2="519.667" y1="526.059" y2="535.271"/><line x1="529.247" x2="536.283" y1="542.244" y2="551.136"/><line x1="531.018" x2="537.396" y1="555.001" y2="564.376"/><line x1="546.237" x2="553.597" y1="557.629" y2="566.254"/><line x1="551.137" x2="558.25" y1="568.294" y2="577.124"/><line x1="555.472" x2="562.334" y1="579.298" y2="588.325"/><line x1="559.618" x2="566.253" y1="590.336" y2="599.531"/><line x1="564.065" x2="570.532" y1="601.079" y2="610.393"/><line x1="566.605" x2="572.792" y1="613.034" y2="622.536"/><line x1="574.586" x2="580.892" y1="621.351" y2="630.775"/><line x1="559.895" x2="554.902" y1="642.877" y2="632.697"/><line x1="551.049" x2="546.313" y1="634.528" y2="624.226"/><line x1="549.567" x2="544.598" y1="622.685" y2="612.493"/><line x1="544.812" x2="539.826" y1="612.388" y2="602.205"/><line x1="538.843" x2="533.939" y1="602.681" y2="592.458"/><line x1="535.542" x2="530.493" y1="591.675" y2="581.522"/><line x1="527.597" x2="522.837" y1="582.912" y2="572.621"/><line x1="506.889" x2="503.901" y1="578.441" y2="567.503"/><line x1="506.785" x2="503.437" y1="566.664" y2="555.831"/><line x1="511.816" x2="507.271" y1="552.714" y2="542.326"/><line x1="496.26" x2="498.067" y1="580.744" y2="591.937"/><line x1="507.488" x2="512.942" y1="590.003" y2="612.015"/><line x1="518.313" x2="521.505" y1="610.558" y2="621.437"/><line x1="523.615" x2="526.971" y1="620.801" y2="631.632"/><line x1="524.606" x2="527.793" y1="632.344" y2="643.226"/><line x1="533.881" x2="537.473" y1="641.318" y2="652.073"/><line x1="514.025" x2="511.899" y1="658.198" y2="647.061"/><line x1="503.517" x2="501.95" y1="648.445" y2="637.215"/><line x1="503.274" x2="501.611" y1="637.025" y2="625.809"/><line x1="497.005" x2="495.697" y1="626.417" y2="615.154"/><line x1="485.694" x2="485.219" y1="615.944" y2="604.615"/><line x1="483.518" x2="483.198" y1="604.675" y2="593.341"/><polygon points="469.151 592.866 458.308 591.292 447.306 588.57 436.98 584.908 427.056 580.266 417.311 574.48 408.485 567.988 400.058 560.409 392.43 552.027 385.887 543.239 380.223 533.861 375.345 523.631 371.512 512.965 368.837 502.341 367.162 491.131 366.614 480.189 367.162 468.869 368.763 458.03 371.512 447.035 375.2 436.718 380.044 426.472 385.677 417.075 392.191 408.265 399.791 399.858 408.192 392.25 416.996 385.73 426.389 380.089 436.631 375.236 446.945 371.539 457.937 368.781 468.775 367.171 480.094 366.614 491.413 367.19 502.248 368.818 512.875 371.485 523.194 375.164 533.444 380 542.846 385.625 551.954 392.37 560.076 399.724 567.449 407.827 574.218 416.918 580.045 426.639 584.728 436.544 588.543 447.216 591.2 457.845 592.856 469.057 593.386 480 592.819 491.319 591.2 502.155 588.543 512.784 584.728 523.456 580.045 533.361 574.218 543.082 567.69 551.881 560.343 560.009 552.246 567.389 543.161 574.165 533.444 580 523.544 584.692 513.236 588.405 502.248 591.182 491.037 592.847 480.094 593.386"/><line x1="472.63" x2="472.016" y1="615.863" y2="627.185"/><line x1="479.1" x2="479.031" y1="627.399" y2="638.737"/><line x1="478.825" x2="478.741" y1="638.736" y2="650.074"/><line x1="489.347" x2="489.97" y1="649.822" y2="661.143"/><line x1="465.737" x2="466.629" y1="660.856" y2="649.552"/><line x1="453.992" x2="455.725" y1="648.078" y2="636.873"/><line x1="454.811" x2="456.611" y1="636.729" y2="625.534"/><line x1="444.149" x2="441.759" y1="646.257" y2="657.341"/><polygon points="425.781 496.564 424.474 491.442 423.609 485.845 423.307 480.189 423.536 474.907 424.326 469.299 425.672 463.797 427.56 458.457 429.794 453.666 432.672 448.788 436.023 444.222 439.812 440.012 444.002 436.202 448.239 433.039 453.083 430.105 458.195 427.668 463.165 425.864 468.651 424.455 474.249 423.599 479.906 423.307 485.563 423.581 491.164 424.417 496.655 425.809 501.63 427.596 506.751 430.015 511.605 432.934 516.143 436.322 520.054 439.879 523.858 444.075 527.014 448.317 529.94 453.166 532.368 458.283 534.164 463.255 535.564 468.743 536.41 474.343 536.693 480 536.41 485.657 535.564 491.257 534.274 496.384 532.368 501.717 530.118 506.501 527.223 511.369 523.858 515.924 520.054 520.121 516.143 523.678 511.605 527.066 507.083 529.805 501.979 532.259 496.655 534.191 491.164 535.583 485.563 536.419 480.283 536.692 474.625 536.438 469.021 535.62 463.888 534.355 458.545 532.476 453.75 530.25 448.867 527.38 444.295 524.037 440.079 520.255 436.262 516.07 433.092 511.84 430.149 507 427.704 501.892"/><polygon points="513.339 473.248 514.016 480 513.339 486.752 511.48 492.886 508.504 498.563 504.252 503.852 499.035 508.191 493.061 511.408 486.937 513.301 480.189 514.015 473.433 513.376 466.939 511.408 461.279 508.401 456.014 504.119 451.704 498.878 448.665 493.235 446.661 486.752 445.984 480 446.588 473.619 448.52 467.114 451.704 461.122 456.014 455.881 460.965 451.809 466.939 448.592 473.063 446.699 479.811 445.985 486.567 446.624 493.061 448.592 499.035 451.809 503.986 455.881 508.085 460.808 511.335 466.765"/><line x1="565.231" x2="575.884" y1="448.954" y2="445.074"/><line x1="589.582" x2="599.543" y1="420.434" y2="415.019"/><line x1="593.616" x2="603.084" y1="405.136" y2="398.898"/><line x1="604.211" x2="613.765" y1="400.634" y2="394.529"/><line x1="609.782" x2="619.052" y1="388.594" y2="382.065"/><line x1="618.112" x2="627.319" y1="380.743" y2="374.126"/><line x1="611.893" x2="603.65" y1="355.435" y2="363.22"/><line x1="603.311" x2="595.09" y1="362.862" y2="370.671"/><line x1="599.15" x2="590.64" y1="375.111" y2="382.603"/><line x1="587.607" x2="579.33" y1="379.263" y2="387.012"/><line x1="584.016" x2="575.348" y1="392.286" y2="399.595"/><line x1="581.218" x2="572.016" y1="407.123" y2="413.748"/><line x1="559.348" x2="550.532" y1="415.833" y2="422.962"/><line x1="552.928" x2="561.031" y1="408.619" y2="400.688"/><line x1="555.623" x2="563.185" y1="395.516" y2="387.067"/><line x1="557.211" x2="564.23" y1="382.048" y2="373.143"/><line x1="562.186" x2="569.035" y1="371.563" y2="362.526"/><line x1="574.476" x2="581.743" y1="366.856" y2="358.152"/><line x1="577.945" x2="584.941" y1="355.079" y2="346.156"/><line x1="586.981" x2="594.114" y1="347.781" y2="338.967"/><line x1="574.298" x2="568.404" y1="325.015" y2="334.702"/><line x1="564.335" x2="558.713" y1="332.303" y2="342.15"/><line x1="561.951" x2="556.097" y1="344.049" y2="353.76"/><line x1="547.901" x2="542.678" y1="349.169" y2="359.233"/><line x1="540.995" x2="535.913" y1="358.375" y2="368.51"/><line x1="541.262" x2="535.693" y1="371.358" y2="381.234"/><line x1="536.628" x2="530.965" y1="381.767" y2="391.591"/><line x1="534.214" x2="528.19" y1="393.545" y2="403.151"/><line x1="533.018" x2="526.391" y1="406.399" y2="415.599"/><line x1="535.935" x2="540.237" y1="343.623" y2="333.133"/><line x1="537.803" x2="541.932" y1="332.158" y2="321.598"/><line x1="548.249" x2="552.799" y1="324.215" y2="313.83"/><line x1="530.001" x2="526.876" y1="305.609" y2="316.509"/><line x1="482.017" x2="482.151" y1="309.933" y2="298.595"/><line x1="468.841" x2="469.585" y1="310.288" y2="321.602"/><line x1="468.815" x2="469.614" y1="321.654" y2="332.965"/><line x1="475.473" x2="475.821" y1="332.668" y2="344.001"/><line x1="460.582" x2="462.2" y1="345.33" y2="356.552"/><line x1="463.023" x2="464.566" y1="356.436" y2="367.67"/><line x1="452.897" x2="450.639" y1="346.664" y2="335.552"/><line x1="447.291" x2="444.774" y1="336.273" y2="325.218"/><line x1="446.633" x2="444.25" y1="324.806" y2="313.721"/><line x1="437.014" x2="434.148" y1="315.443" y2="304.473"/><line x1="457.953" x2="459.331" y1="299.927" y2="311.182"/><line x1="395.066" x2="389.404" y1="332.647" y2="322.823"/><line x1="369.263" x2="376.184" y1="336.301" y2="345.282"/><line x1="377.052" x2="383.915" y1="344.618" y2="353.643"/><line x1="379.752" x2="386.913" y1="356.92" y2="365.711"/><line x1="570.693" x2="582.029" y1="478.311" y2="478.1"/><line x1="581.944" x2="593.272" y1="484.577" y2="485.086"/><line x1="593.348" x2="604.682" y1="482.943" y2="483.237"/><line x1="603.968" x2="615.238" y1="493.711" y2="494.957"/><line x1="615.428" x2="626.714" y1="493.129" y2="494.223"/><line x1="627.256" x2="638.584" y1="486.545" y2="487.048"/><line x1="649.904" x2="661.231" y1="487.698" y2="488.212"/><line x1="648.916" x2="637.655" y1="499.853" y2="498.529"/><line x1="635.649" x2="624.531" y1="511.173" y2="508.947"/><line x1="622.2" x2="611.261" y1="518.813" y2="515.828"/><line x1="609.459" x2="598.671" y1="521.875" y2="518.385"/><line x1="601.072" x2="590.065" y1="509.964" y2="507.24"/><line x1="603.318" x2="613.595" y1="537.496" y2="542.287"/><polygon points="609.726 549.989 602.303 562.274 593.722 573.78 584.062 584.395 573.122 594.261 561.568 602.776 549.24 610.127 536.255 616.245 522.738 621.07 508.815 624.558 494.618 626.675 479.906 627.402 465.57 626.693 451 624.521 437.082 621.015 423.57 616.172 410.26 609.86 397.961 602.461 386.439 593.902 375.805 584.262 366.158 573.634 357.591 562.118 350.185 549.823 343.864 536.517 339.012 523.009 335.498 509.092 333.353 494.9 332.599 480.189 333.279 465.852 335.351 451.649 338.903 437.353 343.719 423.832 349.829 410.844 357.381 398.197 366.158 386.366 375.805 375.738 386.731 365.859 398.275 357.329 410.594 349.962 423.57 343.828 437.082 338.985 451 335.479 465.57 333.307 479.906 332.599 494.618 333.325 508.815 335.442 522.738 338.93 536.255 343.755 549.24 349.873 561.882 357.433 573.415 365.978 584.062 375.604 593.962 386.512 602.514 398.039 609.905 410.344 616.063 423.308 620.932 436.811 624.539 451.093 626.703 465.664 627.402 480 626.703 494.336 624.539 508.907 620.932 523.189 616.063 536.692"/><line x1="609.062" x2="618.99" y1="551.206" y2="556.683"/><line x1="614.884" x2="624.518" y1="563.695" y2="569.673"/><line x1="622.263" x2="631.747" y1="573.21" y2="579.424"/><line x1="643.645" x2="633.417" y1="558.311" y2="553.416"/><line x1="636.035" x2="625.632" y1="547.675" y2="543.164"/><line x1="629.066" x2="618.419" y1="534.568" y2="530.67"/><line x1="633.277" x2="644.226" y1="521.286" y2="524.235"/><line x1="641.834" x2="652.623" y1="532.313" y2="535.8"/><line x1="658.52" x2="647.362" y1="512.294" y2="510.276"/><line x1="650.007" x2="638.673" y1="475.047" y2="475.377"/><line x1="649.414" x2="660.709" y1="464.983" y2="463.982"/><line x1="641.371" x2="630.613" y1="426.278" y2="429.859"/><line x1="639.428" x2="650.056" y1="420.759" y2="416.809"/><line x1="631.83" x2="621.708" y1="403.354" y2="408.464"/><line x1="625.245" x2="614.87" y1="415.95" y2="420.525"/><line x1="615.02" x2="604.634" y1="420.866" y2="425.414"/><line x1="630.109" x2="640.116" y1="400.038" y2="394.707"/></g></svg>