<svg xmlns="http://www.w3.org/2000/svg" xmlns:ev="http://www.w3.org/2001/xml-events" xmlns:xlink="http://www.w3.org/1999/xlink" width="21cm" height="29.7cm" baseProfile="tiny" version="1.2" viewBox="0 0 793.701 1122.52"><metadata/><g id="layer1" fill="none" stroke="#00f" style="display:inline"><polygon points="118.892 820.989 118.377 821.553 117.758 820.989 118.273 820.424"/><polygon points="123.721 798.057 124.13 798.156 124.368 798.618 123.828 799.184 123.237 798.672"/><polygon points="129.828 776.999 130.309 777.56 129.714 778.126 129.178 777.502"/><polygon points="136.14 758.328 135.514 757.764 136.022 757.2 136.648 757.764"/><polygon points="142.755 738.612 143.322 739.179 142.755 739.746 142.188 739.179"/><polygon points="149.675 722.322 149.145 721.69 149.675 721.19 150.275 721.756"/><polygon points="156.325 705.373 156.923 704.879 157.454 705.444 156.923 706.01 156.526 705.881"/><polygon points="163.677 690.196 164.244 689.629 164.811 690.196 164.244 690.763"/><polygon points="171.695 675.397 172.301 675.962 171.849 676.517 171.172 676.04"/><polygon points="179.237 662.136 179.689 662.269 179.884 662.697 179.398 663.258 178.946 663.126 178.75 662.697"/><polygon points="186.999 650.92 186.396 650.439 186.541 649.969 186.999 649.789 187.524 650.355"/><polygon points="194.619 639.456 194.052 638.889 194.619 638.322 195.186 638.889"/><polygon points="202.841 628.258 202.413 628.808 201.715 628.351 202.227 627.693"/><polygon points="210.328 618.054 210.461 618.418 209.992 618.976 209.61 618.909 209.327 618.418 209.795 617.86"/><polygon points="217.507 609.893 216.973 609.627 216.898 609.225 217.507 608.764 218.022 609.329"/><polygon points="224.935 601.517 224.368 600.95 224.935 600.383 225.502 600.95"/><polygon points="232.881 593.242 232.489 593.782 231.76 593.36 232.255 592.679"/><polygon points="240.143 586.17 239.517 586.734 239.021 586.052 239.517 585.606"/><polygon points="246.831 580.248 246.351 580.139 246.138 579.695 246.578 579.143 247.058 579.252 247.272 579.695"/><polygon points="254.255 573.785 253.756 574.348 253.137 573.921 253.487 573.255 254.01 573.318"/><polygon points="260.582 567.842 261.08 568.405 260.582 568.968 260.089 568.781 259.963 568.269"/><polygon points="267.739 563.523 267.172 564.09 266.605 563.523 267.172 562.957"/><polygon points="273.575 559.671 273.112 558.95 273.575 558.548 274.223 559.11"/><polygon points="280.525 555.134 280.194 555.649 279.414 555.293 279.878 554.573"/><polygon points="286.249 552.107 285.899 552.107 285.507 551.568 285.899 551.029 286.249 551.029 286.641 551.568"/><polygon points="292.173 547.846 292.565 548.386 292.173 548.925 291.823 548.925 291.431 548.386 291.823 547.846"/><polygon points="298.295 545.56 297.827 546.119 297.445 546.051 297.195 545.366 297.827 545.002"/><polygon points="303.696 542.704 303.829 543.068 303.361 543.626 302.729 543.262 302.979 542.577"/><polygon points="308.315 541.376 308.066 540.692 308.697 540.327 309.166 540.885 308.697 541.444"/><polygon points="313.738 538.423 314.305 538.99 313.738 539.557 313.171 538.99"/><polygon points="318.68 536.794 319.247 537.361 318.68 537.928 318.113 537.361"/><polygon points="323.993 535.978 323.78 536.421 323.3 536.531 322.915 536.224 322.915 535.732 323.3 535.425 323.78 535.535"/><polygon points="328.332 535.265 327.852 535.375 327.467 535.068 327.467 534.576 327.852 534.269 328.332 534.379 328.545 534.822"/><polygon points="332.905 533.876 332.692 534.319 332.212 534.429 331.827 534.122 331.827 533.63 332.212 533.323 332.692 533.433"/><polygon points="336.792 532.631 337.076 533.122 336.792 533.613 336.226 533.613 335.942 533.122 336.226 532.631"/><polygon points="340.21 533.036 339.927 532.545 340.21 532.054 340.777 532.054 341.061 532.545 340.777 533.036"/><polygon points="343.729 532.129 344.013 531.638 344.58 531.638 344.863 532.129 344.58 532.62 344.013 532.62"/><polygon points="347.637 531.369 348.204 531.369 348.487 531.86 348.204 532.351 347.637 532.351 347.353 531.86"/><polygon points="351.545 532.264 350.911 532.058 350.911 531.391 351.545 531.185 351.937 531.724"/><polygon points="354.649 531.71 426.4 519.059 439.051 590.809 367.301 603.461"/><polygon points="355.216 531.71 354.825 532.25 354.191 532.044 354.191 531.377 354.825 531.171"/><polygon points="369.715 510.792 369.148 510.225 369.715 509.658 370.282 510.225"/><polygon points="373.346 511.907 373.133 512.35 372.653 512.46 372.269 512.153 372.269 511.661 372.653 511.354 373.133 511.464"/><polygon points="375.986 513.162 376.2 513.605 375.986 514.048 375.507 514.158 375.122 513.851 375.122 513.359 375.507 513.052"/><polygon points="378.16 515.865 377.775 515.558 377.775 515.066 378.16 514.759 378.64 514.869 378.853 515.312 378.64 515.755"/><polygon points="381.032 517.511 380.465 517.511 380.182 517.02 380.465 516.529 381.032 516.529 381.315 517.02"/><polygon points="382.746 519.215 382.463 518.724 382.746 518.233 383.313 518.233 383.597 518.724 383.313 519.215"/><polygon points="385.422 519.926 385.706 520.417 385.422 520.908 384.856 520.908 384.572 520.417 384.856 519.926"/><polygon points="387.369 521.604 387.652 522.095 387.369 522.586 386.802 522.586 386.519 522.095 386.802 521.604"/><polygon points="389.053 523.213 389.445 523.752 389.053 524.291 388.419 524.085 388.419 523.419"/><polygon points="390.7 524.846 391.092 525.385 390.7 525.924 390.066 525.718 390.066 525.051"/><polygon points="365.862 508.569 366.429 508.002 366.996 508.569 366.429 509.136"/><polygon points="362.379 506.753 363.01 506.389 363.479 506.947 363.01 507.505 362.379 507.141"/><polygon points="358.619 505.564 358.619 505.176 359.251 504.812 359.719 505.37 359.251 505.928"/><polygon points="354.606 504.043 354.856 503.358 355.237 503.291 355.706 503.849 355.237 504.407"/><polygon points="351.036 502.936 350.403 502.73 350.294 502.397 350.686 501.857 351.036 501.857 351.428 502.397"/><polygon points="345.741 501.026 346.133 500.486 346.483 500.486 346.875 501.026 346.483 501.565 345.849 501.359"/><polygon points="341.387 500.312 340.923 499.911 341.387 499.19 342.034 499.751"/><polygon points="336.895 498.587 336.564 499.103 335.784 498.747 336.248 498.026"/><polygon points="330.88 498.119 330.313 497.553 330.88 496.986 331.447 497.553"/><polygon points="325.431 496.197 325.676 496.664 325.178 497.227 324.559 496.8 324.908 496.134"/><polygon points="319.329 496.408 318.805 496.471 318.456 495.805 319.075 495.378 319.573 495.941"/><polygon points="312.206 495.848 311.993 495.405 312.434 494.852 312.913 494.962 313.127 495.405 312.686 495.957"/><polygon points="306.325 495.077 305.699 495.641 305.204 495.195 305.699 494.514"/><polygon points="298.532 495.547 298.036 495.101 298.532 494.419 299.158 494.983"/><polygon points="291.048 494.58 291.615 495.147 291.048 495.714 290.481 495.147"/><polygon points="283.371 495.089 283.685 495.596 283.171 496.161 282.561 495.701 282.963 495.051"/><polygon points="275.36 496.361 274.891 496.919 274.359 496.725 274.226 496.361 274.695 495.802 275.076 495.87"/><polygon points="266.63 497.471 266.016 498.036 265.504 497.564 266.016 496.906"/><polygon points="256.92 498.392 257.487 498.959 256.92 499.526 256.353 498.959"/><polygon points="247.71 500.417 247.923 500.86 247.399 501.426 246.796 500.945 247.23 500.308"/><polygon points="237.284 502.651 237.736 502.784 237.932 503.212 237.446 503.773 236.994 503.64 236.798 503.212"/><polygon points="226.902 505.487 227.508 506.053 227.056 506.608 226.379 506.13"/><polygon points="216.079 508.858 216.646 509.425 216.079 509.991 215.512 509.425"/><polygon points="204.214 513.442 204.67 512.814 205.08 512.892 205.344 513.37 204.812 513.936"/><polygon points="192.468 517.871 192.998 517.371 193.598 517.937 192.998 518.503"/><polygon points="180.276 523.172 180.843 522.605 181.41 523.172 180.843 523.739"/><polygon points="168.781 529.127 168.273 529.691 167.647 529.127 168.154 528.563"/><polygon points="155.118 535.289 155.713 535.856 155.232 536.416 154.582 535.913"/><polygon points="142.057 543.806 141.566 543.975 141.082 543.36 141.674 542.848 142.214 543.414"/><polygon points="127.775 552.426 127.156 551.862 127.671 551.297 128.29 551.862"/><polygon points="336.049 611.802 336.441 611.263 336.791 611.263 337.183 611.802 336.791 612.341 336.441 612.341"/><polygon points="338.554 607.249 338.162 607.788 337.812 607.788 337.42 607.249 337.812 606.71 338.162 606.71"/><polygon points="339.156 602.48 339.538 602.413 340.007 602.971 339.538 603.53 338.907 603.165"/><polygon points="341.059 599.516 340.428 599.152 340.428 598.764 341.059 598.4 341.527 598.958"/><polygon points="343.104 595.198 342.636 595.757 342.005 595.392 342.254 594.707 342.972 594.834"/><polygon points="344.726 591.681 344.159 592.248 343.592 591.681 344.159 591.114"/><polygon points="345.249 588.395 345.816 587.828 346.383 588.395 345.816 588.962"/><polygon points="346.986 585.085 347.371 584.778 347.851 584.888 348.064 585.331 347.851 585.774 347.371 585.884 346.986 585.577"/><polygon points="349.069 581.924 349.549 582.034 349.762 582.477 349.549 582.92 349.069 583.03 348.685 582.723 348.685 582.231"/><polygon points="351.469 579.824 351.256 580.267 350.776 580.377 350.392 580.07 350.392 579.578 350.776 579.271 351.256 579.381"/><polygon points="352.327 577.853 352.044 577.362 352.327 576.871 352.894 576.871 353.178 577.362 352.894 577.853"/><polygon points="354.031 575.572 353.748 575.081 354.031 574.59 354.598 574.59 354.882 575.081 354.598 575.572"/><polygon points="356.575 572.971 356.291 573.462 355.724 573.462 355.441 572.971 355.724 572.48 356.291 572.48"/><polygon points="357.118 571.025 357.402 570.534 357.969 570.534 358.252 571.025 357.969 571.516 357.402 571.516"/><polygon points="359.518 568.693 359.909 569.232 359.518 569.772 358.884 569.566 358.884 568.899"/><polygon points="360.517 567.919 360.517 567.252 361.15 567.046 361.542 567.586 361.15 568.125"/><polygon points="366.842 603.128 367.476 602.922 367.868 603.461 367.476 604 366.842 603.794"/><polygon points="367.49 606.201 367.882 606.74 367.49 607.28 366.856 607.074 366.856 606.407"/><polygon points="368.017 610.19 367.734 610.681 367.167 610.681 366.883 610.19 367.167 609.699 367.734 609.699"/><polygon points="367.436 613.323 368.003 613.323 368.286 613.814 368.003 614.305 367.436 614.305 367.152 613.814"/><polygon points="367.852 618.107 367.568 617.616 367.852 617.125 368.419 617.125 368.702 617.616 368.419 618.107"/><polygon points="368.146 621.601 368.429 621.11 368.996 621.11 369.28 621.601 368.996 622.092 368.429 622.092"/><polygon points="369.34 626.325 368.956 626.018 368.956 625.526 369.34 625.219 369.82 625.329 370.034 625.772 369.82 626.215"/><polygon points="370.287 630.685 369.902 630.378 369.902 629.886 370.287 629.579 370.766 629.689 370.98 630.132 370.766 630.575"/><polygon points="371.922 634.241 372.135 634.684 371.922 635.127 371.442 635.237 371.058 634.93 371.058 634.438 371.442 634.131"/><polygon points="372.951 639.997 372.384 639.43 372.951 638.863 373.518 639.43"/><polygon points="374.58 644.939 374.014 644.372 374.58 643.805 375.147 644.372"/><polygon points="376.574 650.07 375.943 649.705 376.192 649.02 376.574 648.953 377.043 649.511"/><polygon points="378.757 654.29 379.226 654.848 378.757 655.406 378.375 655.339 378.126 654.654"/><polygon points="381.249 660.94 380.618 660.576 380.868 659.891 381.585 660.018 381.718 660.382"/><polygon points="384.543 666.112 384.151 666.651 383.801 666.651 383.409 666.112 383.801 665.573 384.151 665.573"/><polygon points="387.334 671.497 387.726 672.037 387.334 672.576 386.7 672.37 386.592 672.037 386.983 671.497"/><polygon points="391.291 678.152 390.96 678.668 390.18 678.312 390.644 677.591"/><polygon points="395.267 684.454 394.619 685.015 394.156 684.614 394.619 683.893"/><polygon points="399.114 691.505 398.547 690.938 399.114 690.371 399.681 690.938"/><polygon points="403.795 697.067 404.318 697.13 404.562 697.597 404.064 698.16 403.445 697.733"/><polygon points="408.951 704.799 408.825 704.287 409.444 703.86 409.942 704.423 409.444 704.985"/><polygon points="415.412 711.958 414.933 711.849 414.719 711.406 415.16 710.853 415.639 710.962 415.853 711.406"/><polygon points="421.206 718.652 421.701 717.971 422.327 718.534 421.701 719.098"/><polygon points="428.774 725.232 429.4 725.796 429.008 726.335 428.279 725.914"/><polygon points="436.54 733.742 435.973 733.176 436.54 732.609 437.107 733.176"/><polygon points="445.486 740.655 444.972 741.22 444.362 740.76 444.764 740.11 445.172 740.148"/><polygon points="453.91 747.658 454.443 747.852 454.576 748.216 454.107 748.775 453.574 748.581 453.442 748.216"/><polygon points="463.988 756.386 463.289 755.93 463.802 755.271 464.415 755.837"/><polygon points="473.913 763.491 474.48 762.924 475.047 763.491 474.48 764.058"/><polygon points="486.512 771.154 485.987 771.719 485.384 771.238 485.529 770.768 485.987 770.588"/><polygon points="498.207 778.232 498.659 778.365 498.855 778.793 498.368 779.354 497.916 779.221 497.721 778.793"/><polygon points="511.668 786.931 510.991 786.453 511.514 785.811 512.12 786.376"/><polygon points="526.353 793.866 525.786 794.433 525.219 793.866 525.786 793.299"/><polygon points="541.602 801.223 541.07 801.789 540.472 801.294 540.576 800.89 541.07 800.657"/><polygon points="557.313 808.968 556.783 808.468 557.313 807.836 557.913 808.402"/><polygon points="575.337 815.355 574.77 815.922 574.203 815.355 574.77 814.788"/><polygon points="593.921 822.029 593.414 822.593 592.787 822.029 593.295 821.466"/><polygon points="613.717 828.368 613.236 828.928 612.586 828.425 613.122 827.802"/><polygon points="634.235 834.875 633.644 834.363 634.128 833.748 634.537 833.847 634.775 834.309"/><polygon points="656.013 839.785 656.527 839.221 657.146 839.785 656.632 840.35"/><polygon points="588.96 609.715 588.362 609.22 588.563 608.712 588.96 608.583 589.491 609.149"/><polygon points="578.188 613.095 577.622 613.662 577.055 613.095 577.622 612.528"/><polygon points="566.198 616.544 566.721 615.901 567.327 616.467 566.875 617.022"/><polygon points="555.769 619.308 556.255 618.747 556.707 618.879 556.903 619.308 556.416 619.869 555.964 619.736"/><polygon points="545.784 621.744 546.218 621.107 546.698 621.216 546.912 621.659 546.387 622.225"/><polygon points="536.781 624.128 536.214 623.561 536.781 622.994 537.348 623.561"/><polygon points="527.591 624.484 528.205 625.049 527.777 625.599 527.079 625.142"/><polygon points="518.809 625.601 519.342 625.794 519.475 626.159 519.006 626.717 518.624 626.65 518.341 626.159"/><polygon points="510.428 626.378 511.002 626.541 511.149 626.923 510.635 627.488 510.025 627.027"/><polygon points="502.086 627.373 502.653 626.806 503.22 627.373 502.653 627.94"/><polygon points="495.677 627.537 495.285 628.076 494.555 627.654 495.051 626.973"/><polygon points="487.883 626.878 488.51 627.442 488.118 627.981 487.388 627.56"/><polygon points="480.574 627.115 481.015 626.562 481.495 626.672 481.708 627.115 481.267 627.668 480.788 627.558"/><polygon points="474.763 626.016 475.261 626.579 474.763 627.141 474.144 626.714 474.27 626.203"/><polygon points="468.66 626.419 468.167 626.232 468.041 625.72 468.66 625.293 469.158 625.856"/><polygon points="462.254 624.967 462.821 624.4 463.388 624.967 462.821 625.534"/><polygon points="457.292 624.493 456.828 624.092 457.292 623.371 457.939 623.932"/><polygon points="452.8 622.769 452.469 623.285 451.689 622.929 452.153 622.208"/><polygon points="447.218 622.033 446.826 621.494 447.218 620.955 447.568 620.955 447.96 621.494 447.568 622.033"/><polygon points="442.664 619.584 443.015 619.584 443.406 620.123 443.015 620.662 442.664 620.662 442.272 620.123"/><polygon points="438.278 619.162 438.029 618.477 438.66 618.112 439.129 618.671 438.66 619.229"/><polygon points="434.016 617.344 434.265 616.659 434.647 616.591 435.116 617.15 434.647 617.708"/><polygon points="430.505 615.082 430.887 615.014 431.356 615.573 430.887 616.131 430.256 615.767"/><polygon points="427.272 614.518 426.705 613.951 427.272 613.384 427.839 613.951"/><polygon points="423.986 612.861 423.419 612.294 423.986 611.728 424.553 612.294"/><polygon points="420.411 610.859 420.411 610.367 420.795 610.06 421.275 610.17 421.488 610.613 421.275 611.056 420.795 611.166"/><polygon points="417.942 609.467 417.557 609.161 417.557 608.669 417.942 608.362 418.421 608.471 418.635 608.915 418.421 609.358"/><polygon points="415.768 607.651 415.288 607.761 414.904 607.454 414.904 606.962 415.288 606.655 415.768 606.765 415.981 607.208"/><polygon points="412.385 605.499 412.669 605.008 413.236 605.008 413.519 605.499 413.236 605.99 412.669 605.99"/><polygon points="410.955 603.305 411.238 603.796 410.955 604.287 410.388 604.287 410.104 603.796 410.388 603.305"/><polygon points="407.995 602.102 408.278 601.611 408.845 601.611 409.129 602.102 408.845 602.593 408.278 602.593"/><polygon points="406.332 599.934 406.899 599.934 407.182 600.425 406.899 600.916 406.332 600.916 406.048 600.425"/><polygon points="404.998 599.307 404.364 599.101 404.364 598.435 404.998 598.229 405.39 598.768"/><polygon points="403.351 596.596 403.743 597.135 403.351 597.674 402.717 597.468 402.717 596.802"/><polygon points="439.227 591.348 438.593 591.143 438.593 590.476 439.227 590.27 439.618 590.809"/><polygon points="442.898 590.795 442.506 591.334 441.872 591.129 441.872 590.462 442.506 590.256"/><polygon points="445.214 590.66 445.497 590.169 446.064 590.169 446.348 590.66 446.064 591.151 445.497 591.151"/><polygon points="449.688 590.882 449.121 590.882 448.837 590.391 449.121 589.9 449.688 589.9 449.971 590.391"/><polygon points="453.49 590.466 452.923 590.466 452.64 589.975 452.923 589.484 453.49 589.484 453.774 589.975"/><polygon points="457.759 589.398 457.475 589.889 456.908 589.889 456.625 589.398 456.908 588.907 457.475 588.907"/><polygon points="461.93 588.644 461.716 589.087 461.236 589.196 460.852 588.89 460.852 588.398 461.236 588.091 461.716 588.2"/><polygon points="465.212 587.943 465.212 587.452 465.596 587.145 466.076 587.254 466.29 587.697 466.076 588.141 465.596 588.25"/><polygon points="470.628 586.985 470.148 587.095 469.764 586.788 469.764 586.296 470.148 585.989 470.628 586.099 470.841 586.542"/><polygon points="475.588 585.159 475.021 585.726 474.454 585.159 475.021 584.592"/><polygon points="479.396 583.53 479.963 582.963 480.53 583.53 479.963 584.097"/><polygon points="484.569 581.828 484.818 581.143 485.2 581.076 485.669 581.634 485.2 582.193"/><polygon points="490.537 578.893 491.006 579.452 490.873 579.816 490.155 579.942 489.906 579.258"/><polygon points="496.071 577.518 495.44 577.153 495.689 576.468 496.071 576.401 496.539 576.959"/><polygon points="501.528 573.595 501.878 573.595 502.27 574.134 501.878 574.673 501.528 574.673 501.136 574.134"/><polygon points="507.452 570.412 507.802 570.412 508.194 570.952 507.802 571.491 507.452 571.491 507.06 570.952"/><polygon points="513.198 567.226 513.978 566.87 514.309 567.386 513.662 567.947"/><polygon points="519.964 563.971 519.501 563.57 519.964 562.849 520.612 563.41"/><polygon points="527.096 558.996 526.529 559.563 525.962 558.996 526.529 558.429"/><polygon points="532.763 553.739 533.256 553.552 533.754 554.115 533.256 554.678 532.637 554.25"/><polygon points="539.463 548.87 539.812 548.205 540.335 548.268 540.58 548.735 540.082 549.298"/><polygon points="547.122 543.377 546.643 543.268 546.429 542.824 546.87 542.271 547.35 542.381 547.563 542.824"/><polygon points="553.571 536.468 554.066 535.786 554.692 536.35 554.066 536.914"/><polygon points="560.832 529.395 561.327 528.713 561.954 529.277 561.562 529.816"/><polygon points="568.199 521.57 568.766 521.003 569.333 521.57 568.766 522.137"/><polygon points="576.298 512.626 576.813 513.191 576.298 513.755 575.689 513.295 575.764 512.893"/><polygon points="584.09 503.611 584.374 504.101 583.905 504.66 583.373 504.466 583.24 504.101 583.708 503.543"/><polygon points="590.868 494.168 591.566 493.712 591.994 494.262 591.38 494.827"/><polygon points="599.082 484.197 598.515 483.63 599.082 483.063 599.649 483.63"/><polygon points="607.311 472.165 606.787 472.731 606.184 472.25 606.329 471.78 606.787 471.6"/><polygon points="614.012 460.251 613.817 459.822 614.303 459.261 614.755 459.394 614.951 459.822 614.464 460.384"/><polygon points="622.082 447.112 621.405 446.635 621.928 445.992 622.534 446.557"/><polygon points="629.457 432.891 628.89 432.324 629.457 431.757 630.024 432.324"/><polygon points="636.849 417.641 636.251 417.147 636.707 416.519 637.227 416.687 637.38 417.075"/><polygon points="643.429 400.83 643.96 400.198 644.559 400.764 644.091 401.322"/><polygon points="651.512 383.341 650.946 383.908 650.379 383.341 650.946 382.774"/><polygon points="657.053 364.756 657.561 364.192 658.187 364.756 657.679 365.32"/><polygon points="664.044 345.52 663.395 345.017 663.93 344.394 664.525 344.96"/><polygon points="670.31 324.293 669.819 324.463 669.335 323.848 669.927 323.336 670.466 323.902"/><polygon points="675.943 301.531 675.428 302.095 674.809 301.531 675.323 300.966"/><polygon points="448.686 379.922 449.253 380.489 448.686 381.056 448.119 380.489"/><polygon points="444.775 368.62 445.307 369.186 445.043 369.665 444.634 369.743 444.177 369.115"/><polygon points="440.74 357.441 440.14 358.007 439.61 357.507 440.14 356.875"/><polygon points="435.505 345.253 434.938 345.82 434.371 345.253 434.938 344.686"/><polygon points="429.042 333.187 428.416 332.623 428.924 332.059 429.55 332.623"/><polygon points="422.226 320.122 421.69 319.498 422.34 318.995 422.821 319.556"/><polygon points="414.615 305.495 415.025 305.594 415.263 306.056 414.723 306.623 414.132 306.11"/><polygon points="405.682 292.132 406.196 291.568 406.815 292.132 406.301 292.697"/><polygon points="348.626 381.319 349.2 381.482 349.348 381.864 348.834 382.429 348.224 381.969"/><polygon points="357.161 388.777 357.728 389.344 357.161 389.911 356.594 389.344"/><polygon points="365.043 397.263 364.313 396.841 364.808 396.16 365.435 396.724"/><polygon points="371.881 404.549 371.386 404.103 371.881 403.421 372.507 403.985"/><polygon points="378.768 410.671 378.982 411.114 378.541 411.667 378.061 411.557 377.848 411.114 378.289 410.561"/><polygon points="383.901 417.721 384.394 417.534 384.892 418.097 384.394 418.66 383.775 418.233"/><polygon points="389.774 425.486 389.155 425.058 389.504 424.393 390.027 424.456 390.272 424.923"/><polygon points="394.02 431.582 394.587 431.015 395.154 431.582 394.587 432.149"/><polygon points="398.457 437.906 399.236 437.55 399.568 438.066 398.92 438.627"/><polygon points="402.896 443.807 403.543 444.368 402.896 444.929 402.433 444.528"/><polygon points="406.367 451.022 405.975 450.483 406.367 449.944 407.001 450.15 407.109 450.483 406.717 451.022"/><polygon points="409.158 456.408 409.55 455.868 409.9 455.868 410.292 456.408 409.9 456.947 409.55 456.947"/><polygon points="412.984 461.773 413.117 462.138 412.648 462.696 412.017 462.332 412.266 461.647"/><polygon points="414.759 467.181 415.141 467.113 415.609 467.672 415.141 468.23 414.509 467.865"/><polygon points="417.323 472.45 417.792 473.008 417.323 473.567 416.692 473.202 416.692 472.814"/><polygon points="419.12 478.714 418.553 478.147 419.12 477.58 419.687 478.147"/><polygon points="420.75 483.656 420.183 483.089 420.75 482.523 421.316 483.089"/><polygon points="422.486 488.279 422.006 488.388 421.622 488.082 421.622 487.59 422.006 487.283 422.486 487.392 422.699 487.836"/><polygon points="423.642 492.831 423.162 492.94 422.777 492.634 422.777 492.142 423.162 491.835 423.642 491.944 423.855 492.388"/><polygon points="423.723 496.502 424.108 496.195 424.588 496.304 424.801 496.748 424.588 497.191 424.108 497.3 423.723 496.993"/><polygon points="424.705 500.427 425.272 500.427 425.555 500.918 425.272 501.409 424.705 501.409 424.421 500.918"/><polygon points="424.999 504.903 425.282 504.412 425.849 504.412 426.132 504.903 425.849 505.394 425.282 505.394"/><polygon points="426.265 508.215 426.548 508.706 426.265 509.197 425.698 509.197 425.415 508.706 425.698 508.215"/><polygon points="426.817 512.33 426.534 512.821 425.967 512.821 425.684 512.33 425.967 511.839 426.534 511.839"/><polygon points="425.927 516.112 425.927 515.446 426.561 515.24 426.953 515.779 426.561 516.318"/><polygon points="426.967 519.059 426.575 519.598 425.941 519.392 425.941 518.726 426.575 518.52"/><polygon points="450.631 527.515 450.88 526.83 451.598 526.957 451.73 527.321 451.262 527.88"/><polygon points="449.541 530.272 450.108 530.839 449.541 531.405 448.975 530.839"/><polygon points="447.885 533.557 448.452 534.124 447.885 534.691 447.318 534.124"/><polygon points="446.557 536.745 446.77 537.189 446.557 537.632 446.077 537.741 445.693 537.435 445.693 536.943 446.077 536.636"/><polygon points="444.379 540.595 443.995 540.288 443.995 539.797 444.379 539.49 444.859 539.599 445.072 540.043 444.859 540.486"/><polygon points="442.288 542.942 442.288 542.45 442.672 542.143 443.152 542.252 443.365 542.696 443.152 543.139 442.672 543.248"/><polygon points="440.523 545.158 440.807 544.667 441.373 544.667 441.657 545.158 441.373 545.649 440.807 545.649"/><polygon points="439.103 546.948 439.67 546.948 439.953 547.439 439.67 547.93 439.103 547.93 438.819 547.439"/><polygon points="438.26 549.548 437.976 550.039 437.41 550.039 437.126 549.548 437.41 549.057 437.976 549.057"/><polygon points="435.732 551.004 436.299 551.004 436.582 551.495 436.299 551.986 435.732 551.986 435.449 551.495"/><polygon points="433.9 552.954 434.534 552.748 434.925 553.287 434.534 553.827 433.9 553.62"/><polygon points="433.293 554.934 432.901 555.473 432.267 555.267 432.267 554.601 432.901 554.395"/><polygon points="452.839 523.003 453.307 523.562 452.839 524.12 452.208 523.755 452.208 523.368"/><polygon points="454.36 518.99 454.828 519.548 454.36 520.107 453.978 520.039 453.728 519.355"/><polygon points="455.147 515.271 455.538 514.732 455.889 514.732 456.281 515.271 455.889 515.81 455.538 515.81"/><polygon points="457.26 511.257 456.909 511.257 456.518 510.717 456.909 510.178 457.543 510.384 457.651 510.717"/><polygon points="457.815 506.037 458.279 505.316 458.926 505.877 458.279 506.438"/><polygon points="458.979 500.898 459.442 500.177 460.09 500.738 459.442 501.299"/><polygon points="460.558 494.722 461.125 495.289 460.558 495.856 459.991 495.289"/><polygon points="460.896 489.654 461.245 488.989 461.768 489.052 462.013 489.519 461.515 490.082"/><polygon points="462.491 483.882 461.968 483.946 461.619 483.28 462.238 482.853 462.736 483.416"/><polygon points="463.272 476.969 462.832 477.522 462.352 477.412 462.139 476.969 462.579 476.416 463.059 476.526"/><polygon points="463.6 470.168 463.208 470.707 462.478 470.286 462.974 469.604"/><polygon points="463.068 463.564 462.573 463.118 463.068 462.437 463.694 463"/><polygon points="462.963 454.89 463.53 455.457 462.963 456.024 462.396 455.457"/><polygon points="463.081 447.528 462.766 448.035 462.359 448.073 461.956 447.423 462.566 446.963"/><polygon points="462.184 438.838 462.316 439.202 461.848 439.761 461.315 439.567 461.183 439.202 461.651 438.644"/><polygon points="460.779 431.022 460.08 430.566 460.593 429.908 461.207 430.473"/><polygon points="459.718 421.329 459.151 421.896 458.584 421.329 459.151 420.762"/><polygon points="457.292 412.331 456.689 411.85 456.834 411.38 457.292 411.2 457.817 411.766"/><polygon points="454.979 402.336 454.527 402.203 454.331 401.774 454.818 401.213 455.27 401.346 455.465 401.774"/><polygon points="452.173 391.906 451.496 391.428 452.019 390.785 452.624 391.35"/><polygon points="339.258 374.668 339.125 374.303 339.594 373.745 340.126 373.939 340.259 374.303 339.791 374.862"/><polygon points="329.293 366.776 329.805 366.118 330.419 366.683 329.991 367.233"/><polygon points="319.221 358.461 319.788 359.028 319.221 359.595 318.654 359.028"/><polygon points="308.323 351.366 307.798 351.931 307.195 351.451 307.34 350.981 307.798 350.801"/><polygon points="295.042 344.155 294.846 343.727 295.332 343.166 295.784 343.298 295.98 343.727 295.494 344.288"/><polygon points="282.109 335.578 282.715 336.144 282.263 336.699 281.586 336.221"/><polygon points="268.481 328.653 267.914 329.22 267.348 328.653 267.914 328.086"/><polygon points="252.702 320.731 253.233 321.297 252.702 321.863 252.103 321.368 252.207 320.963"/><polygon points="235.791 314.052 236.453 313.559 236.921 314.118 236.321 314.684"/><polygon points="218.931 306.598 219.498 307.165 218.931 307.732 218.364 307.165"/><polygon points="200.913 300.49 200.406 301.054 199.78 300.49 200.287 299.926"/><polygon points="179.986 294.209 180.522 293.586 181.117 294.152 180.636 294.712"/><polygon points="159.412 287.649 159.903 287.82 160.059 288.211 159.519 288.777 158.928 288.265"/><polygon points="136.554 282.734 137.069 282.17 137.688 282.734 137.173 283.299"/><polygon points="335.261 617.204 334.797 616.803 335.261 616.082 335.908 616.643"/><polygon points="334.414 622.298 333.634 621.942 334.097 621.221 334.745 621.782"/><polygon points="332.576 627.231 333.143 626.664 333.71 627.231 333.143 627.798"/><polygon points="331.704 633.137 331.83 632.625 332.323 632.438 332.821 633.001 332.323 633.564"/><polygon points="331.6 638.541 332.099 639.104 331.6 639.667 330.981 639.24 331.107 638.728"/><polygon points="330.428 645.551 330.869 644.998 331.349 645.107 331.562 645.551 331.122 646.103 330.642 645.994"/><polygon points="331.235 652.352 330.843 652.891 330.113 652.47 330.609 651.788"/><polygon points="330.514 658.956 331.14 659.519 330.514 660.083 330.019 659.401"/><polygon points="330.171 667.063 330.738 666.496 331.304 667.063 330.738 667.63"/><polygon points="330.63 675.096 330.705 674.694 331.239 674.428 331.754 674.992 331.239 675.557"/><polygon points="331.384 683.317 331.853 682.759 332.235 682.826 332.518 683.317 332.05 683.876 331.517 683.682"/><polygon points="333.014 691.482 333.628 692.047 333.2 692.597 332.502 692.14"/><polygon points="334.549 701.757 333.982 701.19 334.549 700.623 335.116 701.19"/><polygon points="335.89 710.838 336.325 710.201 336.804 710.311 337.018 710.754 336.493 711.319"/><polygon points="339.369 720.745 338.883 721.306 338.431 721.174 338.236 720.745 338.722 720.184 339.174 720.317"/><polygon points="341.605 730.604 342.21 731.169 341.759 731.724 341.082 731.246"/><polygon points="345.582 742.031 345.015 742.598 344.448 742.031 345.015 741.464"/><polygon points="349.528 753.334 348.997 753.899 348.399 753.405 348.855 752.777 349.265 752.855"/><polygon points="354.094 765.079 353.494 765.645 352.964 765.145 353.494 764.513"/><polygon points="358.762 777.834 358.196 777.267 358.762 776.7 359.329 777.267"/><polygon points="364.151 789.897 364.658 789.333 365.284 789.897 364.777 790.46"/><polygon points="370.882 803.021 371.418 802.398 372.013 802.964 371.532 803.524"/><polygon points="379.032 817.03 378.44 816.517 378.924 815.902 379.334 816.002 379.572 816.463"/><polygon points="387.4 829.823 388.019 830.387 387.505 830.952 386.885 830.387"/><polygon points="600.636 604.017 601.236 604.583 600.636 605.149 600.106 604.649"/><polygon points="612.858 599.915 612.291 599.348 612.858 598.781 613.424 599.348"/><polygon points="625.428 592.829 626.054 593.393 625.546 593.957 624.92 593.393"/><polygon points="638.64 586.104 639.121 586.664 638.526 587.23 637.99 586.607"/><polygon points="652.081 579.672 651.49 579.159 651.973 578.544 652.464 578.714 652.621 579.105"/><polygon points="666.545 570.658 666.03 571.222 665.411 570.658 665.925 570.093"/></g></svg>