<svg xmlns="http://www.w3.org/2000/svg" xmlns:ev="http://www.w3.org/2001/xml-events" xmlns:xlink="http://www.w3.org/1999/xlink" width="29.7cm" height="21cm" baseProfile="tiny" version="1.2" viewBox="0 0 1122.52 793.701"><metadata/><g id="layer1" fill="none" stroke="#00f" style="display:inline"><polygon points="301.502 309.103 257.071 172.358 212.64 309.103 328.962 224.59 185.18 224.59"/><polygon points="350.739 229.262 443.797 296.872 408.252 187.476 372.707 296.872 465.765 229.262"/><polygon points="605.443 232.999 513.423 232.999 587.869 287.087 559.433 199.571 530.997 287.087"/><polygon points="710.614 209.246 687.865 279.26 747.422 235.989 673.806 235.989 733.363 279.26"/><polygon points="861.795 216.987 843.596 272.997 891.242 238.381 832.349 238.381 879.994 272.997"/><polygon points="802.229 596.849 937.34 547.673 799.128 508.041 887.649 621.343 882.631 477.649"/><polygon points="654.439 600.891 785.791 542.409 645.151 512.516 741.36 619.366 726.33 476.372"/><polygon points="491.493 517.174 594.921 617.053 569.953 475.456 506.923 604.686 633.875 537.185"/><polygon points="359.663 608.217 481.597 532.024 338.166 521.994 448.309 614.415 413.525 474.904"/><polygon points="328.962 526.952 185.18 526.952 301.502 611.465 257.071 474.72 212.64 611.465"/></g></svg>