<svg xmlns="http://www.w3.org/2000/svg" xmlns:ev="http://www.w3.org/2001/xml-events" xmlns:xlink="http://www.w3.org/1999/xlink" width="21cm" height="29.7cm" baseProfile="tiny" version="1.2" viewBox="0 0 793.701 1122.52"><metadata/><g id="layer1" fill="none" stroke="#00f" style="display:inline"><polygon points="63.989 251.972 64.556 251.405 216.138 251.571 216.138 403.554 64.155 403.554"/><polygon points="66.257 253.673 66.257 401.452 214.036 401.452 214.036 253.673"/><polygon points="64.556 249.137 215.737 249.137 217.054 249.462 217.859 250.092 218.571 251.972 218.571 403.153 218.247 404.47 217.617 405.275 215.737 405.988 64.556 405.988 63.238 405.663 62.434 405.033 61.721 403.153 61.721 251.972 62.434 250.092 63.551 249.321"/><polygon points="210.635 257.074 69.658 257.074 69.658 398.051 210.635 398.051"/><polygon points="211.768 255.94 68.524 255.94 68.524 399.185 211.768 399.185"/><polygon points="215.17 252.539 65.123 252.539 65.123 402.586 215.17 402.586"/><polygon points="217.04 250.879 217.438 251.972 217.438 403.153 216.83 404.456 215.737 404.854 64.556 404.854 63.253 404.246 62.855 403.153 62.855 251.972 63.253 250.879 64.556 250.271 215.737 250.271"/><polygon points="219.466 248.489 220.417 249.939 220.839 251.972 220.839 403.153 220.417 405.186 219.22 406.882 217.77 407.833 215.737 408.255 64.556 408.255 62.523 407.833 60.827 406.636 59.876 405.186 59.453 403.153 59.453 251.972 59.876 249.939 61.073 248.243 62.523 247.292 64.556 246.87 215.737 246.87 217.77 247.292"/><polygon points="325.154 251.972 329.123 248.004 480.304 248.004 484.272 251.972 484.272 403.153 480.304 407.122 329.123 407.122 325.154 403.153"/><polygon points="326.288 251.972 329.123 249.137 480.304 249.137 483.138 251.972 483.138 403.153 480.304 405.988 329.123 405.988 326.288 403.153"/><polygon points="329.123 251.405 480.304 251.405 480.871 251.972 480.871 403.153 480.304 403.72 329.123 403.72 328.556 403.153 328.556 251.972"/><polygon points="331.957 254.807 331.957 400.318 477.469 400.318 477.469 254.807"/><polygon points="333.091 255.94 333.091 399.185 476.335 399.185 476.335 255.94"/><polygon points="334.225 398.051 475.201 398.051 475.201 257.074 334.225 257.074"/><polygon points="330.36 473.794 481.541 511.589 484.549 519.369 408.959 632.755 400.149 632.207 324.559 481.026"/><polygon points="330.085 474.894 481.266 512.689 483.606 518.74 408.015 632.126 401.164 631.699 325.573 480.518"/><polygon points="334.414 482.988 405.064 624.288 475.714 518.313"/><polygon points="216.424 513.789 217.346 514.206 218.24 515.209 218.554 516.849 218.095 518.111 142.505 631.497 141.483 632.424 140.492 632.738 139.123 632.568 138.238 632.021 137.611 631.192 62.02 480.011 61.747 478.359 62.242 477.106 63.571 476.086 65.243 475.994"/><polygon points="216.217 516.238 216.209 516.853 140.45 630.404 139.639 630.178 64.049 478.997 64.114 478.389 64.693 478.194"/><polygon points="207.475 519.733 74.081 486.384 140.778 619.779"/><polygon points="217.414 406.75 215.737 407.122 64.556 407.122 62.879 406.75 61.75 405.959 60.959 404.83 60.587 403.153 60.587 251.972 60.959 250.295 61.75 249.166 63.198 248.243 64.556 248.004 215.737 248.004 217.094 248.243 218.543 249.166 219.466 250.615 219.705 251.972 219.705 403.153 219.466 404.51 218.543 405.959"/><polygon points="212.902 400.318 212.902 254.807 67.39 254.807 67.39 400.318"/><polygon points="140.638 622.034 209.311 519.023 71.964 484.686"/><polygon points="140.497 624.288 211.147 518.313 69.847 482.988"/><polygon points="140.357 626.543 212.983 517.604 67.731 481.291"/><polygon points="140.216 628.797 214.819 516.894 65.614 479.593"/><polygon points="140.902 631.448 139.748 631.578 138.625 630.685 63.035 479.504 62.858 478.638 63.141 477.8 64.084 477.11 64.968 477.094 216.149 514.889 217.264 515.79 217.434 516.651 217.152 517.482 141.561 630.868"/><polygon points="141.909 633.48 140.59 633.868 138.885 633.688 137.416 632.804 136.597 631.699 61.006 480.518 60.595 478.496 61.46 476.26 63.455 474.931 65.518 474.894 216.699 512.689 218.232 513.453 219.3 514.792 219.697 516.801 219.039 518.74 143.448 632.126"/><polygon points="144.392 632.755 142.335 634.534 140.688 634.998 138.648 634.802 136.849 633.818 135.583 632.207 59.992 481.026 59.543 479.694 59.474 478.29 59.927 476.597 60.688 475.415 61.743 474.487 63.011 473.881 64.396 473.644 65.793 473.794 216.974 511.589 219.114 512.715 220.359 514.378 220.835 516.749 220.589 518.118 219.982 519.369"/><polygon points="217.213 704.671 217.437 705.558 213.658 856.739 213.416 857.571 212.531 858.298 211.385 858.298 159.365 839.72 122.311 869.363 121.239 869.736 120.41 869.514 119.794 868.917 44.204 744.192 44.042 742.78 44.516 742.05 45.289 741.65 215.368 703.855 216.563 704.029"/><polygon points="180.592 761.203 180.776 762.208 180.776 800.004 180.063 801.883 178.947 802.654 177.942 802.838 140.146 802.838 138.267 802.125 137.496 801.009 137.312 800.004 137.312 762.208 138.024 760.328 139.141 759.558 140.146 759.374 177.942 759.374 179.821 760.086"/><polygon points="179.035 760.905 179.642 762.208 179.642 800.004 179.244 801.097 177.942 801.704 140.146 801.704 139.053 801.306 138.446 800.004 138.446 762.208 138.843 761.115 140.146 760.507 177.942 760.507"/><polygon points="176.241 763.909 141.847 763.909 141.847 798.303 176.241 798.303"/><polygon points="172.839 794.901 172.839 767.311 145.249 767.311 145.249 794.901"/><polygon points="182.749 801.712 181.671 803.486 179.974 804.683 177.942 805.106 140.146 805.106 138.438 804.811 136.664 803.732 135.466 802.036 135.056 800.352 135.044 762.208 135.339 760.5 136.417 758.726 138.113 757.528 139.798 757.118 177.942 757.106 179.65 757.4 181.424 758.479 182.621 760.175 183.044 762.208 183.044 800.004"/><polygon points="144.115 796.035 173.973 796.035 173.973 766.177 144.115 766.177"/><polygon points="142.981 797.169 175.107 797.169 175.107 765.043 142.981 765.043"/><polygon points="140.713 799.437 177.375 799.437 177.375 762.775 140.713 762.775"/><polygon points="138.789 803.733 137.595 803.043 136.55 801.681 136.178 800.004 136.178 762.208 136.417 760.851 137.34 759.402 138.469 758.611 139.8 758.255 177.942 758.24 179.299 758.479 180.493 759.168 181.538 760.531 181.91 762.208 181.91 800.004 181.671 801.361 180.982 802.554 179.619 803.6 177.942 803.972 140.146 803.972"/><polygon points="158.576 835.003 159.997 835.129 209.221 852.709 212.813 709.069 50.13 745.221 121.999 863.804 157.273 835.585"/><polygon points="121.699 865.497 157.982 836.471 158.763 836.121 159.616 836.197 210.316 854.304 213.982 707.648 48.341 744.457"/><polygon points="121.399 867.189 159.046 837.232 211.41 855.899 215.152 706.226 46.553 743.693"/><polygon points="120.039 871.814 119.079 871.358 117.855 870.092 42.264 745.367 41.715 743.761 42.008 741.752 42.994 740.369 44.797 739.437 214.876 701.641 216.239 701.579 217.841 702.151 219.232 703.636 219.704 705.615 215.925 856.796 215.361 858.737 214.475 859.764 213.295 860.433 210.948 860.534 159.794 842.281 123.441 871.343 121.44 871.999"/><polygon points="208.127 851.115 211.643 710.49 51.919 745.985 122.299 862.112 156.565 834.7 158.389 833.885 160.379 834.062"/><polygon points="212.651 859.445 211.004 859.366 159.58 841 123.019 870.249 121.439 870.863 119.791 870.466 118.825 869.504 43.234 744.78 42.831 743.511 43.051 742.197 43.847 741.13 45.043 740.543 215.122 702.748 216.144 702.71 217.403 703.222 218.278 704.26 218.571 705.586 214.791 856.767 214.272 858.332"/><polygon points="215.121 860.699 213.94 861.398 212.272 861.789 210.569 861.606 160.009 843.561 124.158 872.227 122.924 872.854 121.221 873.137 118.583 872.385 116.885 870.679 41.295 745.955 40.569 743.671 40.966 741.307 42.399 739.385 44.551 738.33 214.63 700.534 216.673 700.5 218.566 701.269 220.341 703.317 220.838 705.643 217.058 856.824 216.268 859.427"/><polygon points="139.579 762.208 140.146 761.641 178.343 761.807 178.343 800.404 139.745 800.404"/><polygon points="53.708 746.749 122.6 860.42 155.857 833.814 158.373 832.741 160.76 832.994 207.033 849.52 210.473 711.912"/><polygon points="45.173 743.604 45.188 742.994 45.535 742.757 216.012 705.02 216.304 705.529 212.36 857.095 211.767 857.23 159.151 838.439 121.603 868.478 120.928 868.503"/><polygon points="308.771 744.192 309.856 741.65 479.935 703.855 482.004 705.558 478.224 856.739 475.952 858.298 423.932 839.72 386.878 869.363 384.361 868.917"/><polygon points="310.102 742.757 480.181 704.962 480.87 705.529 477.091 856.711 476.334 857.23 423.718 838.439 386.17 868.478 385.331 868.329 309.74 743.604"/><polygon points="309.118 738.33 479.197 700.534 485.405 705.643 481.625 856.824 474.808 861.501 424.575 843.561 389.003 872.019 381.452 870.679 305.861 745.955"/><polygon points="406.414 763.909 406.414 798.303 440.808 798.303 440.808 763.909"/><polygon points="407.548 765.043 407.548 797.169 439.674 797.169 439.674 765.043"/><polygon points="437.406 767.311 409.816 767.311 409.816 794.901 437.406 794.901"/><polygon points="438.54 766.177 408.682 766.177 408.682 796.035 438.54 796.035"/><polygon points="441.942 762.775 405.28 762.775 405.28 799.437 441.942 799.437"/><polygon points="442.509 761.641 443.075 762.208 443.075 800.004 442.509 800.57 404.713 800.57 404.146 800.004 404.146 762.208 404.713 761.641"/><polygon points="442.509 759.374 445.343 762.208 445.343 800.004 442.509 802.838 404.713 802.838 401.879 800.004 401.879 762.208 404.713 759.374"/><polygon points="442.509 801.704 404.713 801.704 403.012 800.004 403.012 762.208 404.713 760.507 442.509 760.507 444.209 762.208 444.209 800.004"/><polygon points="404.713 803.972 400.745 800.004 400.745 762.208 404.713 758.24 442.509 758.24 446.477 762.208 446.477 800.004 442.509 803.972"/><polygon points="404.713 805.106 399.611 800.004 399.611 762.208 404.713 757.106 442.509 757.106 447.611 762.208 447.611 800.004 442.509 805.106"/><polygon points="386.566 863.804 421.84 835.585 424.564 835.129 473.788 852.709 477.379 709.069 314.697 745.221"/><polygon points="387.586 870.249 383.391 869.504 307.801 744.78 309.61 740.543 479.689 702.748 483.137 705.586 479.358 856.767 475.571 859.366 424.147 841"/><polygon points="472.694 851.115 476.21 710.49 316.486 745.985 386.866 862.112 421.132 834.7 424.946 834.062"/><polygon points="474.883 854.304 478.549 707.648 312.908 744.457 386.266 865.497 422.548 836.471 424.183 836.197"/><polygon points="475.04 711.912 318.275 746.749 387.167 860.42 420.423 833.814 425.327 832.994 471.6 849.52"/><polygon points="479.719 706.226 311.12 743.693 385.966 867.189 423.257 837.356 423.801 837.265 475.977 855.899"/><polygon points="479.443 701.641 484.271 705.615 480.491 856.796 475.19 860.434 424.361 842.281 388.295 871.134 382.422 870.092 306.831 745.367 309.364 739.437"/><polygon points="566.742 739.873 750.135 699.119 746.016 863.873 689.142 843.561 649.031 875.65"/><polygon points="572.109 742.165 746.625 703.383 742.733 859.089 688.499 839.72 649.932 870.573"/><polygon points="579.264 745.221 651.133 863.804 687.642 834.597 738.355 852.709 741.946 709.069"/><polygon points="668.713 761.641 707.642 761.641 707.642 800.57 668.713 800.57"/><polygon points="674.383 767.311 674.383 794.901 701.973 794.901 701.973 767.311"/><polygon points="703.107 766.177 673.249 766.177 673.249 796.035 703.107 796.035"/><polygon points="704.241 797.169 704.241 765.043 672.115 765.043 672.115 797.169"/><polygon points="708.776 801.704 667.579 801.704 667.579 760.507 708.776 760.507"/><polygon points="709.91 802.838 666.446 802.838 666.446 759.374 709.91 759.374"/><polygon points="670.981 798.303 705.375 798.303 705.375 763.909 670.981 763.909"/><polygon points="669.847 799.437 706.509 799.437 706.509 762.775 669.847 762.775"/><polygon points="665.312 803.972 665.312 758.24 711.044 758.24 711.044 803.972"/><polygon points="664.178 805.106 664.178 757.106 712.178 757.106 712.178 805.106"/><polygon points="688.071 837.159 740.544 855.899 744.286 706.226 575.686 743.693 650.533 867.189"/><polygon points="688.928 842.281 649.332 873.958 568.531 740.637 748.965 700.54 744.921 862.278"/><polygon points="650.833 865.497 687.856 835.878 739.45 854.304 743.116 707.648 577.475 744.457"/><polygon points="650.232 868.881 573.898 742.929 745.456 704.805 741.638 857.494 688.285 838.439"/><polygon points="736.167 849.52 739.607 711.912 582.842 746.749 651.734 860.42 687.213 832.036"/><polygon points="743.827 860.683 688.714 841 649.632 872.266 570.32 741.401 747.795 701.962"/><polygon points="740.777 710.49 581.053 745.985 651.433 862.112 687.428 833.317 737.261 851.115"/><polygon points="668.789 637.816 586.281 472.801 751.296 514.055"/><polygon points="668.929 635.561 588.398 474.499 749.461 514.764"/><polygon points="669.491 626.543 742.117 517.604 596.865 481.291"/><polygon points="669.631 624.288 740.281 518.313 598.981 482.988"/><polygon points="745.789 516.184 669.21 631.052 592.631 477.895"/><polygon points="753.132 513.345 668.649 640.071 584.165 471.103"/><polygon points="749.973 408.255 588.587 408.255 588.587 246.87 749.973 246.87"/><polygon points="747.705 405.988 590.855 405.988 590.855 249.137 747.705 249.137"/><polygon points="598.792 398.051 739.768 398.051 739.768 257.074 598.792 257.074"/><polygon points="597.658 399.185 740.902 399.185 740.902 255.94 597.658 255.94"/><polygon points="594.256 402.586 744.304 402.586 744.304 252.539 594.256 252.539"/><polygon points="593.123 403.72 593.123 251.405 745.438 251.405 745.438 403.72"/><polygon points="590.515 476.197 747.625 515.474 669.07 633.307"/><polygon points="594.748 479.593 669.35 628.797 743.953 516.894"/><polygon points="601.098 484.686 669.771 622.034 738.445 519.023"/><polygon points="603.215 486.384 669.912 619.779 736.609 519.733"/><polygon points="479.386 516.894 330.181 479.593 404.783 628.797"/><polygon points="477.55 517.604 332.298 481.291 404.924 626.543"/><polygon points="479.737 402.586 479.737 252.539 329.69 252.539 329.69 402.586"/><polygon points="478.603 253.673 330.824 253.673 330.824 401.452 478.603 401.452"/><polygon points="482.005 251.972 482.005 403.153 480.304 404.854 329.123 404.854 327.422 403.153 327.422 251.972 329.123 250.271 480.304 250.271"/><polygon points="480.304 246.87 485.406 251.972 485.406 403.153 480.304 408.255 329.123 408.255 324.02 403.153 324.02 251.972 329.123 246.87"/><polygon points="595.39 253.673 595.39 401.452 743.17 401.452 743.17 253.673"/><polygon points="596.524 254.807 596.524 400.318 742.036 400.318 742.036 254.807"/><polygon points="746.572 250.271 746.572 404.854 591.989 404.854 591.989 250.271"/><polygon points="748.839 248.004 748.839 407.122 589.721 407.122 589.721 248.004"/><polygon points="405.345 619.779 472.042 519.733 338.648 486.384"/><polygon points="405.204 622.034 473.878 519.023 336.531 484.686"/><polygon points="404.206 630.178 328.616 478.997 329.26 478.194 480.441 515.989 480.776 516.853 405.185 630.239"/><polygon points="403.192 630.685 327.601 479.504 329.535 477.094 480.716 514.889 481.719 517.482 406.128 630.868"/><polygon points="402.178 631.192 326.587 480.011 329.81 475.994 480.991 513.789 482.662 518.111 407.072 631.497"/></g></svg>