<svg xmlns="http://www.w3.org/2000/svg" xmlns:ev="http://www.w3.org/2001/xml-events" xmlns:xlink="http://www.w3.org/1999/xlink" width="29.7cm" height="21cm" baseProfile="tiny" version="1.2" viewBox="0 0 1122.52 793.701"><metadata/><g id="layer1" fill="none" stroke="#00f" style="display:inline"><polyline points="139.202 377.953 158.1 340.157 195.895 340.157 195.895 415.748 158.1 415.748 158.1 340.157"/><polygon points="163.938 334.919 161.49 332.06 159.658 328.774 158.513 325.189 158.101 321.448 158.438 317.7 159.372 314.443 161.072 311.086 163.403 308.132 166.274 305.699 169.57 303.883 173.16 302.756 176.903 302.362 180.649 302.718 184.251 303.81 187.565 305.593 190.192 307.731 192.611 310.614 194.411 313.919 195.52 317.515 195.895 321.26 195.52 325.004 194.411 328.6 192.82 331.592 190.459 334.522 187.875 336.713 184.597 338.562 181.018 339.725 177.28 340.155 173.901 339.902 170.269 338.919 166.903 337.236"/><line x1="195.895" x2="214.792" y1="340.157" y2="377.953"/><polyline points="248.71 373.215 271.485 340.157 307.041 345.154 297.047 416.267 261.491 411.269 271.485 340.157"/><polygon points="305.282 336.69 302.673 339.134 299.632 341.014 296.624 342.16 293.104 342.78 289.53 342.691 286.044 341.896 282.786 340.425 279.883 338.339 277.67 336.001 275.746 332.988 274.456 329.654 273.853 326.13 273.96 322.557 274.773 319.075 276.259 315.824 278.125 313.202 280.709 310.731 283.731 308.821 287.072 307.548 290.599 306.963 294.172 307.088 297.649 307.918 300.893 309.421 303.775 311.536 305.964 313.896 307.858 316.928 309.115 320.275 309.683 323.804 309.54 327.376 308.808 330.511 307.354 333.777"/><line x1="307.041" x2="319.822" y1="345.154" y2="383.209"/><line x1="297.047" x2="297.72" y1="416.267" y2="488.878"/><line x1="337.426" x2="366.067" y1="468.492" y2="405.735"/><line x1="398.856" x2="389.889" y1="415.137" y2="483.536"/><line x1="436.655" x2="471.897" y1="454.616" y2="399.364"/><line x1="501.5" x2="484.021" y1="412.544" y2="475.704"/><line x1="538.558" x2="579.016" y1="439.69" y2="392.371"/><line x1="605.123" x2="580.328" y1="408.684" y2="465.792"/><line x1="643.114" x2="687.432" y1="424.13" y2="384.964"/><line x1="709.835" x2="678.959" y1="403.762" y2="454.208"/><line x1="634.49" x2="637.75" y1="390.734" y2="356.471"/><polygon points="645.906 343.417 644.24 345.617 641.962 347.668 639.323 349.227 636.428 350.232 633.39 350.644 630.331 350.445 627.373 349.644 624.631 348.273 622.44 346.596 620.4 344.308 618.855 341.661 617.864 338.76 617.48 336.028 617.633 332.967 618.389 329.996 619.719 327.235 621.57 324.791 623.868 322.763 626.522 321.231 629.129 320.326 632.162 319.884 635.223 320.052 638.189 320.823 640.944 322.167 643.379 324.03 645.395 326.338 646.787 328.721 647.806 331.611 648.233 334.647 648.05 337.706 647.264 340.669"/><polyline points="611.643 340.157 579.016 392.371 605.123 408.684 637.75 356.471 611.643 340.157 582.276 358.107"/><polygon points="534.45 338.536 532.851 341.338 530.728 343.768 528.166 345.729 525.568 347.028 522.462 347.902 519.245 348.143 516.043 347.742 512.985 346.714 510.191 345.101 507.772 342.966 505.824 340.394 504.423 337.487 503.627 334.361 503.454 331.461 503.871 328.262 504.914 325.209 506.541 322.422 508.688 320.014 510.994 318.248 513.88 316.805 516.995 315.962 520.214 315.753 523.096 316.115 526.165 317.112 528.709 318.514 531.191 320.575 533.215 323.088 534.701 325.951 535.591 329.053 535.848 332.269 535.463 335.472"/><line x1="527.86" x2="529.482" y1="353.338" y2="389.531"/><polyline points="498.257 340.157 471.897 399.364 501.5 412.544 527.86 353.338 498.257 340.157 470.275 363.171"/><line x1="424.652" x2="417.66" y1="387.049" y2="349.559"/><polyline points="384.871 340.157 366.067 405.735 398.856 415.137 417.66 349.559 384.871 340.157 359.075 368.245"/><polygon points="392.58 317.897 394.939 315.454 397.439 313.694 400.535 312.297 403.846 311.541 407.241 311.457 410.586 312.046 413.748 313.287 416.332 314.92 418.81 317.243 420.779 320.01 422.161 323.113 422.9 326.428 422.968 329.823 422.361 333.165 421.105 336.32 419.248 339.164 416.864 341.583 414.347 343.318 411.237 344.684 407.918 345.407 404.523 345.458 401.512 344.927 398.338 343.718 395.467 341.904 393.012 339.557 391.071 336.77 389.72 333.653 389.055 330.669 388.953 327.274 389.526 323.927 390.751 320.759"/><line x1="261.491" x2="240.83" y1="411.269" y2="480.883"/><line x1="207.233" x2="195.895" y1="491.339" y2="415.748"/><line x1="158.1" x2="146.761" y1="415.748" y2="491.339"/><polyline points="695.029 353.161 725.029 340.157 747.432 358.956 709.835 403.762 687.432 384.964 725.029 340.157"/><polygon points="738.572 325.548 741.25 324.404 744.101 323.813 747.013 323.798 749.87 324.361 752.559 325.478 754.973 327.107 756.831 328.956 758.471 331.362 759.603 334.045 760.18 336.899 760.18 339.811 759.603 342.665 758.471 345.348 756.831 347.754 754.747 349.788 752.301 351.367 749.59 352.431 747.013 352.912 744.391 352.925 741.529 352.391 738.829 351.3 736.399 349.696 734.335 347.642 732.719 345.22 731.614 342.526 731.066 339.666 731.066 337.044 731.614 334.185 732.719 331.49 734.335 329.068 736.175 327.2"/><line x1="747.432" x2="739.835" y1="358.956" y2="390.758"/><line x1="750.25" x2="797.121" y1="408.325" y2="377.338"/><line x1="815.711" x2="779.995" y1="397.985" y2="441.36"/><line x1="845.654" x2="857.005" y1="389.718" y2="360.804"/><polyline points="838.415 340.157 797.121 377.338 815.711 397.985 857.005 360.804 838.415 340.157 808.473 348.424"/><polygon points="863.873 328.581 866.254 329.988 868.31 331.839 869.958 334.061 871.134 336.565 871.789 339.252 871.9 342.016 871.46 344.747 870.609 347.088 869.19 349.462 867.328 351.509 865.099 353.146 862.589 354.309 860.172 354.911 857.41 355.063 854.673 354.664 852.068 353.731 849.701 352.301 847.664 350.429 846.038 348.191 844.887 345.675 844.297 343.256 844.159 340.493 844.571 337.758 845.517 335.158 846.96 332.798 848.841 330.77 851.087 329.155 853.609 328.017 856.031 327.439 858.795 327.315 861.528 327.741"/><line x1="908.037" x2="859.847" y1="369.676" y2="392.63"/><line x1="883.462" x2="922.797" y1="427.64" y2="391.557"/><line x1="952.058" x2="966.56" y1="387.739" y2="362.039"/><polygon points="957.91 348.723 957.16 346.204 956.924 343.587 957.212 340.975 957.91 338.714 959.143 336.394 960.812 334.364 962.851 332.705 965.177 331.483 967.441 330.796 970.055 330.522 972.671 330.77 974.942 331.434 977.281 332.633 979.335 334.271 981.025 336.284 982.281 338.592 983.056 341.104 983.318 343.719 983.056 346.333 982.281 348.845 981.025 351.153 979.335 353.166 977.5 354.659 975.186 355.904 972.671 356.667 970.055 356.915 967.441 356.64 965.177 355.954 962.851 354.732 960.812 353.073 959.143 351.043"/><polyline points="951.8 340.157 908.037 369.676 922.797 391.557 966.56 362.039 951.8 340.157 922.539 343.976"/></g></svg>