<svg xmlns="http://www.w3.org/2000/svg" xmlns:ev="http://www.w3.org/2001/xml-events" xmlns:xlink="http://www.w3.org/1999/xlink" width="21cm" height="29.7cm" baseProfile="tiny" version="1.2" viewBox="0 0 793.701 1122.52"><metadata/><g id="layer1" fill="none" stroke="#00f" style="display:inline"><polyline points="113.103 303.227 88.911 270.361 80.585 258.123 74.518 248.324 70.37 240.475 67.87 234.039 67.087 229.181 67.303 227.226 68.034 225.401 69.076 224.136 70.706 223.037 74.809 221.89 80.719 221.728 88.574 222.569 97.955 224.282 109.83 226.969 153.173 238.143"/><polyline points="156.804 238.188 108.776 226.928 97.185 224.522 88.426 223.068 80.573 222.345 74.664 222.62 70.608 223.89 69.267 224.837 68.219 226.096 67.472 227.914 67.24 229.865 67.992 234.727 70.461 241.161 74.913 249.593 81.154 259.655 89.47 271.888 114.387 305.824"/><polyline points="115.31 308.356 89.968 273.477 81.522 260.922 75.16 250.548 70.747 242.085 68.211 235.316 67.544 230.445 67.828 228.496 68.63 226.703 69.715 225.473 71.072 224.555 75.147 223.316 81.053 223.041 88.596 223.693 106.731 226.9 160.761 238.608"/><polyline points="165.11 239.433 105.198 227.129 89.325 224.418 81.788 223.761 75.883 224.011 71.795 225.195 70.414 226.076 69.287 227.267 68.416 229.026 68.067 230.961 68.137 233.259 68.699 236.161 71.187 242.951 75.522 251.432 81.971 262.13 90.508 275.011 116.177 310.832"/><polyline points="116.863 313.263 102.315 292.929 91.122 276.685 82.352 263.172 76.016 252.402 71.642 243.565 69.277 236.739 68.779 233.825 68.769 231.529 69.176 229.606 70.099 227.87 71.253 226.707 72.65 225.845 76.746 224.693 82.326 224.452 89.856 225.095 104.122 227.494 145.973 236.205 169.894 240.678"/><polyline points="175.103 242.338 148.912 237.514 104.204 228.07 91.242 225.856 83.717 225.165 78.135 225.343 74.008 226.389 72.303 227.37 71.125 228.509 70.149 230.213 69.637 232.446 69.631 234.745 70.092 237.664 72.478 244.828 76.748 253.717 83.12 264.842 91.738 278.447 103.128 295.343 117.481 315.808"/><polyline points="117.937 318.115 103.798 297.5 92.597 280.479 83.968 266.489 77.582 254.991 73.311 245.741 71.047 238.536 70.627 235.61 70.687 232.986 71.27 230.769 72.286 229.088 73.478 227.963 75.187 226.987 79.313 225.934 85.222 225.767 92.746 226.509 108.268 229.35 156.119 239.833 180.686 244.391"/><polyline points="186.575 246.796 160.424 241.689 111.063 230.294 95.246 227.211 87.403 226.332 81.161 226.411 76.697 227.469 74.964 228.407 73.727 229.484 72.617 231.108 71.9 233.286 71.695 235.904 71.98 238.848 74.104 246.442 78.164 255.787 84.329 267.406 92.907 281.828 104.056 299.29 118.134 320.358"/><polyline points="118.161 322.551 104.353 301.32 93.452 283.71 84.947 268.878 78.859 256.859 74.905 247.109 73.028 239.463 72.85 236.513 73.149 233.902 73.926 231.742 75.278 229.893 76.831 228.684 78.606 227.834 83.422 226.841 89.991 226.881 98.467 227.963 114.878 231.391 165.981 243.896 192.688 249.498"/><polyline points="198.947 252.428 173.28 246.591 120.1 232.778 102.124 228.753 93.009 227.454 86.108 227.279 80.933 228.163 78.816 229.062 77.195 230.184 75.692 231.918 74.716 233.995 74.194 236.568 74.182 239.858 74.692 243.434 75.729 247.58 79.5 257.755 85.466 270.223 93.695 285.211 104.492 303.291 118.015 324.722"/><polyline points="117.694 326.916 104.504 305.314 94.024 287.073 85.946 271.643 80.287 259.062 76.797 248.801 75.88 244.629 75.455 240.71 75.592 237.431 76.193 234.876 77.381 232.542 79.182 230.641 81.135 229.434 83.283 228.621 89.126 227.779 96.668 228.124 106.404 229.665 123.677 233.727 176.27 248.239 205.279 255.514"/><polyline points="211.619 258.681 184.001 251.181 131.258 235.829 110.839 230.728 100.138 228.917 91.935 228.463 88.332 228.748 85.436 229.352 82.979 230.286 81.023 231.493 79.175 233.354 77.877 235.633 77.069 238.477 76.8 241.747 77.067 245.687 77.825 249.888 81.093 260.574 86.445 273.309 94.2 288.923 104.351 307.367 117.201 329.192"/><polyline points="116.545 331.615 104.088 309.576 94.319 290.944 86.934 275.167 81.824 261.994 80.106 256.338 78.924 251.213 78.296 246.655 78.223 242.718 78.73 239.143 79.727 236.362 81.361 233.908 83.319 232.162 85.613 230.885 88.412 229.947 91.651 229.38 95.256 229.169 104.431 229.805 115.747 231.856 126.604 234.507 140.214 238.327 193.319 254.632 217.918 261.861"/><polyline points="224.142 264.999 149.627 241.096 134.181 236.526 121.445 233.24 108.856 230.813 99.037 230.003 95.093 230.159 91.52 230.695 88.375 231.64 85.742 232.981 83.464 234.858 81.705 237.228 80.427 240.249 79.734 243.792 79.612 248.06 80.053 252.64 81.038 257.81 82.555 263.524 87.255 276.857 94.36 293.121 103.716 311.966 115.742 334.253"/><polyline points="114.814 337.17 103.271 314.622 94.239 295.252 87.595 278.786 83.25 264.987 81.901 258.887 81.171 253.68 80.979 249.084 81.351 244.829 82.256 241.33 83.689 238.377 85.758 235.833 88.377 233.857 91.355 232.475 94.525 231.601 98.43 231.063 103.031 230.941 113.827 231.975 127.038 234.661 141.331 238.503 159.236 244.042 230.273 268.055"/><polyline points="236.315 271.012 167.518 246.653 147.792 240.333 131.951 235.956 118.113 233.079 111.921 232.268 106.673 231.933 101.746 232.035 97.511 232.586 93.711 233.629 90.73 235.008 87.826 237.148 85.693 239.64 84.004 242.83 82.894 246.61 82.371 250.849 82.401 255.778 82.954 261.003 84.092 267.143 87.983 281.067 94.26 298.019 102.786 317.614 113.785 340.417"/><polyline points="112.685 344.035 102.007 320.333 93.927 300.178 88.203 283.015 86.176 275.384 84.763 268.622 83.891 262.434 83.577 256.853 83.821 251.928 84.588 247.723 85.905 244.008 87.932 240.629 90.428 238.019 93.422 235.998 96.741 234.568 100.886 233.525 105.461 233.003 110.395 232.947 115.973 233.332 122.49 234.218 137.605 237.462 154.687 242.341 175.611 249.276 200.688 258.3 242.289 273.872"/><polyline points="248.236 276.66 209.024 261.406 182.218 251.452 160.121 243.944 142.132 238.709 126.722 235.341 119.891 234.383 113.989 233.949 108.731 233.985 103.835 234.519 99.369 235.616 95.741 237.151 92.463 239.331 89.923 241.896 87.775 245.195 86.181 249.152 85.184 253.641 84.742 258.878 84.863 264.462 85.558 270.995 86.814 278.117 88.604 285.801 93.904 303.422 101.519 324.082 111.543 348.041"/><polyline points="110.393 352.434 100.809 327.586 93.601 306.077 88.784 287.973 87.197 279.91 86.203 272.75 85.748 266.188 85.85 260.275 86.503 255.06 87.661 250.608 89.362 246.693 91.76 243.165 94.585 240.421 98.18 238.124 102.138 236.526 106.617 235.471 111.843 234.924 117.432 234.912 123.656 235.4 130.814 236.44 146.849 240.028 165.755 245.655 188.42 253.539 216.374 264.196 254.212 279.38"/><polyline points="260.284 282.14 222.559 266.626 194.052 255.527 170.493 247.178 150.974 241.271 134.298 237.479 126.815 236.374 120.26 235.854 114.34 235.872 109.109 236.42 104.309 237.542 100.34 239.121 96.699 241.353 93.561 244.246 91.048 247.698 89.063 251.845 87.665 256.575 86.806 262.094 86.524 268.01 86.788 274.907 87.61 282.429 88.96 290.537 93.407 309.423 100.104 331.452 109.213 357.192"/><polyline points="108.132 362.272 99.429 335.366 93.078 312.223 89.085 292.91 87.909 284.443 87.272 276.581 87.196 269.679 87.661 263.45 88.659 257.956 90.265 252.952 92.332 248.844 95.094 245.171 98.263 242.312 102.196 239.935 106.483 238.275 111.29 237.183 116.848 236.627 123.091 236.645 129.969 237.236 137.442 238.381 145.81 240.128 154.731 242.399 174.836 248.598 199.268 257.411 228.611 269.041 266.521 284.918"/><polyline points="272.924 287.694 233.876 271.155 203.671 259.051 178.66 249.925 157.953 243.459 148.724 241.077 140.044 239.24 132.25 238.031 125.374 237.427 119.129 237.382 113.243 237.94 108.115 239.089 103.822 240.733 99.861 243.064 96.403 246.09 93.575 249.711 91.271 254.063 89.555 259.029 88.362 264.82 87.731 271.362 87.658 278.592 88.121 286.468 89.136 295.283 90.716 305.016 92.862 315.648 98.823 339.566 107.137 367.616"/><polyline points="106.257 373.354 98.229 343.858 92.56 318.86 90.572 307.863 89.136 297.777 88.256 288.618 87.925 280.409 88.141 272.856 88.881 266.327 90.142 260.549 92.009 255.289 94.333 250.946 97.367 247.07 100.82 244.039 105.056 241.531 109.661 239.784 114.791 238.65 120.678 238.09 127.25 238.137 134.448 238.786 142.561 240.071 151.237 241.932 160.781 244.419 182.093 251.13 208.006 260.655 239.097 273.191 279.621 290.441"/><polyline points="286.542 293.125 243.88 274.971 211.565 261.93 185.031 252.154 163.089 245.217 153.551 242.715 144.552 240.764 136.439 239.457 128.911 238.754 122.338 238.681 116.12 239.247 110.667 240.452 106.062 242.203 101.814 244.695 98.1 247.928 95.047 251.793 92.54 256.411 90.63 261.66 89.239 267.747 88.396 274.596 88.093 282.15 88.32 290.695 89.097 300.199 90.421 310.633 92.286 321.989 97.724 348.057 105.518 378.985"/><polyline points="104.947 384.639 97.264 352 92.014 324.892 90.25 313.191 89.016 302.413 88.341 292.905 88.181 284.033 88.559 276.153 89.495 268.987 90.919 262.907 92.959 257.357 95.472 252.744 98.73 248.624 102.444 245.393 106.978 242.742 111.902 240.91 117.364 239.745 123.582 239.2 130.481 239.297 138.009 240.02 146.44 241.396 155.435 243.359 165.602 246.043 188.16 253.21 215.605 263.338 249.144 276.857 293.637 295.712"/><polyline points="300.843 298.171 253.547 278.278 218.743 264.325 190.655 253.995 167.458 246.635 156.963 243.869 147.645 241.844 139.206 240.474 131.348 239.732 124.446 239.65 118.222 240.202 112.443 241.454 107.525 243.314 102.996 245.978 99.274 249.206 95.988 253.308 93.29 258.197 91.219 263.74 89.682 270.13 88.695 277.297 88.236 285.505 88.316 294.382 88.944 304.56 90.114 315.68 91.858 328.054 97 356.199 104.572 390.233"/><polyline points="104.361 395.686 96.782 359.986 91.713 330.834 90.02 318.123 88.893 306.672 88.306 296.169 88.273 286.964 88.797 278.433 89.874 270.95 91.447 264.57 93.667 258.736 96.398 253.865 99.694 249.774 103.677 246.35 108.219 243.712 113.139 241.862 118.916 240.605 125.463 240.024 132.694 240.129 140.546 240.888 149.304 242.321 158.938 244.431 169.428 247.202 193.246 254.747 222.264 265.379 258.002 279.613 308.082 300.479"/><polyline points="315.303 302.612 261.797 280.568 225.099 266.081 195.437 255.29 171.294 247.677 160.485 244.83 150.528 242.659 141.767 241.231 133.587 240.445 126.356 240.348 119.809 240.923 114.027 242.158 108.795 244.11 103.982 246.934 100.022 250.386 96.556 254.761 93.863 259.653 91.659 265.494 90.015 272.195 88.905 280.005 88.379 288.535 88.393 298.068 88.968 308.902 90.086 320.686 91.766 333.732 96.837 363.88 104.443 400.921"/><polyline points="104.775 405.871 97.017 367.201 91.909 336.068 90.236 322.693 89.126 310.584 88.577 299.753 88.576 289.895 89.136 281.042 90.253 273.235 91.977 266.216 94.181 260.378 97.037 255.204 100.514 250.84 104.738 247.195 109.57 244.405 114.807 242.472 120.915 241.193 127.461 240.645 135.017 240.772 143.193 241.578 152.273 243.073 162.225 245.249 173.347 248.177 198.115 255.966 228.402 266.921 266.05 281.654 322.368 304.583"/><polyline points="329.219 306.389 269.428 282.356 231.103 267.518 200.154 256.423 175.364 248.679 163.918 245.677 153.637 243.44 144.554 241.951 136.05 241.118 128.492 240.997 121.615 241.583 115.51 242.882 110.275 244.823 105.437 247.607 101.197 251.235 97.689 255.576 94.65 261.027 92.335 267.176 90.619 274.198 89.462 282.332 88.902 291.189 88.897 301.383 89.456 312.543 90.586 324.986 92.283 338.689 97.498 370.815 105.355 410.485"/><polyline points="106.175 414.729 98.177 374.085 92.877 341.311 91.139 327.284 89.974 314.515 89.391 303.028 89.379 292.836 89.968 283.325 91.124 275.19 92.918 267.848 95.238 261.702 98.268 256.248 101.756 251.891 105.969 248.232 111.078 245.262 116.625 243.224 122.735 241.95 129.61 241.373 137.167 241.491 145.675 242.31 155.083 243.838 165.685 246.136 177.134 249.123 202.562 257.017 233.844 268.142 272.217 282.841 335.779 308.054"/><polyline points="341.986 309.617 274.652 283.258 235.927 268.59 204.305 257.457 178.863 249.627 167.411 246.659 156.81 244.368 147.078 242.792 138.574 241.975 130.69 241.856 123.816 242.443 117.707 243.716 112.156 245.741 107.034 248.684 102.793 252.31 99.081 256.906 96.045 262.354 93.613 268.81 91.831 276.15 90.674 284.283 90.074 293.792 90.077 304.311 90.651 315.796 91.835 328.889 93.605 343.244 99.049 376.985 107.218 418.589"/><polyline points="108.468 422.075 100.149 379.817 94.62 345.743 92.79 331.063 91.582 317.969 90.962 306.148 90.926 295.631 91.476 286.113 92.624 277.646 94.443 269.973 96.838 263.502 99.825 258.024 103.48 253.379 107.93 249.493 113.034 246.515 118.573 244.448 124.999 243.083 131.874 242.485 139.763 242.584 148.27 243.377 158.011 244.924 168.622 247.18 180.404 250.198 206.19 258.06 238.162 269.212 276.647 283.632 347.795 311.125"/><polyline points="353.182 312.634 278.215 284.017 240.29 269.954 208.28 258.886 182.789 251.158 170.683 248.065 160.069 245.811 150.329 244.257 141.489 243.424 133.602 243.317 126.722 243.897 120.287 245.231 114.731 247.254 109.593 250.177 105.091 254.006 101.373 258.601 98.178 264.341 95.753 270.804 93.902 278.47 92.721 286.935 92.129 296.782 92.16 307.633 92.777 319.453 94.013 332.878 95.841 347.563 101.469 382.296 109.91 425.212"/><polyline points="111.529 428.049 103.042 384.812 97.365 349.762 95.496 334.753 94.258 321.329 93.62 309.18 93.587 298.331 94.168 288.487 95.388 279.698 97.242 272.031 99.662 265.569 102.843 259.823 106.543 255.213 111.025 251.361 116.143 248.406 121.686 246.347 128.111 244.975 135.314 244.347 143.202 244.447 152.039 245.267 161.783 246.806 172.4 249.039 184.512 252.107 210.013 259.773 242.05 270.757 279.088 284.358 358.147 314.201"/><polyline points="362.712 315.885 280.157 285.015 244.005 271.843 212.254 261.023 186.739 253.385 174.623 250.324 163.68 248.032 153.933 246.508 145.092 245.7 137.204 245.61 129.999 246.247 123.574 247.625 118.031 249.686 112.643 252.832 108.197 256.727 104.533 261.366 101.384 267.132 98.987 273.604 97.148 281.275 95.934 290.067 95.352 299.914 95.378 310.768 96.003 322.918 97.26 336.673 99.118 351.686 104.754 386.748 113.317 430.649"/><polyline points="115.281 433.097 106.801 389.186 101.167 353.794 99.329 338.78 98.084 325.026 97.461 312.878 97.437 301.7 98.025 291.854 99.237 283.061 101.066 275.388 103.579 268.611 106.749 262.857 110.429 258.231 114.887 254.352 120.283 251.221 125.829 249.171 132.256 247.802 139.459 247.17 147.347 247.262 156.188 248.07 165.933 249.591 176.876 251.877 188.992 254.928 214.199 262.438 245.965 273.202 280.904 285.845 366.924 317.744"/><polyline points="370.852 319.828 281.993 287.095 247.963 274.848 216.499 264.232 191.285 256.747 179.168 253.707 168.546 251.492 158.803 249.964 149.965 249.147 142.078 249.043 134.874 249.659 128.444 251.009 122.89 253.038 117.481 256.144 113.004 260.002 109.302 264.609 106.107 270.348 103.565 277.114 101.709 284.781 100.468 293.567 99.85 303.409 99.841 314.586 100.428 326.736 101.634 340.492 103.429 355.509 109.016 391.24 117.436 435.493"/><polyline points="119.789 437.937 111.46 393.349 105.987 357.613 104.238 342.596 103.072 328.842 102.519 316.694 102.557 305.521 103.2 295.685 104.461 286.905 106.335 279.245 108.891 272.486 112.098 266.757 115.808 262.159 120.291 258.312 125.704 255.216 131.259 253.196 137.688 251.855 144.891 251.247 152.774 251.358 161.608 252.18 171.349 253.712 181.966 255.929 194.079 258.968 218.971 266.345 250.435 276.931 374.575 322.175"/><polyline points="378.175 324.805 253.344 279.37 222.179 268.89 197.276 261.507 185.157 258.464 174.538 256.243 164.796 254.707 155.958 253.88 148.069 253.765 140.865 254.368 134.43 255.704 128.871 257.718 123.451 260.806 118.959 264.645 115.234 269.235 112.008 274.959 109.431 281.712 107.533 289.366 106.242 298.146 105.567 307.986 105.492 319.163 106.005 331.318 107.126 345.082 108.824 360.111 114.172 395.881 122.34 440.517"/><polyline points="125.072 443.304 117.076 398.642 111.852 362.858 110.201 347.826 109.122 334.062 108.642 321.907 108.747 310.731 109.445 300.894 110.756 292.118 112.669 284.468 115.258 277.721 118.492 272.003 122.222 267.418 126.717 263.584 132.139 260.5 137.698 258.49 144.133 257.157 151.337 256.558 159.224 256.677 168.061 257.508 177.801 259.047 188.418 261.271 200.535 264.317 225.433 271.703 256.593 282.183 381.717 327.72"/><polyline points="385.256 330.913 260.432 285.383 228.952 274.775 204.051 267.374 191.933 264.32 181.313 262.089 171.568 260.541 162.729 259.702 154.841 259.574 147.632 260.162 141.194 261.483 135.628 263.481 130.196 266.551 125.687 270.373 121.941 274.948 118.69 280.657 116.081 287.399 114.144 295.047 112.81 303.823 112.084 313.662 111.948 324.841 112.392 337.002 113.43 350.774 115.033 365.817 120.135 401.631 127.959 446.338"/><polyline points="130.968 449.635 123.269 404.586 118.299 368.763 116.748 353.719 115.757 339.945 115.354 327.787 115.528 316.611 116.289 306.779 117.657 298.011 119.627 290.372 122.27 283.645 125.553 277.956 129.325 273.406 133.856 269.612 139.304 266.573 144.877 264.599 151.318 263.3 158.525 262.729 166.414 262.871 175.247 263.72 184.986 265.275 195.923 267.587 208.033 270.657 233.237 278.181 264.693 288.817 298.414 300.955 388.82 334.243"/><polyline points="392.412 338.077 304.24 305.326 269.308 292.649 237.244 281.726 211.737 274.06 199.628 270.969 188.694 268.637 178.629 267.021 169.793 266.175 161.902 266.041 154.696 266.625 148.256 267.942 142.689 269.936 137.255 273.001 132.741 276.818 128.989 281.386 125.725 287.089 123.197 293.51 121.202 301.142 119.806 309.908 119.017 319.74 118.809 330.589 119.18 343.079 120.13 356.858 121.635 371.912 126.481 407.759 134.059 453.173"/><polyline points="137.193 456.906 129.691 410.808 124.972 374.943 123.516 359.886 122.608 346.103 122.278 333.939 122.502 323.091 123.303 313.259 124.706 304.493 126.705 296.861 129.234 290.438 132.498 284.736 136.25 280.167 140.763 276.35 146.2 273.287 151.769 271.298 158.21 269.99 165.418 269.417 173.636 269.586 182.472 270.472 192.531 272.127 203.458 274.497 215.556 277.625 241.355 285.469 273.693 296.607 310.125 309.982 396.01 342.291"/><polyline points="399.686 346.905 316.178 314.974 278.298 300.848 245.412 289.347 219.349 281.295 206.952 278.037 196.04 275.63 185.993 273.938 177.169 273.02 168.958 272.819 161.75 273.361 155.308 274.642 149.733 276.608 144.29 279.648 139.768 283.449 136.007 288.008 132.737 293.702 130.203 300.115 128.196 307.74 126.783 316.498 125.968 326.323 125.725 337.166 126.031 349.322 126.906 363.099 128.32 378.154 132.966 414.336 140.336 460.758"/><polyline points="143.463 464.709 136.181 417.612 131.649 381.412 130.246 366.031 129.409 352.252 129.134 340.095 129.405 329.253 130.247 319.431 131.689 310.678 133.727 303.062 136.299 296.664 139.614 290.996 143.422 286.479 147.991 282.736 153.174 279.9 158.757 277.962 165.206 276.717 172.418 276.216 180.627 276.464 189.445 277.433 199.481 279.18 210.699 281.725 223.076 285.061 249.712 293.476 282.831 305.296 321.847 320.133 403.296 351.907"/><polyline points="406.881 357.246 326.859 325.317 287.019 309.823 253.353 297.527 226.766 288.909 214.411 285.472 203.21 282.829 193.185 280.987 184.372 279.925 176.161 279.579 168.941 279.984 162.472 281.134 156.552 283.113 151.35 285.919 146.765 289.647 142.949 294.162 139.632 299.832 137.065 306.237 135.032 313.858 133.596 322.618 132.755 332.445 132.48 343.292 132.743 355.454 133.534 368.911 134.897 384.308 139.358 420.862 146.559 468.663"/><polyline points="149.62 472.585 142.488 423.771 138.154 387.195 136.834 371.798 136.072 358.334 135.831 346.169 136.122 335.321 136.974 325.494 138.352 317.058 140.361 309.43 142.905 303.015 146.201 297.332 150.005 292.808 154.591 289.079 159.801 286.288 165.731 284.342 172.212 283.24 179.434 282.896 187.642 283.313 196.77 284.505 206.777 286.452 217.952 289.204 230.276 292.754 257.1 301.711 290.665 314.291 330.994 330.36 410.45 362.835"/><polyline points="413.99 368.561 334.542 335.29 294.066 318.752 260.319 305.76 233.589 296.559 220.989 292.802 209.843 289.951 199.858 287.914 190.743 286.642 182.541 286.156 175.319 286.448 168.837 287.514 163.207 289.317 157.974 292.06 153.369 295.761 149.554 300.274 146.4 305.657 143.821 312.055 141.784 319.673 140.383 328.102 139.508 337.925 139.19 348.768 139.399 360.929 140.143 374.714 141.42 390.113 145.658 427.018 152.653 476.495"/><polyline points="155.834 480.406 148.926 429.905 144.816 392.977 143.579 377.574 142.862 363.78 142.669 351.615 142.992 340.77 143.866 330.947 145.261 322.514 147.291 314.892 149.866 308.49 153.024 303.108 156.856 298.608 161.213 295.12 166.449 292.38 172.088 290.603 178.58 289.587 185.808 289.365 194.007 289.936 203.11 291.306 213.074 293.448 224.194 296.415 236.446 300.197 263.407 309.758 297.042 323.06 337.08 339.825 417.474 374.291"/><polyline points="420.859 379.887 338.642 343.869 299.353 327.036 266.143 313.568 239.586 303.868 227.371 299.964 216.285 296.883 206.344 294.639 197.257 293.176 189.396 292.538 182.167 292.665 175.662 293.599 170.006 295.314 164.75 298.014 160.381 301.486 156.549 305.985 153.402 311.372 150.844 317.779 148.83 325.406 147.446 333.839 146.574 343.663 146.242 354.506 146.416 366.668 147.099 380.46 148.287 395.866 152.286 433.132 159.03 484.312"/><polyline points="162.401 488.194 155.794 436.019 151.927 398.419 150.797 383.011 150.161 369.222 150.023 357.061 150.381 346.221 151.274 336.402 152.742 327.654 154.702 320.356 157.281 313.959 160.458 308.591 164.093 304.358 168.468 300.897 173.739 298.233 179.412 296.575 185.595 295.743 192.822 295.673 200.677 296.386 209.424 297.874 219.343 300.204 230.398 303.383 242.57 307.397 268.727 317.212 301.512 330.822 339.455 347.421 424.094 385.214"/><polyline points="427.124 390.159 338.826 350.087 302.797 334.039 270.716 320.45 245.25 310.671 233.108 306.561 222.393 303.39 212.814 301.055 204.081 299.493 196.233 298.727 189.333 298.747 183.144 299.539 177.469 301.182 172.483 303.686 168.096 307.13 164.462 311.364 161.297 316.739 158.736 323.142 156.79 330.444 155.33 339.194 154.435 349.013 154.064 359.852 154.175 372.013 154.77 385.804 155.87 401.544 159.581 439.159 166.001 492.018"/><polyline points="169.865 495.743 163.635 442.184 160.089 404.542 159.045 388.793 158.489 374.998 158.402 362.833 158.784 351.991 159.675 342.169 161.052 333.735 162.939 326.417 165.429 319.982 168.517 314.56 172.087 310.269 176.429 306.766 181.394 304.221 186.747 302.632 192.933 301.813 199.833 301.803 207.357 302.561 215.763 304.092 225.333 306.471 236.032 309.709 247.841 313.792 272.637 323.495 303.74 336.893 429.902 394.631"/><polyline points="432.385 398.575 304.387 339.372 274.262 326.217 250.744 316.862 239.276 312.815 228.915 309.603 219.681 307.236 211.285 305.644 203.77 304.848 197.199 304.829 191.333 305.558 185.968 307.101 180.992 309.623 176.887 312.896 173.286 317.159 170.176 322.567 167.672 328.995 165.773 336.309 164.339 345.067 163.446 354.886 163.049 365.726 163.114 378.215 164.627 407.759 168.046 445.737 174.01 499.319"/><polyline points="178.429 502.697 172.694 448.76 169.441 410.77 168.02 380.895 167.986 368.733 168.393 357.895 169.28 348.075 170.691 339.314 172.557 331.99 175.016 325.545 177.895 320.383 181.411 316.051 185.455 312.703 190.396 310.116 195.429 308.609 201.289 307.834 207.861 307.846 215.047 308.618 223.118 310.163 232.025 312.471 242.061 315.618 253.514 319.715 276.071 328.81 304.337 341.29 434.546 401.966"/><polyline points="436.363 404.802 303.557 342.641 277.122 330.89 256.11 322.347 245.291 318.431 235.577 315.345 226.992 313.089 219.25 311.578 212.062 310.793 205.82 310.782 200.284 311.503 195.248 313.004 190.592 315.431 186.537 318.767 183.024 323.102 180.02 328.571 177.616 335.038 175.793 342.374 174.451 350.812 173.557 360.633 173.133 371.473 173.137 383.637 174.459 413.526 177.587 451.86 183.092 505.83"/><polyline points="187.949 508.675 182.672 454.997 179.667 416.633 178.413 386.734 178.428 374.237 178.865 363.393 179.761 353.569 181.095 345.127 182.902 337.783 185.286 331.305 188.089 326.099 191.544 321.714 195.56 318.33 200.201 315.87 204.914 314.433 210.449 313.686 216.365 313.686 223.231 314.424 230.653 315.866 238.922 318.043 248.319 321.044 258.824 324.874 278.307 332.844 302.929 343.839 396.335 387.884 437.822 407.091"/><polyline points="438.917 408.837 393.551 387.916 302.029 344.661 279.53 334.594 261.592 327.234 251.718 323.614 242.643 320.699 234.702 318.597 227.283 317.161 220.747 316.481 214.835 316.522 209.637 317.277 204.947 318.774 200.63 321.138 196.655 324.565 193.257 328.988 190.511 334.223 188.183 340.714 186.417 348.061 185.109 356.504 184.227 366.322 183.789 377.159 183.761 389.648 184.952 419.528 187.848 457.87 192.935 511.204"/><polyline points="197.975 513.394 193.055 460.692 190.256 422.657 189.101 392.764 189.131 380.271 189.559 369.434 190.419 359.607 191.69 351.159 193.407 343.795 195.67 337.279 198.345 332.005 201.672 327.526 205.591 324.033 209.879 321.615 214.24 320.161 219.432 319.349 225.017 319.269 231.232 319.873 238.336 321.209 245.969 323.201 254.74 326.002 264.308 329.504 280.734 336.237 301.149 345.352 391.518 388.035 439.652 410.059"/><polyline points="439.297 410.608 414.677 400.45 388.716 389.245 304.805 351.384 290.561 345.392 278.589 340.803 263.223 335.978 256.486 334.476 250.63 333.634 245.379 333.376 240.462 333.714 236.285 334.599 232.306 336.144 228.156 338.791 224.65 342.247 221.661 346.567 219.1 351.896 217.02 358.131 215.344 365.502 214.095 373.957 213.243 383.782 212.811 394.623 212.768 406.786 213.859 436.029 216.541 472.423 221.073 519.552"/><polyline points="224.759 520.076 220.273 474.605 217.562 438.555 216.476 409.982 216.513 397.822 216.944 386.986 217.799 377.163 219.052 368.713 220.731 361.345 222.81 355.111 225.364 349.779 228.337 345.449 231.818 341.97 235.939 339.281 239.897 337.687 244.061 336.748 248.971 336.349 254.225 336.548 260.086 337.331 266.516 338.694 281.612 343.26 293.316 347.622 307.3 353.363 389.671 389.772 414.805 400.377 438.895 410.073"/><polyline points="439.042 410.31 398.751 395.077 323.963 365.132 307.92 359.219 294.792 354.932 286.874 352.733 279.497 351.065 272.682 349.97 266.784 349.488 261.197 349.57 256.311 350.219 251.876 351.438 247.978 353.178 243.897 355.935 240.182 359.648 237.162 363.949 234.507 369.234 232.298 375.424 230.479 382.762 229.137 390.871 228.201 400.028 227.667 410.206 227.524 421.714 228.442 448.656 231.008 481.77 235.292 521.987"/><polyline points="236.984 522.757 232.85 483.848 230.413 451.725 229.596 425.438 229.787 413.93 230.377 403.759 231.38 394.607 232.792 386.515 234.592 379.508 236.838 373.333 239.514 368.06 242.743 363.505 246.473 359.807 250.543 357.035 254.731 355.137 259.157 353.888 264.363 353.154 269.948 353.02 275.85 353.429 282.679 354.43 290.079 355.99 298.344 358.164 312.457 362.597 329.484 368.684 402.709 397.195 440.009 411.025"/><polyline points="440.05 410.805 389.732 388.057 300.805 346.221 282.181 337.953 267.267 331.871 258.003 328.496 249.86 325.909 242.544 324.009 235.762 322.739 229.875 322.163 224.291 322.241 219.424 322.995 215.059 324.432 210.773 326.848 206.863 330.351 203.728 334.563 201.032 339.822 198.751 346.333 197.02 353.688 195.733 362.137 194.856 371.955 194.407 382.793 194.353 395.28 195.452 425.17 198.189 463.196 202.986 515.241"/><polyline points="207.881 516.75 203.21 465.997 200.508 428.284 199.411 398.384 199.459 385.891 199.895 375.051 200.752 365.224 202.009 356.77 203.699 349.404 205.927 342.87 208.562 337.577 211.854 333.071 215.489 329.751 219.742 327.273 224.093 325.793 228.632 325.041 233.886 324.899 239.779 325.415 246.249 326.58 253.261 328.357 261.106 330.808 270.075 334.041 284.095 339.712 300.944 347.136 388.805 388.236 440.151 411.142 417.649 401.553 389.416 388.972 301.098 348.048 285.416 341.235 272.583 336.129 263.902 333.061 256.351 330.767 249.645 329.133 243.484 328.092 237.913 327.665 232.661 327.877 228.138 328.717 224.124 330.171 219.911 332.718 216.333 336.1 213.275 340.372 210.657 345.674 208.446 352.213 206.768 359.587 205.521 368.043 204.67 377.868 204.238 388.71 204.192 401.209 205.278 430.782 207.962 468.17 212.576 517.944"/><polyline points="216.995 518.862 212.461 470.726 209.766 433.666 208.671 404.417 208.704 391.923 209.123 381.08 209.957 371.25 211.183 362.789 212.832 355.409 215.002 348.856 217.571 343.528 220.574 339.216 224.097 335.776 228.265 333.157 232.257 331.64 236.767 330.743 241.69 330.479 246.941 330.8 253.112 331.76 259.835 333.333 275.478 338.382 288.033 343.298 302.844 349.646 388.354 388.819 414.546 400.335 439.699 410.944"/><polyline points="438.469 409.72 416.366 401.219 392.877 391.746 314.392 358.621 299.992 353.004 287.887 348.763 272.999 344.62 266.533 343.41 260.649 342.775 255.39 342.715 250.488 343.243 246.344 344.281 242.413 345.95 238.316 348.684 234.837 352.171 231.676 356.775 229.12 362.11 227.022 368.34 225.317 375.709 224.078 383.835 223.208 393.332 222.749 403.85 222.683 415.687 223.739 443.621 226.413 478.051 230.856 520.914"/><polyline points="233.268 521.383 228.884 479.844 226.267 446.409 225.247 418.802 225.335 407.296 225.821 396.782 226.73 387.289 228.012 379.172 229.767 371.815 231.914 365.604 234.514 360.29 237.707 355.709 241.196 352.234 245.285 349.488 249.2 347.785 253.653 346.632 258.55 346.071 263.81 346.078 269.702 346.644 276.178 347.774 291.112 351.734 303.573 355.945 318.335 361.536 396.504 393.673 420.685 403.17 438.588 409.804 415.333 400.658 391.02 390.625 310.448 355.784 296.407 350.162 284.659 345.914 269.827 341.601 263.381 340.31 257.507 339.599 252.251 339.47 247.346 339.938 243.193 340.935 239.254 342.578 235.155 345.304 231.689 348.8 228.72 353.135 226.16 358.468 224.07 364.696 222.376 372.063 221.11 380.516 220.267 390.014 219.819 400.854 219.771 412.686 220.844 440.937 223.553 476.345 228.024 520.505"/><polyline points="238.421 523.679 234.463 485.746 232.193 454.271 231.549 428.311 231.83 417.139 232.495 407.299 233.549 398.487 235.048 390.409 236.932 383.428 239.26 377.284 242.004 372.046 245.279 367.524 249.025 363.842 253.372 360.894 257.558 358.992 262.294 357.637 267.495 356.871 273.078 356.675 279.313 357.031 286.153 357.947 293.893 359.478 302.184 361.547 317.291 366.101 335.62 372.45 407.875 399.786 441.553 412.031"/><polyline points="443.759 413.336 414.035 402.747 342.144 376.347 322.512 369.767 306.412 365.113 297.773 363.073 290.018 361.64 282.841 360.766 276.604 360.478 270.697 360.741 265.503 361.544 260.766 362.897 256.273 364.916 251.903 367.827 248.097 371.448 244.727 375.898 241.869 381.072 239.411 387.166 237.398 394.109 235.771 402.159 234.6 410.957 233.827 420.785 233.446 431.953 233.892 457.252 235.923 487.75 239.638 524.71"/><polyline points="240.891 525.798 237.46 489.798 235.685 459.939 235.39 446.795 235.494 434.963 236.001 424.125 236.881 414.635 238.19 405.86 239.885 398.154 242.022 391.249 244.596 385.205 247.555 380.084 251 375.691 255.105 371.91 259.514 369.054 264.014 367.051 269.067 365.604 274.586 364.746 280.494 364.456 287.062 364.71 294.246 365.515 302.344 366.92 311.002 368.858 327.794 373.497 348.75 380.269 446.67 414.947"/><polyline points="450.277 417.002 355.45 384.371 333.479 377.525 315.68 372.826 306.67 370.927 298.556 369.62 291.033 368.863 284.462 368.674 278.229 369.031 272.713 369.921 267.657 371.36 262.843 373.472 258.406 376.288 254.236 380 250.695 384.319 247.465 389.658 244.789 395.662 242.541 402.534 240.735 410.212 239.357 418.648 238.357 428.132 237.748 438.633 237.528 450.137 237.697 462.962 239.21 492.182 242.308 526.897"/><polyline points="244.004 527.971 241.226 494.233 240.001 465.67 239.972 453.177 240.322 442.01 241.05 431.851 242.196 422.388 243.731 413.983 245.708 406.352 248.013 399.848 250.838 393.915 254.205 388.664 257.851 384.437 262.095 380.812 266.567 378.055 271.389 375.967 276.76 374.441 282.598 373.5 288.828 373.12 295.726 373.271 303.253 373.961 311.701 375.229 320.729 377.022 339.214 381.659 362.204 388.524 454.522 419.207"/><polyline points="459.293 421.732 368.775 392.784 345.061 386.018 325.869 381.455 316.492 379.716 308.026 378.548 300.158 377.914 293.255 377.829 286.697 378.281 280.862 379.256 275.487 380.781 270.646 382.833 265.861 385.712 261.568 389.283 257.645 393.709 254.374 398.636 251.434 404.514 249.012 410.978 246.989 418.264 245.372 426.325 244.115 435.442 243.244 445.597 242.772 456.439 242.669 468.604 243.601 496.21 246.06 529.001"/><polyline points="248.522 529.979 246.369 498.161 245.718 471.21 245.961 459.378 246.564 448.874 247.562 439.062 248.928 430.293 250.709 422.273 252.805 415.352 255.39 408.951 258.328 403.442 261.719 398.597 265.743 394.266 270.105 390.78 274.928 387.966 280.092 385.838 285.475 384.348 291.636 383.333 298.194 382.871 305.426 382.928 313.293 383.506 321.771 384.59 331.166 386.217 350.733 390.603 375.164 397.229 401.628 405.13 464.443 424.578"/><polyline points="469.792 427.739 409.588 409.928 381.767 402.01 356.943 395.614 337.007 391.387 327.602 389.853 318.789 388.798 310.592 388.257 303.363 388.236 296.807 388.7 290.641 389.679 284.926 391.2 279.733 393.253 274.576 396.143 270.149 399.544 266.241 403.532 262.704 408.271 259.614 413.692 256.874 420.023 254.636 426.897 252.786 434.564 251.327 442.984 250.219 452.453 249.485 462.942 249.134 474.111 249.522 500.074 251.393 530.915"/><polyline points="254.638 531.832 253.038 502.283 252.88 477.299 253.337 466.458 254.177 456.302 255.38 447.177 256.916 439.104 258.819 431.787 261.195 424.959 263.936 418.984 267.147 413.628 270.794 408.974 274.793 405.075 279.288 401.761 284.489 398.947 289.701 396.937 295.422 395.433 301.587 394.44 308.472 393.923 315.704 393.899 323.907 394.368 332.732 395.325 342.484 396.799 362.797 400.846 387.712 406.915 416.281 414.63 475.147 431.208"/><polyline points="480.316 434.973 422.835 419.606 393.538 412.112 368.549 406.367 347.873 402.505 329.275 400.259 321.07 399.844 313.839 399.893 306.957 400.405 300.464 401.425 294.734 402.891 289.497 404.834 284.527 407.38 279.93 410.549 275.799 414.306 271.996 418.833 268.783 423.798 265.853 429.679 263.404 436.13 261.326 443.396 259.643 451.438 258.351 460.218 257.438 469.706 256.873 480.21 256.813 504.202 258.191 532.768"/><polyline points="261.961 533.772 260.792 506.837 261.01 483.829 261.655 473.66 262.642 464.509 264.002 456.071 265.74 448.377 267.847 441.46 270.426 435.06 273.331 429.533 276.652 424.64 280.329 420.436 284.517 416.742 289.155 413.631 294.452 411 299.709 409.113 305.447 407.68 311.942 406.665 318.823 406.132 326.383 406.046 334.592 406.41 353.214 408.485 373.935 412.108 398.997 417.535 428.394 424.645 485.122 439.022"/><polyline points="489.415 443.341 434.087 430 404.265 423.16 378.804 417.962 358.026 414.575 339.373 412.69 331.154 412.396 323.591 412.533 316.707 413.096 310.21 414.121 304.465 415.543 299.191 417.4 293.865 419.977 289.179 423.024 284.927 426.65 281.175 430.791 277.77 435.631 274.927 440.822 272.355 446.876 270.223 453.446 268.433 460.797 267.009 468.895 265.949 477.712 265.247 487.225 264.858 508.929 265.847 534.901"/><polyline points="269.747 536.218 268.937 511.56 269.484 490.846 270.269 481.668 271.412 473.193 272.914 465.443 274.766 458.449 277.058 451.935 279.661 446.257 282.665 441.156 286.026 436.691 289.905 432.668 294.265 429.173 299.033 426.256 304.111 423.918 309.403 422.122 315.481 420.675 321.985 419.692 328.872 419.143 336.435 418.995 344.654 419.256 363.319 421.01 384.126 424.202 409.32 429.064 439.536 435.639 493.084 447.919"/><polyline points="496.063 452.739 444.341 441.422 414.071 435.162 388.838 430.557 368.008 427.564 349.337 425.961 341.119 425.752 333.56 425.933 326.679 426.497 320.176 427.475 314.094 428.895 308.788 430.648 303.684 432.922 298.872 435.76 294.695 438.954 290.709 442.868 287.233 447.241 284.11 452.265 281.524 457.588 279.207 463.739 277.304 470.376 275.731 477.774 274.55 485.575 273.668 494.408 272.94 514.45 273.564 537.79"/><polyline points="277.222 539.678 276.792 517.656 277.68 498.619 278.599 490.45 279.894 482.67 281.525 475.627 283.464 469.345 285.786 463.551 288.493 458.291 291.552 453.619 295.125 449.326 298.946 445.717 303.442 442.404 308.305 439.657 313.439 437.458 318.762 435.76 324.849 434.378 331.353 433.415 338.231 432.849 354.005 432.815 372.353 434.254 393.201 437.058 418.466 441.424 448.783 447.399 498.333 457.78"/><polyline points="499.919 463.002 452.874 453.51 422.513 447.786 397.538 443.691 376.669 441.059 358.31 439.756 342.54 439.877 335.663 440.465 329.163 441.433 323.07 442.803 317.741 444.474 312.587 446.627 307.692 449.314 303.4 452.35 299.49 455.863 296.013 459.803 292.814 464.381 289.968 469.565 287.631 474.998 285.647 480.918 283.94 487.605 282.553 495.035 281.539 502.857 280.454 520.897 280.664 541.933"/><polyline points="283.86 544.585 283.892 524.53 285.182 507.487 286.291 500.007 287.766 492.928 289.537 486.596 291.673 480.729 294.178 475.368 297.023 470.561 300.16 466.341 303.743 462.493 307.744 459.082 312.105 456.146 317.054 453.554 322.241 451.477 327.592 449.864 333.692 448.536 340.201 447.591 347.078 447.01 362.853 446.861 381.224 448.091 402.109 450.623 427.112 454.598 457.185 460.129 500.726 468.757"/><polyline points="501.112 474.1 460.452 466.245 430.68 460.967 405.984 457.232 385.083 454.872 367.041 453.805 351.273 454.047 344.075 454.692 337.573 455.668 331.477 457.012 326.13 458.624 320.937 460.683 316.256 463.074 311.845 465.931 307.774 469.255 304.103 473.015 300.866 477.157 297.909 481.892 295.423 486.894 293.256 492.399 291.338 498.682 289.789 505.408 288.589 512.536 287.082 528.895 286.803 547.624"/><polyline points="289.538 550.956 290.11 532.875 291.849 517.516 293.153 510.734 294.786 504.365 296.761 498.435 299.076 492.987 301.71 488.058 304.622 483.676 307.966 479.615 311.73 475.94 315.603 472.887 320.047 470.072 325.047 467.574 330.259 465.551 335.937 463.873 342.042 462.55 355.425 460.933 371.205 460.584 389.27 461.51 409.88 463.671 434.298 467.178 463.482 472.17 500.978 479.247"/><polyline points="500.397 484.284 465.797 477.857 437.568 473.18 413.779 469.927 393.157 467.932 375.089 467.165 359.314 467.651 345.945 469.358 339.843 470.705 334.168 472.387 328.952 474.393 323.934 476.853 319.455 479.613 315.531 482.599 311.921 485.958 308.457 489.915 305.411 494.204 302.628 499.052 300.286 504.127 298.238 509.679 296.498 515.679 295.004 522.421 292.959 537.405 292.102 554.485"/><polyline points="294.521 558.14 295.708 541.735 298.036 527.456 299.639 521.075 301.447 515.437 303.654 509.944 306.151 504.942 308.9 500.456 312.053 496.244 315.607 492.364 319.281 489.072 323.524 485.961 328.045 483.27 333.089 480.859 338.317 478.877 343.994 477.197 350.093 475.833 363.786 474.016 379.23 473.427 396.983 474.02 417.297 475.811 440.46 478.813 467.422 483.142 499.459 489.014"/><polyline points="498.446 493.35 468.978 488.014 443.292 484.018 420.756 481.263 400.747 479.683 382.986 479.281 367.545 480.051 353.871 482.019 347.783 483.438 342.115 485.154 336.892 487.153 331.844 489.56 327.305 492.224 323.026 495.288 319.059 498.746 315.661 502.324 312.406 506.459 309.538 510.872 306.906 515.806 304.671 520.933 302.698 526.517 301.002 532.535 298.398 546.099 296.862 561.818"/><polyline points="299.197 565.559 301.093 550.554 304.036 537.406 305.817 531.762 307.958 526.245 310.348 521.193 313.127 516.345 316.118 512.018 319.475 507.97 322.946 504.467 326.965 501.075 331.272 498.057 335.821 495.415 340.865 493.009 346.386 490.88 352.043 489.14 358.116 487.68 371.76 485.583 387.182 484.649 404.276 484.85 423.63 486.18 445.517 488.682 469.901 492.352 497.094 497.22"/><polyline points="495.704 500.576 470.432 496.114 447.314 492.766 426.377 490.551 407.66 489.467 390.883 489.481 375.794 490.596 362.494 492.795 356.428 494.305 350.468 496.185 345.258 498.218 340.206 500.613 335.356 503.396 331.023 506.381 326.955 509.719 323.417 513.157 319.962 517.126 316.851 521.371 314.087 525.849 311.515 530.814 309.176 536.253 307.197 541.834 303.89 554.563 301.607 568.856"/><polyline points="304.174 571.788 306.94 557.923 310.647 545.652 315.235 535.104 317.97 530.23 320.87 525.841 324.094 521.685 327.637 517.797 331.482 514.208 335.605 510.94 339.969 508.005 344.832 505.25 355.084 500.808 366.757 497.401 380.027 495.031 394.762 493.743 411.201 493.522 429.266 494.375 448.901 496.278 470.726 499.299 494.382 503.4"/><polyline points="493.225 505.698 471.182 501.967 450.65 499.266 431.987 497.631 414.579 497.011 398.81 497.43 384.423 498.884 371.513 501.353 359.875 504.865 349.646 509.349 344.781 512.096 340.399 515.002 336.241 518.221 332.336 521.742 328.709 525.549 325.375 529.615 319.441 538.685 314.463 549.05 310.371 560.846 307.094 574.255"/><polyline points="310.202 576.174 314.178 562.956 318.705 551.673 323.937 541.803 330.146 532.917 337.272 525.191 345.406 518.535 354.659 512.891 364.862 508.346 376.465 504.72 389.022 502.159 403.064 500.554 418.167 499.961 434.6 500.35 452.619 501.75 471.867 504.139 492.306 507.489"/><polyline points="491.638 508.799 472.123 505.749 454.136 503.696 437.388 502.583 421.592 502.408 407.133 503.178 393.755 504.895 381.533 507.547 370.265 511.189 360.071 515.794 351.072 521.256 343.088 527.598 335.753 535.147 329.226 543.82 323.56 553.466 318.451 564.516 313.671 577.486"/><polyline points="317.572 578.154 323.531 564.971 329.251 554.235 335.343 544.866 341.953 536.684 349.209 529.533 357.259 523.287 365.983 518.028 375.846 513.511 386.754 509.863 398.607 507.136 411.301 505.33 425.081 504.401 439.872 504.362 455.961 505.232 472.966 506.995 491.189 509.679"/><polyline points="490.905 510.208 473.947 507.891 457.89 506.412 443.096 505.787 428.945 505.993 415.824 507.04 403.472 508.958 392.279 511.671 381.703 515.313 372.447 519.592 363.975 524.652 356.106 530.605 348.701 537.617 342.268 545.101 336.139 553.663 330.288 563.199 322.002 578.172"/><polyline points="327.048 577.561 344.689 551.387 350.591 543.897 356.601 537.366 363.665 530.964 371.069 525.498 379.272 520.644 387.917 516.626 397.838 513.124 408.67 510.379 420.017 508.473 432.456 507.304 445.605 506.924 459.739 507.322 474.813 508.513 490.81 510.499"/><polyline points="490.683 510.693 475.98 509.053 461.872 508.112 448.725 507.897 436.252 508.402 424.805 509.598 413.805 511.551 403.636 514.221 394.052 517.678 386.022 521.448 378.652 525.773 371.716 530.764 365.028 536.593 359.972 541.763 354.826 547.743 338.923 569.097 332.768 576.369"/><polyline points="339.175 574.671 342.685 571.696 346.564 567.674 363.975 545.812 369.029 540.187 373.961 535.352 379.997 530.271 386.45 525.735 393.282 521.785 400.424 518.435 409.062 515.256 418.577 512.658 428.912 510.705 439.689 509.453 451.18 508.844 463.675 508.888 476.809 509.596 490.562 510.95"/><polyline points="490.419 511.441 477.616 510.334 465.449 509.814 454.252 509.88 443.414 510.535 433.279 511.783 423.906 513.601 415.02 516.046 406.686 519.126 400.13 522.207 394.131 525.642 388.433 529.556 383.07 533.918 378.287 538.44 373.364 543.754 360.346 559.904 356.014 564.862 351.188 569.335 346.229 572.564"/><polyline points="353.839 570.159 356.601 569.1 359.488 567.532 362.164 565.622 365.108 563 369.749 557.891 382.778 541.787 387.522 536.772 392.128 532.554 397.044 528.701 401.972 525.425 407.135 522.529 412.794 519.887 420.185 517.133 428.411 514.824 437.122 513.082 446.57 511.857 456.739 511.173 467.264 511.036 478.44 511.423 490.243 512.334"/><polyline points="490.041 513.778 479.198 513.007 468.673 512.696 458.805 512.872 449.618 513.524 441.137 514.633 433.072 516.24 425.472 518.363 418.688 520.881 413.029 523.538 407.617 526.664 402.77 530.058 397.979 534.074 391.34 540.919 378.658 556.898 373.131 562.522 370.478 564.465 367.886 565.89 365.122 566.946 361.911 567.657"/><polyline points="370.189 565.031 373.794 564.744 376.984 563.963 379.992 562.649 383.002 560.653 387.681 556.047 398.866 541.426 405.826 533.995 410.106 530.4 414.697 527.219 419.56 524.466 424.637 522.138 430.818 519.907 437.798 518.021 444.898 516.652 452.735 515.658 461.25 515.08 470.132 514.932 479.652 515.201 489.837 515.898"/><polyline points="489.672 518.777 471.568 517.83 463.336 517.92 455.784 518.375 448.583 519.213 442.102 520.388 436.046 521.936 430.438 523.861 425.622 525.996 421.029 528.563 416.97 531.382 413.209 534.583 407.229 541.154 397.352 554.734 392.896 559.107 389.798 560.972 386.377 562.14 382.787 562.616 378.511 562.469"/><polyline points="386.669 560.075 391.562 560.712 395.827 560.581 399.339 559.732 402.543 558.072 404.58 556.411 406.788 553.976 415.301 541.475 420.517 535.566 423.771 532.794 427.577 530.204 431.632 528.033 436.183 526.14 441.207 524.556 446.656 523.302 452.498 522.374 459.039 521.739 473.177 521.454 489.604 522.455"/><polyline points="489.704 526.921 474.917 525.82 462.092 525.825 450.968 526.934 441.699 529.125 437.695 530.625 433.864 532.527 430.556 534.673 427.533 537.206 423.055 542.451 415.892 553.874 414.145 555.837 412.075 557.453 408.761 558.878 404.861 559.413 400.265 559.125 394.464 557.933"/><polyline points="401.716 556.097 408.076 557.822 413.268 558.638 417.527 558.569 420.974 557.559 422.892 556.302 424.674 554.376 430.301 544.359 432.227 541.696 434.244 539.539 436.784 537.462 439.869 535.582 443.474 533.982 447.223 532.785 455.625 531.216 465.45 530.602 476.947 530.904 490.054 532.123"/><polyline points="490.748 537.972 478.948 536.617 468.809 536.041 459.912 536.23 452.743 537.158 448.923 538.117 445.855 539.259 442.957 540.809 440.609 542.609 438.818 544.531 437.344 546.707 433.03 555.559 431.43 557.196 429.7 558.121 426.156 558.724 421.583 558.34 415.813 557.016 408.28 554.591"/><polyline points="414.053 553.406 422.13 556.385 428.726 558.399 433.569 559.373 437.185 559.445 439.37 558.788 440.849 557.503 441.78 555.768 443.757 550.178 446.018 546.953 449.227 544.676 453.218 543.18 460.039 542.064 468.587 541.888 479.098 542.635 491.875 544.365"/><polyline points="493.52 551.32 481.781 549.377 472.002 548.296 464.089 548.056 457.882 548.666 454.138 549.809 451.657 551.423 450 553.843 448.339 559.84 447.077 560.847 445.138 561.158 441.232 560.622 435.875 559.078 418.983 552.505"/><polyline points="423.065 551.836 443.655 560.75 449.548 562.848 453.075 563.617 454.377 563.525 455.155 562.967 455.62 558.744 456.702 556.742 458.945 555.404 462.46 554.655 468.083 554.52 475.584 555.169 484.716 556.578 495.738 558.778"/><polyline points="498.541 566.704 479.505 562.477 472.336 561.403 467.086 561.073 463.806 561.364 461.722 562.275 461.024 563.711 461.417 566.632 460.215 566.849 457.098 565.803 451.082 563.174 426.341 551.356"/><polyline points="428.882 551.192 466.832 570.936 467.049 570.871 466.072 569.159 466.143 568.517 466.618 568.088 468.526 567.712 472.138 567.916 484.089 570.253 501.892 575.044"/><polyline points="505.723 583.724 489.362 578.519 477.95 575.344 473.095 574.361 470.827 574.367 470.85 574.905 471.663 575.469 472.167 575.487 469.048 573.066 461.528 568.38 430.767 551.07"/><polyline points="432.002 551.135 453.903 564.029 468.591 573.388 474.692 577.919 476.119 579.273 476.812 580.367 476.461 580.829 475.152 580.706 486.364 584.139 509.95 592.659"/><polyline points="505.262 595.035 521.413 606.981 535.433 617.895 547.577 627.982 557.585 637.014 565.924 645.424 572.311 652.948 576.907 659.76 579.666 665.715 580.673 669.868 580.741 673.802 579.796 677.624 577.928 681.092 575.652 683.9 572.556 686.848 559.507 696.864 554.389 701.498 552.019 704.232 550.154 706.94 548.648 709.861 547.652 712.649 546.938 716.192 546.76 719.8 547.104 723.733 547.907 727.591 549.188 731.677 551.062 736.233 556.408 746.064"/><polyline points="556.729 742.349 550.701 732.146 548.49 727.375 546.899 723.048 545.751 718.593 545.227 714.684 545.219 711.066 545.742 707.49 546.59 704.656 547.958 701.667 551.779 696.327 556.76 691.545 569.054 681.634 571.834 678.831 574.016 675.949 575.728 672.402 576.453 668.866 576.28 664.933 575.191 660.804 572.352 654.869 567.721 648.087 561.326 640.576 553.232 632.383 543.246 623.301 531.407 613.371 517.715 602.583 502.164 590.923"/><polyline points="498.79 587.316 514.251 599.07 527.607 609.734 539.129 619.516 548.821 628.42 556.653 636.398 562.835 643.651 567.506 650.406 570.409 656.29 571.579 660.397 571.852 664.322 571.224 667.874 569.763 671.173 567.884 673.867 565.2 676.755 553.649 686.517 549.033 691.193 547.061 693.822 545.432 696.676 544.231 699.733 543.559 702.611 543.263 706.212 543.531 710.149 544.381 714.328 545.795 718.706 547.733 723.241 550.313 728.195 557.071 738.711"/><polyline points="557.403 735.175 549.697 724.098 546.737 718.965 544.445 714.236 542.688 709.62 541.602 705.488 541.084 701.583 541.134 697.965 541.69 694.725 542.628 691.92 543.95 689.274 545.794 686.551 550.028 681.96 561.105 672.14 563.48 669.412 565.249 666.644 566.526 663.267 566.929 659.682 566.507 656.095 565.216 652.018 562.196 646.181 557.653 639.726 551.448 632.481 543.62 624.506 534.194 615.808 522.932 606.169 509.889 595.648 495.006 584.197"/><polyline points="491.027 581.528 517.818 602.857 528.784 612.311 537.963 620.805 545.588 628.54 551.844 635.736 556.478 642.12 559.652 647.881 561.109 651.904 561.746 655.794 561.488 659.394 560.467 662.514 559 665.084 556.734 667.903 546.122 677.751 542.273 682.245 540.58 685.064 539.451 687.799 538.755 690.673 538.498 693.624 538.718 697.233 539.59 701.416 541.074 705.771 543.115 710.272 545.814 715.164 549.185 720.432 557.699 731.745"/><polyline points="557.947 728.405 548.436 716.644 541.567 706.226 539.14 701.549 537.397 697.294 536.231 693.19 535.7 689.285 535.757 686.329 536.273 683.42 537.265 680.637 538.682 678.043 542.177 673.694 552.09 664.09 554.064 661.466 555.422 658.842 556.267 655.674 556.308 652.071 555.572 648.538 554.015 644.562 550.752 638.864 546.268 632.78 540.218 625.831 532.631 618.102 523.479 609.575 512.831 600.309 486.711 579.25"/><polyline points="482.067 577.068 507.283 597.682 517.654 606.79 526.529 615.096 533.918 622.598 540.003 629.49 544.579 635.514 547.991 641.13 549.712 645.037 550.706 648.841 550.85 652.449 550.16 655.653 548.895 658.321 547.183 660.732 538.169 669.842 535 674.03 533.709 676.688 532.971 679.21 532.635 682.144 532.779 685.094 533.566 688.954 534.977 692.987 537.095 697.445 539.911 702.264 547.604 712.933 558.136 725.121"/><polyline points="558.527 721.841 546.946 709.27 538.415 698.412 535.182 693.469 532.806 689.145 531.001 684.916 529.94 681.122 529.574 678.189 529.702 675.24 530.297 672.684 531.336 670.272 534.177 666.256 542.297 657.66 543.897 655.176 544.882 652.744 545.37 649.505 545.065 646.239 543.933 642.465 541.951 638.323 538.403 632.784 533.756 626.84 527.831 620.219 520.446 612.748 501.721 595.728 477.135 575.404"/><polyline points="471.996 573.9 495.717 593.697 514.196 610.528 521.388 617.749 527.36 624.303 532.107 630.18 535.798 635.62 537.95 639.68 539.304 643.377 539.863 646.614 539.65 649.881 538.837 652.376 537.348 654.926 530.085 662.972 527.576 666.814 526.696 669.288 526.33 671.887 526.447 674.507 527.042 677.404 528.373 681.113 530.432 685.229 533.202 689.695 536.857 694.75 546.217 705.786 558.603 718.499"/><polyline points="558.657 715.017 545.24 701.919 535.089 690.704 528.242 681.478 525.785 677.201 524.22 673.582 523.425 670.738 523.127 668.126 523.29 665.834 523.903 663.621 526.047 659.941 532.646 652.188 533.846 649.852 534.485 647.31 534.479 644.355 533.657 640.847 532.11 637.22 529.808 633.236 525.992 627.889 521.158 622.079 515.117 615.563 507.889 608.371 489.911 591.989 466.757 572.509"/><polyline points="461.55 571.181 483.915 590.095 501.677 606.238 514.821 619.59 519.76 625.308 523.735 630.546 526.376 634.712 528.245 638.552 529.281 642.007 529.499 644.952 529.12 647.215 528.083 649.626 522.154 657.078 520.514 660.286 520.069 662.538 520.125 664.833 521.588 669.867 523.383 673.378 526.064 677.516 533.717 686.958 544.449 698.085 558.654 711.317"/><polyline points="558.536 707.259 543.782 694.115 532.244 682.831 524.002 673.434 521.115 669.431 519.11 666.031 517.295 661.107 517.092 658.818 517.365 656.868 518.729 653.889 523.652 647.31 524.575 644.852 524.792 642.563 524.358 639.644 523.113 636.245 521.082 632.489 518.12 628.139 514.014 622.987 508.972 617.333 495.943 604.305 478.381 588.407 456.518 569.869"/><polyline points="451.803 568.531 472.889 586.394 490.018 601.771 503.17 614.651 512.537 625.231 515.668 629.455 518.079 633.367 519.583 636.646 520.389 639.829 520.405 642.124 519.821 644.341 518.715 646.356 515.429 650.873 514.403 653.629 514.333 655.595 514.696 657.528 516.703 662.015 519.07 665.573 522.14 669.429 530.697 678.521 542.74 689.717 558.232 702.985"/><polyline points="557.663 698.364 541.665 685.164 529.108 674.03 520.261 665.207 514.486 658.043 512.202 653.686 511.718 651.777 511.668 650.138 512.416 647.634 516.022 641.763 516.485 639.518 516.312 637.228 515.318 634.102 513.491 630.597 510.736 626.519 507.263 622.139 497.676 611.742 484.62 599.21 467.894 584.334 447.534 567.136"/><polyline points="443.811 565.669 463.738 582.387 480.047 596.727 492.985 608.903 502.539 618.895 506.545 623.678 509.446 627.68 511.435 631.088 512.646 634.14 513.027 636.404 512.768 638.681 511.998 640.494 509.782 644.149 509.234 646.369 509.879 649.572 512.36 653.816 518.168 660.524 527.488 669.343 540.273 680.216 556.749 693.359"/><polyline points="558.722 695.311 577.726 706.506 594.159 716.843 607.984 726.314 618.956 734.735 627.505 742.429 633.344 749.11 635.339 752.127 636.798 755.074 637.648 757.904 637.849 760.519 637.003 764.014 634.972 766.989 631.409 769.891 626.46 772.478 620.601 774.655 613.321 776.721 581.489 783.604 568.804 787.091 562.969 789.335 558.306 791.768 554.877 794.312 552.302 797.287"/><polyline points="554.22 795.166 556.089 792.087 558.979 789.415 563.191 786.855 568.626 784.511 580.589 780.908 611.323 773.666 618.546 771.421 624.029 769.184 628.86 766.39 632.012 763.515 633.855 760.422 634.484 756.881 634.167 754.278 633.231 751.47 631.721 748.557 629.492 745.301 623.341 738.464 614.705 730.841 603.435 722.322 589.815 713.11 573.328 702.857 554.276 691.763"/><polyline points="555.423 687.941 538.477 674.883 525.492 664.279 516.201 655.921 510.175 649.417 507.82 645.859 506.876 642.74 507.274 640.492 509.739 635.502 509.861 633.213 509.342 630.979 507.826 627.702 505.502 624.118 498.124 615.297 488.413 605.49 475.594 593.686 459.692 579.906 440.701 564.129"/><polyline points="438.226 562.534 459.846 580.332 477.266 595.411 490.495 607.775 499.734 617.596 504.124 623.349 506.561 628.007 507.046 629.916 507.045 631.881 506.578 633.454 504.825 636.986 504.739 639.261 506.428 642.803 510.242 647.326 516.708 653.41 526.064 661.205 553.633 682.087"/><polyline points="551.356 675.784 523.192 655.229 513.963 647.829 507.643 642.097 504.183 638.137 502.593 634.919 502.645 632.967 504.538 628.437 504.535 626.473 504.022 624.575 501.506 619.973 496.812 614.045 487.436 604.363 474.351 592.395 457.309 577.898 436.366 560.917"/><polyline points="435.059 559.329 455.672 575.748 472.341 589.671 485.102 601.111 494.37 610.453 498.958 616.041 501.614 620.586 502.197 622.468 502.265 624.431 500.55 628.683 500.487 630.31 501.931 633.238 505.234 636.898 511.432 642.3 520.559 649.328 548.592 669.027"/><polyline points="545.365 661.822 517.562 643.05 508.848 636.61 502.797 631.546 499.871 628.448 498.46 625.874 498.459 624.25 499.836 621.273 500.121 619.996 500.011 618.363 499.398 616.494 496.859 612.28 492.212 606.755 483.078 597.764 470.481 586.719 454.195 573.405 434.216 557.823"/><polyline points="433.737 556.442 453.152 571.212 469.095 583.926 481.347 594.408 490.149 602.847 494.872 608.315 497.425 612.533 497.92 614.099 497.998 615.734 496.433 619.331 496.333 620.948 497.391 622.97 500.112 625.833 505.739 630.386 514.333 636.479 541.713 654.177"/><polyline points="537.679 646.12 511.057 629.741 502.878 624.231 497.417 620.02 495.102 617.699 494.037 615.684 494.197 614.399 495.78 611.178 495.721 609.543 495.204 607.993 492.563 603.847 487.946 598.708 479.272 590.657 467.397 580.797 452.049 568.903 433.532 555.206"/><polyline points="433.512 554.119 451.446 566.983 466.179 578.059 477.731 587.369 486.031 594.859 490.49 599.702 492.968 603.564 493.436 605.13 493.4 606.44 491.755 609.265 491.568 610.219 492.241 611.695 494.326 613.788 499.369 617.501 507.121 622.446 533.322 637.695"/><polyline points="528.721 628.963 502.968 614.916 495.62 610.534 491.026 607.349 489.377 605.755 488.866 604.568 490.845 601.244 490.806 599.939 490.371 598.703 487.963 595.164 483.627 590.661 475.686 583.77 464.774 575.284 450.653 565.027 433.573 553.187"/><polyline points="433.599 552.416 463.001 572.492 473.309 580.192 480.913 586.496 485.354 590.898 487.604 594.119 487.984 595.375 487.892 596.348 485.879 598.852 486.31 599.714 487.542 600.795 491.429 603.268 498.367 607.068 523.974 620.001"/><polyline points="517.407 622.199 535.391 634.365 550.9 645.473 564.187 655.7 575.229 665.036 584.02 673.46 590.731 681.132 595.295 687.945 596.88 691.203 597.948 694.309 598.571 698.526 598.028 702.749 596.438 706.347 593.607 709.963 590.425 712.814 586.409 715.677 569.943 725.303 563.918 729.303 558.698 733.816 555.067 738.473 553.716 741.104 552.76 743.901 552.231 746.809 552.13 750.095 552.485 753.357 553.308 756.878 556.237 764.205"/><polyline points="556.557 767.493 553.948 760.745 553.261 757.528 553.008 754.581 553.17 751.631 553.697 749.054 554.723 746.28 556.162 743.696 559.971 739.176 565.347 734.85 571.492 731.025 588.494 721.658 592.857 718.715 596.115 715.949 599.064 712.423 600.883 708.569 601.462 704.351 600.846 700.13 599.769 697.026 598.168 693.774 593.556 686.988 586.783 679.365 577.92 671.01 566.79 661.763 553.407 651.647 537.524 640.489 519.416 628.487"/><polyline points="521.41 634.857 539.614 646.678 555.322 657.488 569.052 667.659 580.258 676.79 589.428 685.28 596.251 692.845 600.901 699.594 602.516 702.837 603.598 705.935 604.205 710.153 603.591 714.361 601.72 718.185 598.478 721.886 594.883 724.755 590.444 727.572 572.936 736.651 566.687 740.287 561.164 744.418 557.384 748.518 555.821 751.027 554.789 753.443 554.145 755.988 553.903 758.602 554.077 761.554 554.653 764.456 556.979 770.597"/><polyline points="557.444 773.514 555.373 767.971 554.788 762.756 555.111 760.144 555.764 757.938 556.905 755.568 558.394 753.401 562.348 749.455 567.749 745.702 574.106 742.237 592.156 733.443 596.955 730.571 600.634 727.8 604.01 724.21 606.045 720.465 606.83 716.28 606.256 711.726 605.173 708.615 603.556 705.384 598.861 698.642 591.972 691.108 582.984 682.9 571.698 673.835 557.87 663.757 541.778 652.885 523.441 641.213"/><polyline points="525.558 647.467 544.256 659.146 560.424 669.881 574.319 679.845 585.659 688.825 594.921 697.203 601.805 704.728 606.441 711.495 608.001 714.76 608.911 717.574 609.376 721.806 608.53 725.976 606.421 729.676 602.72 733.404 598.69 736.244 593.814 738.974 575.266 747.443 568.818 750.724 563.301 754.297 559.438 757.856 556.765 761.979 556.017 764.154 555.654 766.423 556.02 770.998 557.907 776.249"/><polyline points="558.318 778.81 556.697 774.153 556.47 769.9 556.852 767.966 557.691 765.825 560.367 762.096 564.383 758.7 569.74 755.484 576.28 752.376 595.35 744.235 600.593 741.48 604.707 738.755 608.546 735.168 610.957 731.263 611.883 727.109 611.454 722.87 610.547 720.053 608.978 716.79 604.299 710.045 597.352 702.564 588.269 694.465 576.858 685.559 562.879 675.694 546.615 665.079 527.809 653.544"/><polyline points="530.238 659.382 548.844 670.601 565.179 681.083 579.226 690.837 590.699 699.652 599.834 707.679 606.817 715.098 611.532 721.828 613.097 725.076 613.995 727.9 614.371 732.139 613.347 736.269 610.831 740.101 606.903 743.592 602.447 746.384 596.841 749.144 577.284 756.935 570.668 759.862 565.212 762.906 561.32 765.927 558.629 769.234 557.237 772.903 557.226 776.829 558.625 781.207"/><polyline points="558.776 783.456 557.693 779.665 557.844 776.071 559.268 772.764 562.098 769.578 566.111 766.714 571.367 763.988 578.056 761.221 598.719 753.535 604.392 750.905 608.928 748.237 612.98 744.894 615.676 741.179 616.515 739.038 616.892 737.104 616.65 732.855 615.803 730.02 614.415 727.031 612.347 723.683 609.765 720.276 602.767 712.845 593.603 704.852 582.082 696.094 567.973 686.421 551.566 676.038 532.882 664.937"/><polyline points="535.772 670.179 554.519 681.18 570.981 691.477 584.872 700.892 596.441 709.589 605.644 717.543 612.438 724.694 615.042 728.095 617.124 731.445 618.501 734.421 619.331 737.268 619.493 741.519 619.058 743.442 618.146 745.552 615.325 749.172 610.899 752.576 606.283 755.105 600.24 757.714 572.33 767.616 566.99 770.167 562.856 772.858 560.054 775.625 558.351 778.798 557.947 782.042 558.721 785.57"/><polyline points="558.416 787.694 558.039 785.759 558.051 783.791 559.202 780.389 561.713 777.369 566.004 774.342 570.415 772.147 576.226 769.859 597.203 763.14 604.632 760.484 610.932 757.667 615.707 754.774 618.915 751.961 621.166 748.74 622.226 745.3 622.105 741.379 621.303 738.53 619.932 735.551 618.036 732.48 615.447 729.079 608.645 721.937 599.679 714.229 588.098 705.579 574.187 696.226 557.7 686.008 538.929 675.099"/><polyline points="542.363 679.697 561.178 690.566 577.704 700.752 591.645 710.083 603.242 718.726 612.218 726.467 618.76 733.407 621.311 736.827 623.157 739.941 624.331 742.659 625.049 745.523 625.037 749.126 623.856 752.529 621.483 755.666 617.631 758.741 612.733 761.428 606.034 764.164 577.076 772.981 571.201 775.116 566.708 777.158 562.259 779.95 559.485 782.743 557.932 785.987 557.824 789.581"/><polyline points="556.913 791.403 557.487 788.181 559.393 785.128 562.629 782.344 567.517 779.638 572.395 777.653 578.334 775.694 607.81 767.437 614.591 764.9 619.882 762.251 623.878 759.36 626.448 756.379 627.868 753.067 628.084 749.473 627.564 746.897 626.351 743.842 624.543 740.711 622.206 737.52 615.707 730.554 606.744 722.81 595.39 714.348 581.435 705.017 564.901 694.843 546.075 683.99"/><polyline points="550.052 688.001 569.142 699.038 585.387 709.065 599.334 718.421 610.662 726.907 619.572 734.684 625.799 741.484 628.081 744.699 629.67 747.571 630.726 750.342 631.232 753.249 630.803 756.825 629.158 760.029 626.157 763.059 622.008 765.724 616.615 768.173 609.767 770.522 579.491 778.321 568.25 782.046 563.218 784.484 559.466 787.147 556.942 790.163 555.811 793.234"/><polyline points="550.098 799.661 553.309 796.849 557.518 794.279 562.927 791.866 569.162 789.752 582.57 786.411 615.174 779.94 622.503 778.049 628.436 776.073 633.807 773.593 637.578 770.955 640.099 767.938 641.276 764.542 641.284 761.918 640.698 759.353 639.401 756.339 637.509 753.247 631.803 746.444 623.593 738.862 612.718 730.345 598.938 720.745 582.587 710.299 563.363 698.803"/><polyline points="568.171 702.31 587.311 713.945 603.589 724.515 617.016 734.02 627.834 742.63 635.973 750.302 639.016 753.751 641.561 757.19 643.366 760.328 644.449 763.073 644.951 765.658 644.825 768.278 643.473 771.609 640.821 774.516 636.685 777.19 630.932 779.63 624.635 781.55 616.949 783.365 583.277 789.519 569.162 792.737 562.234 794.851 556.413 797.131 551.444 799.695 547.67 802.326"/><polyline points="545.098 805.287 549.662 802.687 555.074 800.303 561.598 798.051 568.888 796.047 584.005 792.887 618.684 787.034 626.714 785.294 633.047 783.538 639.187 781.201 643.74 778.592 646.819 775.648 648.43 772.438 648.759 769.839 648.419 767.24 647.459 764.446 645.928 761.539 643.696 758.296 640.747 754.759 632.769 746.953 622.083 738.222 608.77 728.592 592.6 717.884 573.309 705.94"/><polyline points="578.503 709.779 597.72 721.879 613.819 732.731 627.055 742.498 637.407 751.156 645.065 758.854 647.951 762.438 650.111 765.734 651.553 768.696 652.388 771.532 652.569 774.15 652.051 776.72 651.191 778.493 650.004 780.068 646.735 782.805 641.775 785.376 635.249 787.64 628.55 789.34 620.482 790.952 584.393 796.598 568.558 799.635 560.573 801.619 553.653 803.744 547.811 805.968 542.469 808.517"/><polyline points="539.881 811.964 545.663 809.602 552.217 807.42 567.861 803.552 584.383 800.641 621.822 795.21 637.28 792.018 644.18 789.836 649.541 787.337 653.471 784.377 655.714 781.157 656.418 778.631 656.41 776.007 655.72 773.133 654.391 770.126 652.32 766.772 649.718 763.387 642.437 755.781 632.22 746.998 619.085 737.101 603.076 726.121 583.947 713.888"/><polyline points="589.645 718.293 608.703 730.656 624.619 741.763 637.392 751.595 647.492 760.527 654.597 768.294 657.08 771.774 658.979 775.23 660.083 778.323 660.468 780.922 660.226 783.533 659.28 785.979 656.556 789.248 652.466 791.989 646.412 794.559 638.826 796.737 622.339 799.841 583.855 804.992 566.964 807.714 550.582 811.341 537.429 815.553"/><polyline points="535.208 819.196 549.154 815.331 565.619 812.092 582.875 809.568 622.72 804.675 640.55 801.582 648.815 799.381 655.241 796.861 659.991 793.927 661.673 792.356 663.059 790.522 664.115 788.12 664.49 785.524 664.23 782.911 663.244 779.776 661.614 776.549 659.236 772.995 652.289 765.098 642.549 756.256 629.859 746.299 614.294 735.275 595.58 722.986"/><polyline points="601.707 727.924 620.075 740.118 635.554 751.251 648.11 761.336 657.454 770.12 660.973 774.034 663.977 777.941 666.062 781.292 667.563 784.577 668.333 787.432 668.479 790.378 667.934 792.944 666.558 795.553 665.058 797.294 663.042 798.983 657.895 801.881 650.787 804.451 641.523 806.71 622.361 809.732 581.176 814.311 563.893 816.574 547.369 819.437 533.299 822.798"/><polyline points="531.767 826.264 545.298 823.518 561.557 821.077 578.872 819.09 621.415 814.902 642.246 811.936 652.512 809.64 660.304 807.041 666.132 804.011 668.224 802.417 670.048 800.528 671.598 798.018 672.358 795.506 672.458 792.559 671.889 789.661 670.564 786.301 668.616 782.874 665.929 779.138 662.291 774.892 653.079 765.978 641.133 756.186 625.999 745.133 607.964 733.038"/><polyline points="614.271 738.233 631.975 750.235 646.76 761.215 658.582 771.166 667.372 780.04 670.482 783.866 673.063 787.676 674.883 791.174 676.04 794.591 676.432 797.519 676.134 800.457 675.065 803.207 673.341 805.604 671.172 807.612 668.731 809.284 662.193 812.36 653.382 815.016 642.422 817.222 632.004 818.723 619.582 820.092 558.313 825.441 543.302 827.326 530.652 829.433"/><polyline points="529.97 832.376 554.459 829.578 616.76 825.225 630.508 823.947 641.923 822.513 654.21 820.297 663.72 817.693 671.259 814.456 674.041 812.708 676.312 810.818 678.405 808.29 679.69 805.635 680.254 802.741 680.11 799.794 679.187 796.301 677.55 792.717 675.12 788.817 672.121 784.906 663.746 776.1 652.314 766.211 637.897 755.306 620.541 743.401"/><polyline points="626.688 748.423 643.703 760.253 657.756 771.104 668.795 780.948 673.135 785.44 676.75 789.699 679.624 793.702 681.891 797.707 683.323 801.381 683.957 804.601 683.869 807.877 683.051 810.713 681.574 813.269 679.357 815.689 676.755 817.693 673.63 819.51 665.391 822.79 654.871 825.434 641.564 827.585 629.797 828.871 616.029 829.945 554.944 832.994 529.705 834.97"/><polyline points="529.816 837.185 550.513 836.238 610.021 834.581 626.441 833.668 640.528 832.421 655.18 830.348 666.718 827.711 675.665 824.432 679.141 822.574 682.096 820.487 684.444 818.19 686.272 815.467 687.292 812.696 687.63 809.433 687.218 806.177 685.992 802.434 684.063 798.621 681.341 794.504 677.85 790.141 673.611 785.555 662.972 775.755 649.295 764.951 632.634 753.184"/><polyline points="638.313 757.576 654.857 769.491 668.126 780.271 678.331 790.044 682.445 794.736 685.602 798.943 688.168 803.158 689.91 807.057 690.903 810.864 691.076 814.143 690.489 817.368 689.284 820.064 687.324 822.694 684.383 825.318 681.063 827.44 677.219 829.309 672.607 831.047 667.243 832.621 654.356 835.22 638.687 837.082 622.285 838.168 602.897 838.774 530.237 839.016"/><polyline points="530.892 840.484 572.654 841.881 596.667 842.34 618.711 842.181 637.445 841.327 654.138 839.654 668.052 837.124 673.77 835.578 679.045 833.722 683.226 831.8 686.882 829.582 689.907 827.054 692.183 824.25 693.627 821.302 694.326 818.096 694.243 814.487 693.436 810.966 691.824 807.007 689.556 802.999 686.518 798.697 682.728 794.15 672.713 784.175 659.838 773.415 643.674 761.514"/><polyline points="648.674 764.943 664.432 776.839 677.134 787.795 682.518 793.107 686.932 797.99 690.59 802.649 693.468 807.054 695.554 811.156 696.943 815.191 697.516 818.762 697.334 822.368 696.409 825.516 694.603 828.643 692.17 831.313 688.776 833.91 684.757 836.154 679.906 838.189 674.265 839.985 668.192 841.463 653.249 843.841 635.542 845.248 614.821 845.733 591.138 845.304 564.52 843.993 531.706 841.634"/><polyline points="532.627 842.532 560.406 845.654 587.29 847.788 611.935 848.828 633.97 848.757 652.679 847.604 668.306 845.402 675.043 843.894 681.03 842.11 686.229 840.055 690.592 837.754 694.067 835.269 696.841 832.473 698.811 829.447 700.028 826.05 700.406 822.461 700.028 818.867 698.836 814.769 696.922 810.587 694.197 806.087 690.677 801.326 686.384 796.338 681.346 791.146 668.853 779.964 653.27 767.854"/><polyline points="657.413 770.281 672.562 782.407 684.858 793.798 689.789 799.092 693.965 804.177 697.358 809.028 699.945 813.605 701.716 817.846 702.757 821.989 702.989 825.92 702.421 829.484 701.058 832.826 699 835.792 696.178 838.543 692.404 841.17 687.72 843.558 682.186 845.655 675.858 847.446 668.777 848.931 660.977 850.113 652.144 851.027 632.766 851.907 609.752 851.549 584.814 849.925 558.661 847.084 533.634 843.263"/><polyline points="534.712 843.715 557.623 848.161 582.698 851.644 607.587 853.86 630.914 854.692 651.289 854.129 660.461 853.333 668.606 852.235 676.031 850.81 682.708 849.049 688.59 846.951 693.621 844.523 697.47 842.005 700.633 839.141 702.995 835.989 704.495 832.707 705.243 829.177 705.223 825.238 704.394 821.053 702.676 816.431 700.235 811.779 696.979 806.841 692.93 801.658 688.115 796.257 676.029 784.641 661.07 772.288"/><polyline points="664.237 773.958 679.244 786.75 685.662 792.885 691.104 798.597 695.794 804.102 699.708 809.383 702.82 814.408 705.112 819.135 706.584 823.495 707.312 827.699 707.256 831.634 706.36 835.467 704.618 838.996 702.172 842.084 698.967 844.898 694.812 847.544 689.757 849.919 683.546 852.072 676.538 853.843 668.776 855.245 660.293 856.287 650.786 856.993 630.086 857.284 606.453 856.064 581.621 853.357 557.302 849.341 546.049 846.951 535.847 844.397"/><polyline points="537.028 845.212 546.831 848.008 557.379 850.558 568.978 852.939 580.972 855.009 605.439 858.121 617.568 859.115 629.393 859.705 640.245 859.876 650.767 859.647 660.287 859.033 669.111 858.031 677.209 856.631 684.238 854.909 690.472 852.815 695.853 850.358 700.046 847.763 703.547 844.781 706.228 841.46 708.006 837.946 708.976 834.129 709.134 830.189 708.526 825.966 707.062 821.259 704.71 816.192 701.669 811.117 697.832 805.775 693.222 800.196 687.86 794.4 681.528 788.174 666.933 775.386"/><polyline points="669.209 776.678 683.867 789.882 690.102 796.207 695.364 802.09 699.872 807.748 703.605 813.16 706.543 818.292 708.792 823.406 710.162 828.14 710.697 832.372 710.44 836.634 709.388 840.428 707.563 843.918 704.865 847.224 701.365 850.207 696.892 852.967 691.504 855.41 684.951 857.584 677.597 859.337 669.486 860.682 660.661 861.627 650.813 862.188 640.291 862.328 629.443 862.058 617.954 861.374 605.84 860.251 593.44 858.702 581.421 856.815 569.469 854.545 558.241 852.01 547.755 849.219 538.35 846.256"/><polyline points="539.585 847.535 548.923 850.693 559.037 853.584 570.219 856.295 581.811 858.665 593.802 860.7 605.852 862.342 617.951 863.587 629.757 864.392 640.598 864.74 651.117 864.667 660.965 864.164 670.12 863.228 678.229 861.913 685.59 860.188 692.149 858.047 697.844 855.494 702.326 852.75 705.847 849.795 708.594 846.529 710.625 842.78 711.729 838.999 712.07 834.75 711.57 830.179 710.269 825.432 708.099 820.279 705.246 815.103 701.603 809.637 696.975 803.659 691.789 797.714 685.634 791.315 671.136 777.946"/><polyline points="672.808 779.418 687.18 792.929 693.272 799.39 698.605 805.645 703.154 811.681 706.723 817.196 709.507 822.418 711.604 827.598 712.846 832.361 713.301 836.939 712.94 841.188 711.715 845.274 709.648 849.005 706.89 852.262 703.367 855.219 698.891 857.974 693.203 860.544 686.648 862.702 679.29 864.441 670.852 865.808 661.695 866.726 651.844 867.204 641.324 867.242 630.482 866.851 618.678 865.989 606.585 864.673 594.544 862.948 582.567 860.816 570.995 858.336 560.16 855.588 550.078 852.582 540.781 849.301"/><polyline points="542.046 851.513 551.317 854.859 561.375 857.934 572.19 860.747 583.745 863.287 595.709 865.472 607.74 867.24 619.499 868.557 631.297 869.454 642.464 869.875 652.981 869.838 662.828 869.353 671.983 868.419 680.413 867.03 687.762 865.264 694.304 863.076 699.98 860.476 704.44 857.699 708.18 854.496 710.889 851.201 712.911 847.445 714.11 843.354 714.472 839.103 714.043 834.528 712.842 829.749 710.804 824.554 707.914 819.014 704.39 813.472 699.895 807.401 694.619 801.102 688.587 794.589 674.334 780.959"/><polyline points="675.823 782.779 690.213 796.759 696.187 803.328 701.402 809.68 705.833 815.797 709.304 821.387 712.13 826.959 714.11 832.177 715.315 837.298 715.652 841.881 715.209 846.127 713.946 850.202 711.883 853.938 708.922 857.455 705.409 860.421 700.949 863.205 695.278 865.82 688.739 868.026 681.389 869.811 672.957 871.217 663.801 872.164 653.949 872.658 643.427 872.697 632.583 872.29 620.78 871.393 609.017 870.068 596.982 868.284 585.017 866.078 573.461 863.51 562.649 860.669 552.592 857.569 543.323 854.205"/><polyline points="544.634 857.394 553.913 860.731 564.29 863.909 575.105 866.731 586.665 869.283 598.307 871.42 610.343 873.197 622.107 874.51 633.584 875.372 644.427 875.77 654.948 875.718 664.799 875.207 673.955 874.24 682.383 872.81 689.722 871.003 696.258 868.774 701.918 866.141 706.37 863.346 710.114 860.143 713.034 856.592 715.061 852.837 716.3 848.754 716.735 844.509 716.405 839.921 715.224 834.801 713.272 829.566 710.484 823.981 706.865 818.093 702.455 811.96 697.265 805.589 691.318 798.996 676.986 784.958"/><polyline points="678.689 787.503 692.943 801.61 698.85 808.235 703.998 814.633 708.371 820.795 711.949 826.702 714.701 832.299 716.625 837.546 717.786 842.667 718.112 847.254 717.628 851.822 716.361 855.895 714.325 859.644 711.412 863.197 707.684 866.416 703.25 869.237 697.607 871.905 691.09 874.173 683.762 876.023 675.346 877.495 666.198 878.504 656.682 879.044 646.164 879.147 635.323 878.795 623.848 877.977 612.084 876.703 600.047 874.965 588.402 872.865 576.839 870.351 566.016 867.572 555.626 864.45 546.018 861.068"/><polyline points="547.514 865.197 557.15 868.505 567.557 871.57 578.715 874.378 590.291 876.838 602.272 878.939 613.993 880.575 625.764 881.797 637.246 882.56 648.09 882.854 658.28 882.701 667.795 882.114 676.937 881.054 685.345 879.53 692.664 877.63 699.162 875.314 704.788 872.601 709.201 869.746 712.908 866.503 715.805 862.936 717.837 859.183 719.114 855.113 719.626 850.547 719.289 845.63 718.126 840.509 716.211 835.258 713.475 829.651 709.918 823.731 705.567 817.553 700.44 811.135 694.554 804.489 680.582 790.56"/><polyline points="682.661 794.081 696.593 808.071 702.449 814.749 707.54 821.199 711.856 827.419 715.363 833.368 718.047 839.01 719.9 844.284 720.994 849.428 721.269 854.02 720.753 858.59 719.485 862.667 717.292 866.708 714.376 870.267 710.664 873.512 706.253 876.378 700.639 879.112 694.142 881.461 686.831 883.398 678.423 884.964 669.604 886.037 660.086 886.682 649.89 886.892 639.036 886.652 627.544 885.941 616.086 884.808 604.348 883.231 592.347 881.188 580.75 878.788 569.566 876.045 559.13 873.054 549.145 869.725"/><polyline points="550.916 874.58 560.927 877.837 571.699 880.854 582.9 883.535 594.51 885.876 606.196 887.812 617.942 889.342 629.736 890.452 640.905 891.084 651.761 891.269 661.957 891.003 671.473 890.299 680.284 889.167 688.359 887.613 695.665 885.643 702.151 883.269 707.763 880.518 712.172 877.648 715.892 874.413 718.831 870.874 721.072 866.858 722.404 862.799 722.999 858.239 722.763 853.317 721.703 848.163 719.885 842.879 717.234 837.217 713.759 831.251 709.666 825.277 704.61 818.794 698.787 812.089 692.211 805.171 684.9 798.05"/><polyline points="687.271 802.428 694.561 809.563 701.11 816.498 706.897 823.223 711.72 829.47 715.782 835.459 719.218 841.438 721.827 847.119 723.598 852.414 724.608 857.574 724.811 862.169 724.237 866.728 722.811 871.098 720.565 875.109 717.635 878.652 713.933 881.904 709.546 884.802 703.659 887.724 697.183 890.119 689.892 892.118 681.826 893.708 673.026 894.88 663.521 895.626 653.332 895.935 642.81 895.803 631.645 895.223 620.181 894.198 608.436 892.725 596.749 890.842 585.134 888.552 573.929 885.924 563.147 882.966 552.81 879.673"/><polyline points="554.787 884.907 565.13 888.168 575.914 891.101 587.12 893.703 598.411 895.907 610.097 897.768 621.514 899.178 632.975 900.18 644.137 900.733 654.655 900.834 664.838 900.491 674.337 899.711 683.129 898.507 691.186 896.89 698.468 894.873 704.94 892.472 710.827 889.56 715.492 886.489 719.196 883.241 722.144 879.715 724.432 875.73 725.922 871.384 726.574 866.836 726.452 862.239 725.524 857.069 723.825 851.75 721.28 846.047 717.896 840.038 713.875 834.027 709.084 827.759 703.321 821.017 697.021 814.307 689.751 807.157"/><polyline points="556.005 760.84 552.726 752.945 551.808 749.449 551.281 745.88 551.216 742.591 551.611 739.332 552.387 736.479 553.703 733.47 557.29 728.374 562.333 723.67 568.509 719.31 584.163 709.617 588.088 706.635 590.935 703.906 593.634 700.191 595.071 696.53 595.464 692.619 594.715 688.091 593.596 685.002 591.982 681.761 587.397 674.96 580.704 667.273 571.959 658.81 560.981 649.405 548.034 639.276 532.893 628.226 515.299 616.078"/><polyline points="513.081 610.227 530.301 622.361 545.346 633.556 558.203 643.811 568.859 653.106 577.304 661.398 583.961 669.118 588.539 675.946 590.153 679.177 591.286 682.262 592.081 686.784 591.753 690.708 590.391 694.399 587.98 697.92 585.213 700.731 581.625 703.616 566.497 713.537 560.715 717.884 555.836 722.763 552.454 728 551.252 731.058 550.515 734.262 550.242 737.534 550.429 741.146 551.122 745.028 552.223 748.814 555.916 757.254"/><polyline points="555.968 753.566 551.799 744.624 550.481 740.567 549.634 736.714 549.254 733.119 549.336 729.509 549.946 725.95 550.981 722.831 552.28 720.176 554.08 717.427 558.744 712.352 564.385 707.829 578.979 697.723 582.232 694.955 584.911 692.062 587.181 688.453 588.375 684.706 588.54 680.778 587.71 676.589 584.933 670.292 580.354 663.462 573.736 655.735 565.336 647.404 554.742 638.05 542.219 627.918 527.535 616.807 510.693 604.726"/><polyline points="514.474 601.75 479.175 587.032 478.945 586.814 479.179 586.633 480.455 586.297 480.941 585.869 481.006 585.225 480.61 584.322 478.207 581.626 473.919 578.044 457.979 566.951 433.056 551.384"/><polyline points="433.467 551.813 460.708 569.644 470.363 576.508 477.592 582.152 481.965 586.156 484.361 589.255 484.695 590.18 484.609 591.142 482.597 592.756 482.811 593.331 483.575 593.95 492.894 598.778 519.186 610.898"/><polyline points="508.097 599.645 524.595 611.679 538.95 622.71 551.412 632.942 561.711 642.157 570.073 650.543 576.464 658.056 581.048 664.876 583.873 671.172 584.759 675.347 584.67 679.283 583.557 683.06 581.554 686.453 579.19 689.191 576.02 692.063 562.196 702.146 556.682 706.832 552.221 712.095 550.56 714.933 549.404 717.658 548.542 720.83 548.115 724.419 548.191 728.041 548.763 731.938 549.846 736.083 551.421 740.402 556.142 749.819"/></g></svg>