<svg xmlns="http://www.w3.org/2000/svg" xmlns:ev="http://www.w3.org/2001/xml-events" xmlns:xlink="http://www.w3.org/1999/xlink" width="29.7cm" height="21cm" baseProfile="tiny" version="1.2" viewBox="0 0 1122.52 793.701"><metadata/><g id="layer1" fill="none" stroke="#00f" style="display:inline"><polygon points="98.268 88.821 249.449 88.821 249.449 240.002 98.268 240.002"/><polygon points="362.835 88.821 514.016 88.821 514.016 240.002 362.835 240.002"/><polygon points="453.161 317.043 460.487 318.884 467.243 321.301 474.074 324.527 480.234 328.208 486.311 332.695 491.909 337.766 496.734 343.079 501.244 349.138 504.948 355.285 508.198 362.103 510.752 369.212 512.584 376.54 513.675 384.015 514.016 391.183 513.675 398.351 512.584 405.826 510.752 413.154 508.198 420.263 504.948 427.082 501.244 433.228 496.734 439.288 491.909 444.6 486.311 449.672 480.549 453.949 474.407 457.661 467.592 460.92 460.487 463.483 453.161 465.324 446.063 466.387 438.52 466.774 430.975 466.406 423.505 465.286 416.183 463.427 409.433 460.993 402.943 457.929 396.459 454.054 390.394 449.552 385.075 444.734 379.997 439.142 375.712 433.385 371.813 426.915 368.58 420.089 366.043 412.973 364.303 406.011 363.193 398.539 362.835 391.372 363.193 383.827 364.23 376.726 366.043 369.393 368.58 362.278 371.813 355.451 375.502 349.295 379.997 343.224 384.808 337.9 390.394 332.815 396.145 328.523 402.61 324.616 409.084 321.519 416.183 318.939 423.505 317.08 430.975 315.961 438.142 315.593 445.688 315.942"/><polygon points="476.221 599.057 438.425 599.057 438.425 636.852 476.221 636.852"/><polygon points="419.528 704.884 457.323 674.648 510.236 693.545 514.016 542.364 343.937 580.16"/><polygon points="608.299 579.237 778.378 541.442 779.183 541.635 779.527 542.388 775.553 694.121 774.485 694.435 722.068 675.715 684.685 705.622 684.089 705.829 683.496 705.615 607.564 580.075"/><polygon points="700.158 599.057 700.87 597.178 701.987 596.407 702.992 596.222 740.787 596.222 742.667 596.935 743.438 598.052 743.622 599.057 743.622 636.852 742.909 638.732 741.793 639.503 740.787 639.687 702.992 639.687 701.112 638.974 700.342 637.858 700.158 636.852"/><polygon points="737.953 601.892 705.827 601.892 705.827 634.018 737.953 634.018"/><polygon points="739.842 635.908 739.842 600.002 703.937 600.002 703.937 635.908"/><polygon points="702.437 637.617 702.047 636.852 702.047 599.057 702.437 598.293 702.992 598.112 741.343 598.293 741.732 599.057 741.552 637.408 740.787 637.797"/><polygon points="721.422 671.852 722.843 671.978 772.067 689.558 775.658 545.918 612.976 582.069 684.845 700.653 720.119 672.434"/><polygon points="777.608 543.549 609.995 580.796 684.345 703.474 721.299 673.91 721.893 673.703 773.891 692.216"/><polygon points="781.416 542.435 777.637 693.616 777.118 695.181 775.816 696.193 773.85 696.215 722.426 677.849 685.865 707.097 684.285 707.712 682.637 707.315 681.67 706.353 606.08 581.629 605.674 580.043 606.271 578.414 607.889 577.392 777.968 539.597 778.99 539.559 780.248 540.071 781.124 541.109"/><polygon points="768.17 434.799 763.492 441.086 758.477 446.608 752.679 451.86 746.689 456.307 739.984 460.336 732.898 463.683 725.874 466.196 718.287 468.103 710.91 469.208 703.083 469.608 695.255 469.226 687.519 468.067 680.284 466.249 672.919 463.613 666.173 460.428 659.458 456.416 653.165 451.745 647.636 446.737 642.368 440.935 637.713 434.648 633.879 428.249 630.53 421.179 627.898 413.797 626.089 406.56 624.94 398.822 624.567 391.372 624.938 383.558 626.016 376.177 627.898 368.569 630.525 361.2 633.701 354.451 637.713 347.719 642.368 341.432 647.369 335.897 653.154 330.63 659.446 325.959 665.84 322.116 672.906 318.759 679.923 316.228 687.519 314.3 695.269 313.139 703.083 312.758 710.534 313.121 718.273 314.261 725.512 316.061 732.898 318.684 739.971 322.024 746.689 326.06 752.679 330.506 758.477 335.758 763.492 341.28 768.162 347.556 772.013 353.945 775.385 361.019 778.034 368.395 779.931 375.984 781.026 383.363 781.417 391.183 781.026 399.003 779.931 406.382 778.034 413.971 775.385 421.347 772.191 428.089"/><polygon points="775.385 383.922 774.299 376.733 772.5 369.688 770.149 363.194 767.02 356.631 763.455 350.715 759.345 345.164 754.47 339.769 749.363 335.119 743.536 330.771 737.304 327.026 730.73 323.922 724.226 321.595 717.175 319.823 710.344 318.8 703.083 318.427 696.183 318.747 688.988 319.788 682.28 321.438 675.423 323.853 668.841 326.941 662.6 330.67 657.043 334.773 651.643 339.641 646.755 345.023 642.428 350.866 638.707 357.112 635.766 363.362 633.325 370.21 631.65 376.911 630.582 384.103 630.236 391.001 630.547 397.902 631.579 405.098 633.221 411.808 635.628 418.668 638.707 425.254 642.428 431.5 646.755 437.343 651.385 442.468 656.762 447.363 662.298 451.494 668.2 455.081 674.751 458.234 681.584 460.718 688.631 462.508 695.459 463.548 702.719 463.939 709.982 463.603 717.175 462.543 724.226 460.772 730.73 458.444 737.304 455.34 743.536 451.595 749.363 447.247 754.47 442.597 759.114 437.484 763.455 431.651 767.192 425.415 770.288 418.837 772.712 411.982 774.37 405.277 775.42 398.083 775.748 391.183"/><polygon points="750.279 333.426 744.589 329.202 738.524 325.537 731.795 322.318 725.134 319.897 717.909 318.043 710.535 316.92 703.085 316.538 696.006 316.865 688.624 317.933 681.385 319.733 674.707 322.104 668.284 325.098 661.861 328.892 655.85 333.308 650.309 338.302 645.294 343.824 640.855 349.819 637.213 355.898 634.02 362.639 631.624 369.308 629.797 376.541 628.701 383.919 628.347 390.997 628.665 398.076 629.724 405.46 631.515 412.701 634.02 419.727 637.037 426.139 640.855 432.547 645.058 438.253 650.045 443.8 655.561 448.822 661.24 453.06 667.625 456.918 674.018 459.976 681.028 462.524 687.892 464.286 695.264 465.428 702.712 465.828 709.792 465.519 717.177 464.469 724.421 462.687 731.45 460.191 738.195 457.007 744.589 453.164 750.567 448.703 755.808 443.933 760.808 438.398 765.232 432.392 768.859 426.304 772.036 419.555 774.415 412.88 776.224 405.643 777.265 398.633 777.638 391.183 777.265 383.733 776.224 376.724 774.415 369.487 772.036 362.812 768.859 356.062 765.025 349.664 760.572 343.68 755.808 338.434"/><polygon points="751.478 331.965 757.143 337.097 762.031 342.479 766.595 348.611 770.347 354.838 773.638 361.742 776.224 368.94 778.077 376.355 779.182 383.923 779.527 391.183 779.182 398.443 778.077 406.011 776.223 413.431 773.638 420.624 770.526 427.195 766.597 433.752 762.031 439.887 757.143 445.27 751.478 450.401 745.64 454.735 739.089 458.672 732.173 461.938 725.327 464.387 717.914 466.25 710.723 467.327 703.085 467.719 695.451 467.346 687.887 466.213 680.836 464.441 673.639 461.866 667.064 458.762 660.503 454.841 654.362 450.283 648.973 445.402 643.835 439.743 639.284 433.596 635.546 427.36 632.274 420.452 629.816 413.61 627.944 406.199 626.82 398.634 626.457 391.372 626.82 383.737 627.87 376.543 629.705 369.123 632.273 361.919 635.369 355.34 639.284 348.77 643.832 342.627 648.706 337.232 654.358 332.087 660.499 327.528 667.064 323.604 673.639 320.5 680.836 317.925 688.258 316.079 695.451 315.02 703.085 314.648 710.347 315.002 717.909 316.116 725.327 317.979 732.173 320.429 739.084 323.692 745.64 327.632"/><polygon points="780.704 241.882 779.9 242.512 778.583 242.837 627.402 242.837 625.522 242.124 624.751 241.007 624.567 240.002 624.567 88.821 624.751 87.816 625.522 86.699 627.402 85.986 778.583 85.986 780.462 86.699 781.233 87.816 781.417 88.821 781.417 240.002"/><polygon points="775.748 91.656 630.236 91.656 630.236 237.167 775.748 237.167"/><polygon points="777.638 89.766 628.346 89.766 628.346 239.057 777.638 239.057"/><polygon points="779.138 88.056 779.528 88.821 779.347 240.558 778.583 240.947 626.846 240.767 626.457 240.002 626.457 88.821 626.846 88.056 627.402 87.876"/><polygon points="101.477 369.393 103.869 362.627 107.069 355.785 110.935 349.295 115.43 343.224 120.241 337.9 125.535 333.055 131.578 328.523 138.043 324.616 144.517 321.519 151.616 318.939 158.938 317.08 166.408 315.961 173.575 315.593 181.12 315.942 188.594 317.043 195.92 318.884 202.676 321.301 209.507 324.527 215.667 328.208 221.451 332.456 227.075 337.499 231.926 342.788 236.466 348.825 240.381 355.285 243.631 362.103 246.185 369.212 248.017 376.54 249.108 384.015 249.449 391.183 249.108 398.351 248.017 405.826 246.294 412.792 243.776 419.914 240.736 426.415 236.886 432.914 232.406 438.996 227.342 444.6 221.744 449.672 215.982 453.949 209.507 457.84 202.676 461.065 195.92 463.483 188.594 465.324 181.496 466.387 173.953 466.774 166.408 466.406 158.938 465.286 151.616 463.427 144.866 460.993 138.376 457.929 131.892 454.054 125.827 449.552 120.508 444.734 115.43 439.142 111.145 433.385 107.426 427.248 104.158 420.437 101.586 413.335 99.736 406.011 98.664 398.915 98.268 391.372 98.591 384.203 99.663 376.726"/><polygon points="173.858 599.057 173.858 636.852 211.654 636.852 211.654 599.057"/><polygon points="192.756 674.648 245.669 693.545 249.449 542.364 79.37 580.16 154.961 704.884"/></g><g id="layer2" fill="none" stroke="#080" style="display:inline"><polyline points="511.181 92.6 365.669 92.6 365.669 96.38 511.181 96.38 511.181 100.16 365.669 100.16 365.669 103.939 511.181 103.939 511.181 107.719 365.669 107.719 365.669 111.498 511.181 111.498 511.181 115.278 365.669 115.278 365.669 119.057 511.181 119.057 511.181 122.837 365.669 122.837 365.669 126.616 511.181 126.616 511.181 130.396 365.669 130.396 365.669 134.175 511.181 134.175 511.181 137.955 365.669 137.955 365.669 141.734 511.181 141.734 511.181 145.514 365.669 145.514 365.669 149.293 511.181 149.293 511.181 153.073 365.669 153.073 365.669 156.852 511.181 156.852 511.181 160.632 365.669 160.632 365.669 164.411 511.181 164.411 511.181 168.191 365.669 168.191 365.669 171.971 511.181 171.971 511.181 175.75 365.669 175.75 365.669 179.53 511.181 179.53 511.181 183.309 365.669 183.309 365.669 187.089 511.181 187.089 511.181 190.868 365.669 190.868 365.669 194.648 511.181 194.648 511.181 198.427 365.669 198.427 365.669 202.207 511.181 202.207 511.181 205.986 365.669 205.986 365.669 209.766 511.181 209.766 511.181 213.545 365.669 213.545 365.669 217.325 511.181 217.325 511.181 221.104 365.669 221.104 365.669 224.884 511.181 224.884 511.181 228.663 365.669 228.663 365.669 232.443 511.181 232.443 511.181 236.222 365.669 236.222"/><polyline points="450.113 319.372 426.739 319.372 412.635 323.152 464.215 323.152 472.558 326.931 404.292 326.931 397.972 330.711 478.879 330.711 484.025 334.49 392.826 334.49 388.49 338.27 488.361 338.27 492.084 342.049 384.766 342.049 381.536 345.829 495.314 345.829 498.132 349.608 378.718 349.608 376.257 353.388 500.594 353.388 502.739 357.167 374.111 357.167 372.25 360.947 504.601 360.947 506.2 364.726 370.65 364.726 369.294 368.506 507.557 368.506 508.684 372.286 368.166 372.286 367.258 376.065 509.593 376.065 510.292 379.845 366.558 379.845 366.063 383.624 510.787 383.624 511.083 387.404 365.768 387.404 365.67 391.183 511.181 391.183 511.083 394.963 365.768 394.963 366.063 398.742 510.787 398.742 510.292 402.522 366.558 402.522 367.258 406.301 509.593 406.301 508.684 410.081 368.166 410.081 369.294 413.86 507.557 413.86 506.2 417.64 370.65 417.64 372.25 421.419 504.601 421.419 502.739 425.199 374.111 425.199 376.257 428.978 500.594 428.978 498.132 432.758 378.718 432.758 381.536 436.538 495.314 436.538 492.084 440.317 384.766 440.317 388.49 444.097 488.361 444.097 484.025 447.876 392.826 447.876 397.972 451.656 478.879 451.656 472.558 455.435 404.292 455.435 412.635 459.215 464.215 459.215 450.113 462.994 426.739 462.994"/><polygon points="513.041 543.549 509.324 692.216 457.144 673.581 419.778 703.474 345.428 580.796"/><polyline points="511.089 546.031 510.583 546.031 510.994 549.811 493.575 549.811 476.567 553.59 510.9 553.59 510.805 557.37 459.559 557.37 442.551 561.149 510.711 561.149 510.616 564.929 425.543 564.929 408.535 568.708 510.522 568.708 510.427 572.488 391.527 572.488 374.52 576.267 510.333 576.267 510.238 580.047 357.512 580.047 349.474 583.826 510.144 583.826 510.049 587.606 351.764 587.606 354.055 591.385 509.955 591.385 509.86 595.165 356.346 595.165 358.636 598.944 435.591 598.944 435.591 602.724 360.927 602.724 363.218 606.503 435.591 606.503 435.591 610.283 365.508 610.283 367.799 614.063 435.591 614.063 435.591 617.842 370.089 617.842 372.38 621.621 435.591 621.621 435.591 625.401 374.671 625.401 376.961 629.181 435.591 629.181 435.591 632.96 379.252 632.96 381.543 636.74 435.591 636.74"/><polyline points="452.926 674.535 404.449 674.535 406.739 678.314 448.202 678.314 443.477 682.094 409.03 682.094 411.321 685.874 438.753 685.874 434.029 689.653 413.611 689.653 415.902 693.433 429.304 693.433 424.58 697.212 418.192 697.212"/><polyline points="383.833 640.519 508.726 640.519 508.632 644.299 386.124 644.299 388.414 648.078 508.537 648.078 508.443 651.858 390.705 651.858 392.996 655.637 508.348 655.637 508.254 659.417 395.286 659.417 397.577 663.196 508.159 663.196 508.065 666.976 399.868 666.976 402.158 670.755 507.97 670.755 507.876 674.535 465.435 674.535 476.018 678.314 507.781 678.314 507.687 682.094 486.6 682.094 497.183 685.874 507.592 685.874"/><polyline points="479.055 636.74 508.821 636.74 508.915 632.96 479.055 632.96 479.055 629.181 509.01 629.181 509.104 625.401 479.055 625.401 479.055 621.621 509.199 621.621 509.293 617.842 479.055 617.842 479.055 614.063 509.388 614.063 509.482 610.283 479.055 610.283 479.055 606.503 509.577 606.503 509.671 602.724 479.055 602.724 479.055 598.944 509.766 598.944"/><polygon points="477.165 637.797 477.165 598.112 437.48 598.112 437.48 637.797"/><polyline points="683.578 693.094 689.756 693.094 694.481 689.315 681.288 689.315 678.997 685.535 699.205 685.535 703.93 681.755 676.707 681.755 674.416 677.976 708.654 677.976 713.379 674.196 672.125 674.196 669.835 670.417 769.71 670.417 769.805 666.637 667.544 666.637 665.253 662.858 769.899 662.858 769.994 659.078 662.963 659.078 660.672 655.299 770.088 655.299 770.183 651.519 658.381 651.519 656.091 647.74 770.277 647.74 770.372 643.96 653.8 643.96 651.51 640.181 697.323 640.181 697.323 636.401 649.219 636.401 646.928 632.622 697.323 632.622 697.323 628.842 644.638 628.842 642.347 625.063 697.323 625.063 697.323 621.283 640.057 621.283 637.766 617.504 697.323 617.504 697.323 613.724 635.475 613.724 633.185 609.944 697.323 609.944 697.323 606.165 630.894 606.165 628.603 602.385 697.323 602.385 697.323 598.606 626.313 598.606 624.022 594.826 697.323 594.826"/><polygon points="699.213 640.632 744.567 640.632 744.567 595.278 699.213 595.278"/><polyline points="746.457 640.181 770.466 640.181 770.561 636.401 746.457 636.401 746.457 632.622 770.655 632.622 770.75 628.842 746.457 628.842 746.457 625.063 770.844 625.063 770.939 621.283 746.457 621.283 746.457 617.504 771.033 617.504 771.128 613.724 746.457 613.724 746.457 609.944 771.222 609.944 771.317 606.165 746.457 606.165 746.457 602.385 771.411 602.385 771.506 598.606 746.457 598.606 746.457 594.826 771.6 594.826 771.695 591.047 621.731 591.047 619.441 587.267 771.789 587.267 771.884 583.488 619.661 583.488 636.669 579.708 771.978 579.708 772.072 575.929 653.677 575.929 670.685 572.149 772.167 572.149 772.261 568.37 687.692 568.37 704.7 564.59 772.356 564.59 772.451 560.811 721.708 560.811 738.716 557.031 772.545 557.031 755.724 553.252 772.639 553.252 772.734 549.472"/><polygon points="736.542 454.675 730.369 457.571 723.95 459.868 716.991 461.616 709.891 462.662 703.082 462.994 695.914 462.644 689.17 461.651 682.206 459.92 675.781 457.639 669.284 454.591 663.124 450.911 657.362 446.633 652.309 442.056 647.713 437.021 643.415 431.275 639.881 425.445 636.777 418.975 634.44 412.57 632.648 405.622 631.558 398.529 631.181 391.363 631.488 384.552 632.507 377.449 634.23 370.483 636.502 364.055 639.542 357.555 643.215 351.39 647.258 345.9 652.056 340.564 657.362 335.733 663.124 331.456 669.284 327.775 675.449 324.864 681.862 322.551 688.817 320.785 695.914 319.722 702.723 319.373 709.891 319.704 716.991 320.75 723.95 322.499 730.369 324.796 736.858 327.86 743.009 331.556 748.484 335.619 753.802 340.437 758.613 345.761 762.869 351.539 766.526 357.713 769.414 363.889 771.703 370.311 773.443 377.273 774.445 384.016 774.803 391.183 774.445 398.35 773.443 405.094 771.703 412.056 769.277 418.809 766.188 425.287 762.67 431.126 758.385 436.882 753.802 441.93 748.484 446.747 742.711 451.01"/><polyline points="686.846 459.215 719.137 459.215 730.572 455.435 675.413 455.435 667.892 451.656 738.093 451.656 743.917 447.876 662.067 447.876 657.285 444.097 748.699 444.097 752.74 440.317 653.245 440.317 649.776 436.538 756.208 436.538 759.21 432.758 646.774 432.758 644.166 428.978 761.818 428.978 764.081 425.199 641.903 425.199 639.947 421.419 766.038 421.419 767.715 417.64 638.27 417.64 636.851 413.86 769.134 413.86 770.311 410.081 635.673 410.081 634.725 406.301 771.259 406.301 771.988 402.522 633.996 402.522 633.481 398.742 772.503 398.742 772.811 394.963 633.173 394.963 633.071 391.183 772.913 391.183 772.811 387.404 633.173 387.404 633.481 383.624 772.503 383.624 771.988 379.845 633.996 379.845 634.725 376.065 771.259 376.065 770.311 372.286 635.673 372.286 636.851 368.506 769.134 368.506 767.715 364.726 638.27 364.726 639.947 360.947 766.038 360.947 764.081 357.167 641.903 357.167 644.166 353.388 761.818 353.388 759.21 349.608 646.774 349.608 649.776 345.829 756.208 345.829 752.74 342.049 653.245 342.049 657.285 338.27 748.699 338.27 743.917 334.49 662.067 334.49 667.892 330.711 738.093 330.711 730.572 326.931 675.413 326.931 686.846 323.152 719.137 323.152"/><polyline points="633.071 232.443 772.913 232.443 772.913 228.663 633.071 228.663 633.071 224.884 772.913 224.884 772.913 221.104 633.071 221.104 633.071 217.325 772.913 217.325 772.913 213.545 633.071 213.545 633.071 209.766 772.913 209.766 772.913 205.986 633.071 205.986 633.071 202.207 772.913 202.207 772.913 198.427 633.071 198.427 633.071 194.648 772.913 194.648 772.913 190.868 633.071 190.868 633.071 187.089 772.913 187.089 772.913 183.309 633.071 183.309 633.071 179.53 772.913 179.53 772.913 175.75 633.071 175.75 633.071 171.971 772.913 171.971 772.913 168.191 633.071 168.191 633.071 164.411 772.913 164.411 772.913 160.632 633.071 160.632 633.071 156.852 772.913 156.852 772.913 153.073 633.071 153.073 633.071 149.293 772.913 149.293 772.913 145.514 633.071 145.514 633.071 141.734 772.913 141.734 772.913 137.955 633.071 137.955 633.071 134.175 772.913 134.175 772.913 130.396 633.071 130.396 633.071 126.616 772.913 126.616 772.913 122.837 633.071 122.837 633.071 119.057 772.913 119.057 772.913 115.278 633.071 115.278 633.071 111.498 772.913 111.498 772.913 107.719 633.071 107.719 633.071 103.939 772.913 103.939 772.913 100.16 633.071 100.16 633.071 96.38 772.913 96.38"/><polygon points="631.181 92.6 774.803 92.6 774.803 236.222 631.181 236.222"/><polygon points="513.071 89.766 513.071 239.057 363.779 239.057 363.779 89.766"/><polygon points="473.628 325.36 480.022 329.202 486 333.663 491.241 338.434 496.242 343.968 500.458 349.664 504.293 356.062 507.326 362.467 509.848 369.487 511.657 376.724 512.735 384.104 513.071 391.183 512.735 398.262 511.657 405.643 509.956 412.522 507.469 419.555 504.293 426.304 500.458 432.702 496.005 438.686 491.241 443.933 486 448.703 480.022 453.164 473.957 456.83 467.228 460.048 460.211 462.579 452.976 464.397 445.968 465.447 438.519 465.829 431.068 465.465 423.691 464.36 416.461 462.524 409.795 460.12 403.387 457.094 396.983 453.268 390.994 448.822 385.742 444.065 380.727 438.542 376.496 432.858 372.823 426.797 369.596 420.072 367.057 413.058 365.304 406.192 364.171 398.819 363.78 391.37 364.134 383.919 365.158 376.906 366.948 369.665 369.311 362.984 372.296 356.557 376.082 350.13 380.491 344.113 385.478 338.566 390.994 333.544 396.983 329.098 403.058 325.448 409.795 322.246 416.818 319.733 424.057 317.933 431.439 316.865 438.519 316.538 445.597 316.883 452.976 317.969 459.854 319.679 466.883 322.175"/><polyline points="737.482 674.196 769.616 674.196 769.521 677.976 748.065 677.976 758.648 681.755 769.427 681.755 769.23 685.535"/><polygon points="771.155 688.229 721.175 670.379 685.095 699.243 614.467 582.706 774.683 547.102"/></g><g id="layer3" fill="none" stroke="red" style="display:inline"><polyline points="1039.37 96.38 895.748 96.38 895.748 103.939 1039.37 103.939 1039.37 111.498 895.748 111.498 895.748 119.057 1039.37 119.057 1039.37 126.616 895.748 126.616 895.748 134.175 1039.37 134.175 1039.37 141.734 895.748 141.734 895.748 149.293 1039.37 149.293 1039.37 156.852 895.748 156.852 895.748 164.411 1039.37 164.411 1039.37 171.971 895.748 171.971 895.748 179.53 1039.37 179.53 1039.37 187.089 895.748 187.089 895.748 194.648 1039.37 194.648 1039.37 202.207 895.748 202.207 895.748 209.766 1039.37 209.766 1039.37 217.325 895.748 217.325 895.748 224.884 1039.37 224.884 1039.37 232.443 895.748 232.443"/><polyline points="990.549 323.152 944.57 323.152 928.831 330.711 1006.287 330.711 1016.108 338.27 919.01 338.27 911.883 345.829 1023.235 345.829 1028.619 353.388 906.499 353.388 902.424 360.947 1032.694 360.947 1035.695 368.506 899.423 368.506 897.357 376.065 1037.76 376.065 1038.971 383.624 896.147 383.624 895.748 391.183 1039.37 391.183 1038.971 398.742 896.147 398.742 897.357 406.301 1037.76 406.301 1035.695 413.86 899.423 413.86 902.424 421.419 1032.694 421.419 1028.619 428.978 906.499 428.978 911.883 436.538 1023.235 436.538 1016.108 444.097 919.01 444.097 928.831 451.656 1006.287 451.656 990.549 459.215 944.57 459.215"/><polygon points="967.654 466.774 960.109 466.406 953.009 465.36 945.678 463.538 938.916 461.137 932.411 458.105 925.907 454.263 919.82 449.791 914.209 444.734 909.13 439.142 904.636 433.071 900.769 426.582 897.713 420.089 895.177 412.973 893.437 406.011 892.327 398.539 891.969 391.372 892.292 384.203 893.364 376.726 895.069 369.755 897.57 362.627 900.769 355.785 904.636 349.295 909.13 343.224 913.942 337.9 919.527 332.815 925.279 328.523 931.744 324.616 938.218 321.519 945.317 318.939 952.638 317.08 960.109 315.961 967.276 315.593 974.821 315.942 982.294 317.043 989.62 318.884 996.377 321.301 1003.208 324.527 1009.368 328.208 1015.445 332.695 1021.043 337.766 1026.107 343.371 1030.378 349.138 1034.082 355.285 1037.332 362.103 1039.886 369.212 1041.718 376.54 1042.809 384.015 1043.15 391.183 1042.809 398.351 1041.718 405.826 1039.886 413.154 1037.332 420.263 1034.082 427.082 1030.378 433.228 1026.107 438.996 1021.043 444.6 1015.445 449.672 1009.683 453.949 1003.541 457.661 996.726 460.92 989.62 463.483 982.294 465.324 975.197 466.387"/><polyline points="1039.227 548.034 1035.061 548.034 1039.038 555.593 1001.045 555.593 967.029 563.152 1038.849 563.152 1038.66 570.711 933.013 570.711 898.998 578.27 1038.471 578.27 1038.282 585.829 880.926 585.829 885.508 593.388 1038.093 593.388 1037.904 600.947 1009.134 600.947 1009.134 608.506 1037.715 608.506 1037.526 616.065 1009.134 616.065 1009.134 623.624 1037.337 623.624 1037.148 631.183 1009.134 631.183 1009.134 638.742 1036.959 638.742 1036.771 646.301 917.576 646.301 912.995 638.742 963.779 638.742 963.779 631.183 908.414 631.183 903.832 623.624 963.779 623.624 963.779 616.065 899.251 616.065 894.67 608.506 963.779 608.506 963.779 600.947 890.089 600.947"/><polygon points="873.071 580.16 948.661 704.884 986.457 674.648 1039.37 693.545 1043.15 542.364"/><polygon points="967.559 636.852 1005.354 636.852 1005.354 599.057 967.559 599.057"/><polyline points="949.645 699.215 959.147 691.656 945.064 691.656 940.482 684.097 968.596 684.097 978.044 676.538 935.901 676.538 931.32 668.979 1036.204 668.979 1036.392 661.419 926.739 661.419 922.158 653.86 1036.582 653.86 1036.015 676.538 1002.985 676.538 1024.151 684.097 1035.826 684.097"/><polygon points="891.968 88.821 1043.15 88.821 1043.15 240.002 891.968 240.002"/></g></svg>